<svg width="343" height="255" viewBox="0 0 343 255" fill="none" xmlns="http://www.w3.org/2000/svg">
<path d="M342.227 224.09H0V224.261H342.227V224.09Z" fill="#EBEBEB"/>
<path d="M307.936 235.103H285.267V235.274H307.936V235.103Z" fill="#EBEBEB"/>
<path d="M226.705 236.965H220.757V237.136H226.705V236.965Z" fill="#EBEBEB"/>
<path d="M284.582 228.751H271.447V228.922H284.582V228.751Z" fill="#EBEBEB"/>
<path d="M65.468 229.901H35.9065V230.072H65.468V229.901Z" fill="#EBEBEB"/>
<path d="M75.8991 229.901H71.5665V230.072H75.8991V229.901Z" fill="#EBEBEB"/>
<path d="M154.105 232.79H89.9851V232.961H154.105V232.79Z" fill="#EBEBEB"/>
<path d="M282.864 21.5398H249.511V62.6002H282.864V21.5398Z" fill="#F5F5F5"/>
<path d="M280.907 23.4973H251.475V60.6289H280.907V23.4973Z" fill="#EBEBEB"/>
<path d="M277.334 51.2587V60.6289H255.041V51.2587C255.036 48.828 255.889 46.4734 257.448 44.6092C259.008 42.7451 261.176 41.4908 263.569 41.0672C262.009 40.457 260.712 39.3212 259.9 37.856C259.089 36.3907 258.815 34.6881 259.125 33.0422C259.436 31.3963 260.311 29.9105 261.601 28.8415C262.89 27.7725 264.512 27.1875 266.187 27.1875C267.862 27.1875 269.485 27.7725 270.774 28.8415C272.064 29.9105 272.939 31.3963 273.25 33.0422C273.56 34.6881 273.286 36.3907 272.474 37.856C271.663 39.3212 270.365 40.457 268.805 41.0672C271.199 41.4908 273.366 42.7451 274.926 44.6092C276.486 46.4734 277.339 48.828 277.334 51.2587V51.2587Z" fill="#E0E0E0"/>
<path d="M86.5902 31.1016H58.8219V49.7461H86.5902V31.1016Z" fill="#E0E0E0"/>
<path d="M72.7094 25.1947L50.4236 31.1015L72.7094 37.0084L94.9952 31.1015L72.7094 25.1947Z" fill="#EBEBEB"/>
<path d="M84.1877 45.386V34.0925C84.187 33.985 84.1512 33.8807 84.0857 33.7954C84.0202 33.7102 83.9286 33.6487 83.8249 33.6203L72.8189 30.6292C72.6937 30.5955 72.5602 30.6126 72.4475 30.6766C72.3347 30.7407 72.2518 30.8466 72.2166 30.9714C72.199 31.0335 72.1939 31.0984 72.2016 31.1624C72.2093 31.2264 72.2297 31.2882 72.2616 31.3443C72.2934 31.4003 72.3361 31.4495 72.3871 31.4889C72.4382 31.5283 72.4965 31.5571 72.5588 31.5738L83.2089 34.469V45.3723C82.9237 45.4861 82.687 45.6957 82.5395 45.9651C82.3921 46.2345 82.3431 46.5469 82.401 46.8485C82.459 47.1501 82.6202 47.4221 82.8569 47.6177C83.0937 47.8133 83.3912 47.9203 83.6983 47.9203C84.0054 47.9203 84.3029 47.8133 84.5397 47.6177C84.7765 47.4221 84.9377 47.1501 84.9956 46.8485C85.0535 46.5469 85.0046 46.2345 84.8571 45.9651C84.7097 45.6957 84.473 45.4861 84.1877 45.3723V45.386Z" fill="#F5F5F5"/>
<path d="M144.139 6.35852L139.546 33.1754H163.756L144.139 6.35852Z" fill="#E0E0E0"/>
<path d="M181.147 33.1754H148.15L144.139 6.35852H177.137L181.147 33.1754Z" fill="#F5F5F5"/>
<path d="M177.869 11.2729H144.871L144.139 6.35852H177.137L177.869 11.2729Z" fill="#EBEBEB"/>
<path d="M154.885 16.331H152.038L151.613 13.4563H154.454L154.885 16.331Z" fill="#E0E0E0"/>
<path d="M159.218 16.331H156.37L155.946 13.4563H158.786L159.218 16.331Z" fill="#E0E0E0"/>
<path d="M163.55 16.331H160.703L160.278 13.4563H163.119L163.55 16.331Z" fill="#E0E0E0"/>
<path d="M167.883 16.331H165.035L164.611 13.4563H167.452L167.883 16.331Z" fill="#E0E0E0"/>
<path d="M172.215 16.331H169.368L168.944 13.4563H171.784L172.215 16.331Z" fill="#E0E0E0"/>
<path d="M176.548 16.331H173.701L173.276 13.4563H176.117L176.548 16.331Z" fill="#E0E0E0"/>
<path d="M151.162 20.431H148.321L147.89 17.5631H150.737L151.162 20.431Z" fill="#E0E0E0"/>
<path d="M155.501 20.431H152.654L152.222 17.5631H155.07L155.501 20.431Z" fill="#E0E0E0"/>
<path d="M159.827 20.431H156.986L156.555 17.5631H159.402L159.827 20.431Z" fill="#E0E0E0"/>
<path d="M164.159 20.431H161.319L160.888 17.5631H163.735L164.159 20.431Z" fill="#E0E0E0"/>
<path d="M168.492 20.431H165.651L165.22 17.5631H168.068L168.492 20.431Z" fill="#E0E0E0"/>
<path d="M172.824 20.431H169.984L169.553 17.5631H172.4L172.824 20.431Z" fill="#E0E0E0"/>
<path d="M177.157 20.431H174.317L173.885 17.5631H176.733L177.157 20.431Z" fill="#E0E0E0"/>
<path d="M151.778 24.5375H148.937L148.506 21.6628H151.346L151.778 24.5375Z" fill="#E0E0E0"/>
<path d="M156.11 24.5375H153.27L152.838 21.6628H155.679L156.11 24.5375Z" fill="#E0E0E0"/>
<path d="M160.443 24.5375H157.602L157.171 21.6628H160.011L160.443 24.5375Z" fill="#E0E0E0"/>
<path d="M164.775 24.5375H161.935L161.504 21.6628H164.344L164.775 24.5375Z" fill="#E0E0E0"/>
<path d="M169.108 24.5375H166.267L165.836 21.6628H168.677L169.108 24.5375Z" fill="#E0E0E0"/>
<path d="M173.441 24.5375H170.6L170.169 21.6628H173.009L173.441 24.5375Z" fill="#E0E0E0"/>
<path d="M177.773 24.5375H174.933L174.501 21.6628H177.342L177.773 24.5375Z" fill="#E0E0E0"/>
<path d="M152.394 28.6375H149.553L149.122 25.7697H151.962L152.394 28.6375Z" fill="#E0E0E0"/>
<path d="M156.726 28.6375H153.879L153.454 25.7697H156.295L156.726 28.6375Z" fill="#E0E0E0"/>
<path d="M161.059 28.6375H158.211L157.787 25.7697H160.628L161.059 28.6375Z" fill="#E0E0E0"/>
<path d="M165.391 28.6375H162.544L162.12 25.7697H164.96L165.391 28.6375Z" fill="#E0E0E0"/>
<path d="M169.724 28.6375H166.877L166.452 25.7697H169.293L169.724 28.6375Z" fill="#E0E0E0"/>
<path d="M174.057 28.6375H171.209L170.778 25.7697H173.625L174.057 28.6375Z" fill="#E0E0E0"/>
<path d="M306.936 118.233H281.974C281.146 118.233 280.475 118.904 280.475 119.731V155.398C280.475 156.226 281.146 156.897 281.974 156.897H306.936C307.764 156.897 308.435 156.226 308.435 155.398V119.731C308.435 118.904 307.764 118.233 306.936 118.233Z" fill="#E0E0E0"/>
<path d="M302.973 114.427H278.011C277.183 114.427 276.512 115.098 276.512 115.926V151.593C276.512 152.421 277.183 153.092 278.011 153.092H302.973C303.801 153.092 304.472 152.421 304.472 151.593V115.926C304.472 115.098 303.801 114.427 302.973 114.427Z" fill="#F5F5F5"/>
<path d="M299.599 120.512H281.386C281.266 120.513 281.147 120.49 281.036 120.444C280.925 120.399 280.825 120.332 280.74 120.247C280.655 120.162 280.588 120.062 280.543 119.951C280.497 119.84 280.474 119.721 280.475 119.601V119.601C280.475 119.36 280.571 119.128 280.742 118.958C280.913 118.787 281.144 118.691 281.386 118.691H299.599C299.84 118.691 300.072 118.787 300.243 118.958C300.413 119.128 300.509 119.36 300.509 119.601V119.601C300.51 119.721 300.487 119.84 300.442 119.951C300.396 120.062 300.329 120.162 300.245 120.247C300.16 120.332 300.059 120.399 299.948 120.444C299.838 120.49 299.719 120.513 299.599 120.512V120.512Z" fill="#EBEBEB"/>
<path d="M299.599 125.255H281.386C281.144 125.255 280.913 125.159 280.742 124.988C280.571 124.818 280.475 124.586 280.475 124.345V124.345C280.474 124.225 280.497 124.105 280.543 123.994C280.588 123.883 280.655 123.782 280.74 123.697C280.824 123.611 280.925 123.544 281.036 123.497C281.147 123.451 281.266 123.427 281.386 123.427H299.599C299.719 123.427 299.838 123.451 299.949 123.497C300.06 123.544 300.161 123.611 300.245 123.697C300.33 123.782 300.397 123.883 300.442 123.994C300.487 124.105 300.51 124.225 300.509 124.345V124.345C300.509 124.586 300.413 124.818 300.243 124.988C300.072 125.159 299.84 125.255 299.599 125.255V125.255Z" fill="#EBEBEB"/>
<path d="M299.599 129.95H281.386C281.266 129.951 281.147 129.928 281.036 129.883C280.925 129.837 280.825 129.77 280.74 129.686C280.655 129.601 280.588 129.5 280.543 129.389C280.497 129.279 280.474 129.16 280.475 129.04V129.04C280.475 128.799 280.571 128.567 280.742 128.396C280.913 128.226 281.144 128.13 281.386 128.13H299.599C299.84 128.13 300.072 128.226 300.243 128.396C300.413 128.567 300.509 128.799 300.509 129.04V129.04C300.51 129.16 300.487 129.279 300.442 129.389C300.396 129.5 300.329 129.601 300.245 129.686C300.16 129.77 300.059 129.837 299.948 129.883C299.838 129.928 299.719 129.951 299.599 129.95V129.95Z" fill="#EBEBEB"/>
<path d="M299.599 134.673H281.386C281.266 134.673 281.148 134.65 281.037 134.604C280.927 134.558 280.827 134.491 280.742 134.407C280.657 134.322 280.59 134.222 280.545 134.111C280.499 134.001 280.475 133.882 280.475 133.763V133.763C280.474 133.643 280.497 133.524 280.543 133.412C280.588 133.301 280.655 133.2 280.74 133.115C280.824 133.029 280.925 132.962 281.036 132.916C281.147 132.869 281.266 132.846 281.386 132.846H299.599C299.719 132.846 299.838 132.869 299.949 132.916C300.06 132.962 300.161 133.029 300.245 133.115C300.33 133.2 300.397 133.301 300.442 133.412C300.487 133.524 300.51 133.643 300.509 133.763V133.763C300.509 133.882 300.486 134.001 300.44 134.111C300.394 134.222 300.327 134.322 300.243 134.407C300.158 134.491 300.058 134.558 299.947 134.604C299.837 134.65 299.719 134.673 299.599 134.673V134.673Z" fill="#EBEBEB"/>
<path d="M299.599 139.389H281.386C281.266 139.39 281.147 139.367 281.036 139.322C280.925 139.276 280.825 139.209 280.74 139.124C280.655 139.04 280.588 138.939 280.543 138.828C280.497 138.717 280.474 138.599 280.475 138.479V138.479C280.474 138.359 280.497 138.24 280.543 138.129C280.588 138.018 280.655 137.918 280.74 137.833C280.825 137.748 280.925 137.681 281.036 137.636C281.147 137.59 281.266 137.567 281.386 137.568H299.599C299.719 137.567 299.838 137.59 299.948 137.636C300.059 137.681 300.16 137.748 300.245 137.833C300.329 137.918 300.396 138.018 300.442 138.129C300.487 138.24 300.51 138.359 300.509 138.479V138.479C300.51 138.599 300.487 138.717 300.442 138.828C300.396 138.939 300.329 139.04 300.245 139.124C300.16 139.209 300.059 139.276 299.948 139.322C299.838 139.367 299.719 139.39 299.599 139.389V139.389Z" fill="#EBEBEB"/>
<path d="M299.599 144.112H281.386C281.266 144.112 281.147 144.088 281.036 144.042C280.925 143.996 280.824 143.928 280.74 143.843C280.655 143.757 280.588 143.656 280.543 143.545C280.497 143.434 280.474 143.315 280.475 143.194C280.475 142.953 280.571 142.722 280.742 142.551C280.913 142.38 281.144 142.284 281.386 142.284H299.599C299.84 142.284 300.072 142.38 300.243 142.551C300.413 142.722 300.509 142.953 300.509 143.194C300.51 143.315 300.487 143.434 300.442 143.545C300.397 143.656 300.33 143.757 300.245 143.843C300.161 143.928 300.06 143.996 299.949 144.042C299.838 144.088 299.719 144.112 299.599 144.112V144.112Z" fill="#EBEBEB"/>
<path d="M295.492 148.828H281.386C281.144 148.828 280.913 148.732 280.742 148.561C280.571 148.39 280.475 148.159 280.475 147.917C280.474 147.797 280.497 147.679 280.543 147.568C280.588 147.457 280.655 147.356 280.74 147.272C280.825 147.187 280.925 147.12 281.036 147.074C281.147 147.029 281.266 147.006 281.386 147.007H295.492C295.612 147.006 295.731 147.029 295.842 147.074C295.953 147.12 296.053 147.187 296.138 147.272C296.223 147.356 296.29 147.457 296.335 147.568C296.381 147.679 296.404 147.797 296.403 147.917C296.403 148.159 296.307 148.39 296.136 148.561C295.965 148.732 295.734 148.828 295.492 148.828Z" fill="#EBEBEB"/>
<path d="M265.876 64.3933V66.1044" stroke="#EBEBEB" stroke-width="2" stroke-linecap="round" stroke-linejoin="round"/>
<path d="M265.876 69.4379V94.441" stroke="#EBEBEB" stroke-width="2" stroke-linecap="round" stroke-linejoin="round" stroke-dasharray="4.87 4.87"/>
<path d="M265.876 96.111V97.8221H264.165" stroke="#EBEBEB" stroke-width="2" stroke-linecap="round" stroke-linejoin="round"/>
<path d="M260.756 97.822H201.127" stroke="#EBEBEB" stroke-width="2" stroke-linecap="round" stroke-linejoin="round" stroke-dasharray="4.98 4.98"/>
<path d="M199.422 97.822H197.711V99.5332" stroke="#EBEBEB" stroke-width="2" stroke-linecap="round" stroke-linejoin="round"/>
<path d="M197.711 103.168V108.623" stroke="#EBEBEB" stroke-width="2" stroke-linecap="round" stroke-linejoin="round" stroke-dasharray="5.31 5.31"/>
<path d="M197.711 110.443V112.155H196" stroke="#EBEBEB" stroke-width="2" stroke-linecap="round" stroke-linejoin="round"/>
<path d="M192.215 112.155H186.527" stroke="#EBEBEB" stroke-width="2" stroke-linecap="round" stroke-linejoin="round" stroke-dasharray="5.54 5.54"/>
<path d="M184.631 112.155H182.92" stroke="#EBEBEB" stroke-width="2" stroke-linecap="round" stroke-linejoin="round"/>
<path d="M293.028 160.491V173.228H197.711V132.846H184.18" stroke="#EBEBEB" stroke-width="2" stroke-linecap="round" stroke-linejoin="round" stroke-dasharray="5 5"/>
<path d="M184.18 20.4309H202.578V91.8194H168.944" stroke="#EBEBEB" stroke-width="2" stroke-linecap="round" stroke-linejoin="round" stroke-dasharray="5 5"/>
<path d="M90.6079 42.0869H107.548V112.989H133.106" stroke="#EBEBEB" stroke-width="2" stroke-linecap="round" stroke-linejoin="round" stroke-dasharray="5 5"/>
<path d="M52.874 177.725L45.2835 172.934L37.5012 177.725V152.14H52.874V177.725Z" fill="#E0E0E0"/>
<path d="M53.6495 158.278C58.3245 153.603 58.3245 146.023 53.6495 141.348C48.9745 136.673 41.3948 136.673 36.7198 141.348C32.0448 146.023 32.0448 153.603 36.7198 158.278C41.3948 162.953 48.9745 162.953 53.6495 158.278Z" fill="#F5F5F5"/>
<path d="M52.3718 157C56.3412 153.031 56.3412 146.595 52.3718 142.626C48.4025 138.656 41.9669 138.656 37.9976 142.626C34.0282 146.595 34.0282 153.031 37.9976 157C41.9669 160.969 48.4025 160.969 52.3718 157Z" fill="#EBEBEB"/>
<path d="M61.2449 150.149H114.05V132.846H133.106" stroke="#EBEBEB" stroke-width="2" stroke-linecap="round" stroke-linejoin="round" stroke-dasharray="5 5"/>
<path d="M171.113 255C244.406 255 303.822 251.531 303.822 247.252C303.822 242.973 244.406 239.504 171.113 239.504C97.8205 239.504 38.4048 242.973 38.4048 247.252C38.4048 251.531 97.8205 255 171.113 255Z" fill="#F5F5F5"/>
<path d="M77.1927 59.2395C77.1927 59.2395 73.7704 60.5057 72.689 65.1943C71.6075 69.8828 74.4823 79.999 74.9408 84.7833C75.3994 89.5676 70.1497 99.2663 83.7908 100.149C97.432 101.032 99.4032 63.8116 93.0857 61.2107C86.7682 58.6098 77.1927 59.2395 77.1927 59.2395Z" fill="#263238"/>
<path d="M92.4423 61.7513C96.2478 59.9581 97.8768 72.3467 96.549 81.2856" stroke="#263238" stroke-width="0.5" stroke-linecap="round" stroke-linejoin="round"/>
<path d="M124.796 56.7481L126.419 52.2855C126.419 52.2855 125.734 51.471 128.855 49.9788C131.976 48.4867 133.879 47.6791 135.159 48.0829C136.439 48.4867 138.198 51.3683 138.061 52.3676C137.924 53.3669 129.396 54.7563 129.396 54.7563L128.178 58.1786L124.796 56.7481Z" fill="#E4897B"/>
<path d="M98.4108 79.5678C98.4108 79.5678 113.304 75.0983 115.741 72.8122C118.178 70.5262 125.07 53.4969 125.07 53.4969L130.074 55.5503C130.074 55.5503 124.947 75.331 120.614 79.91C116.282 84.489 99.6291 92.6066 99.6291 92.6066L98.4108 79.5678Z" fill="#407BFF"/>
<path opacity="0.6" d="M98.4108 79.5678C98.4108 79.5678 113.304 75.0983 115.741 72.8122C118.178 70.5262 125.07 53.4969 125.07 53.4969L130.074 55.5503C130.074 55.5503 124.947 75.331 120.614 79.91C116.282 84.489 99.6291 92.6066 99.6291 92.6066L98.4108 79.5678Z" fill="white"/>
<path d="M71.4706 231.386L74.7765 233.33C76.3272 231.244 78.005 229.255 79.8004 227.375V227.375C80.7586 226.362 81.7648 225.24 82.812 224.035C84.9064 221.633 87.1719 218.888 89.547 215.938L91.6757 213.276C99.9302 202.858 108.896 190.62 112.25 182.345C113.291 179.772 113.797 177.554 113.571 175.952C112.887 171.011 110.97 163.571 108.78 156.384C105.44 145.398 101.682 134.988 101.682 134.988L92.4491 150.628C92.4491 150.628 95.2827 157.383 97.8631 164.577C100.402 171.64 102.695 179.135 101.847 181.086C101.764 181.278 101.662 181.503 101.545 181.77C100.012 184.946 95.7687 192.14 90.9501 200.086L89.4786 202.502C86.8913 206.746 84.2014 211.106 81.71 215.11C80.7381 216.684 79.7935 218.204 78.8969 219.641C74.6396 226.438 71.4706 231.386 71.4706 231.386Z" fill="#E4897B"/>
<path opacity="0.2" d="M91.8674 213.269C87.5006 218.745 83.3049 223.741 80.1838 227.369C79.7389 225.137 79.2872 222.495 78.9313 219.614C82.5383 213.823 86.9531 206.678 90.964 200.059C90.8789 204.48 91.1812 208.9 91.8674 213.269V213.269Z" fill="black"/>
<path d="M75.3858 168.013C76.5288 175.809 78.1236 182.872 79.2187 187.082C79.8553 189.607 80.2865 191.1 80.2865 191.1C80.3019 199.105 80.7727 207.103 81.6964 215.055C82.0455 218.19 82.422 221.216 82.8121 224.001C84.2495 234.364 85.7621 241.797 85.7621 241.797L89.6977 241.284L89.5471 215.897L89.465 202.441L89.3555 184.132L89.3144 180.942L89.1228 167.02L88.8421 146.487L75.1531 140.327C73.3187 148.164 74.0032 158.622 75.3858 168.013Z" fill="#E4897B"/>
<path opacity="0.2" d="M112.018 168.143C108.52 170.559 103.804 172.01 100.567 172.79C99.8207 170.237 98.8556 167.369 97.8289 164.577C95.2485 157.383 92.4149 150.628 92.4149 150.628L101.648 134.988C101.648 134.988 105.406 145.398 108.746 156.384C109.992 160.381 111.128 164.46 112.018 168.143Z" fill="black"/>
<path opacity="0.2" d="M89.2391 175.672C84.985 175.58 80.7383 175.274 76.5151 174.755C76.1181 172.612 75.7279 170.347 75.3857 168.013C74.0168 158.622 73.3324 148.164 75.153 140.361L88.8421 146.521L89.1227 167.055L89.2391 175.672Z" fill="black"/>
<path d="M112.682 166.781C104.119 171.812 78.9312 173.947 78.9312 173.947L74.8244 162.366L75.2899 173.851H74.0647C74.0647 173.851 64.8656 142.709 77.09 122.298L98.9925 120.608L101.388 131.887C101.388 131.887 107.534 148.027 112.682 166.781Z" fill="#262626"/>
<path d="M96.6175 246.876C95.9724 246.491 95.2627 246.226 94.5231 246.095V246.095C94.5231 246.095 92.1001 244.295 90.1836 238.101L87.3021 237.772C86.8124 237.728 86.3209 237.835 85.8946 238.08C85.4683 238.325 85.128 238.696 84.9202 239.141C84.8588 239.264 84.8172 239.396 84.797 239.531C84.7524 240.229 84.7524 240.928 84.797 241.626C84.972 243.963 85.2875 246.287 85.7415 248.587L86.248 248.518L85.8236 244.124C85.6868 242.632 87.0694 244.206 87.6238 245.76C88.1782 247.314 89.1022 248.908 92.3602 248.498C96.1589 248.039 97.7126 247.67 96.6175 246.876Z" fill="#2E353A"/>
<path d="M89.3897 235.911C89.3897 235.911 90.4163 238.71 91.7852 241.79C92.4137 243.387 93.3432 244.849 94.5231 246.095C94.5231 246.095 92.1411 246.869 90.8612 245.377C89.5813 243.885 87.3774 238.498 84.9202 239.121C85.051 238.682 85.2349 238.262 85.4677 237.868C85.8373 237.259 89.3897 235.911 89.3897 235.911Z" fill="#E4897B"/>
<path d="M72.5041 244.446C72.3664 243.704 72.0926 242.994 71.6964 242.351V242.351C71.6964 242.351 71.4432 239.347 74.8107 233.809L73.1474 231.434C72.8601 231.038 72.4578 230.739 71.9951 230.578C71.5323 230.418 71.0314 230.404 70.5602 230.538C70.4279 230.575 70.3013 230.631 70.1838 230.702C69.6314 231.125 69.1056 231.583 68.6095 232.071C66.975 233.752 65.4436 235.53 64.0237 237.396L64.4138 237.724L67.4254 234.494C68.4521 233.406 68.1852 235.486 67.3912 236.924C66.5972 238.361 66.0223 240.12 68.4589 242.31C71.3268 244.87 72.6341 245.787 72.5041 244.446Z" fill="#2E353A"/>
<path d="M75.9264 231.756C75.9264 231.756 74.5096 234.384 73.1064 237.451C72.329 238.98 71.8505 240.643 71.6965 242.351C71.6965 242.351 69.5473 241.085 69.8142 239.134C70.0812 237.184 72.6547 231.975 70.5603 230.538C70.9762 230.349 71.4126 230.209 71.8607 230.12C72.552 229.976 75.9264 231.756 75.9264 231.756Z" fill="#E4897B"/>
<path d="M76.8642 120.033L76.741 123.339L99.3758 122.456L99.5264 118.547L76.8642 120.033Z" fill="#263238"/>
<path opacity="0.2" d="M76.8642 120.033L76.741 123.339L99.3758 122.456L99.5264 118.547L76.8642 120.033Z" fill="white"/>
<path d="M84.5117 118.923L83.3893 118.938L83.4661 124.653L84.5885 124.638L84.5117 118.923Z" fill="#263238"/>
<path d="M94.2689 118.934L89.3201 119.19L89.5141 122.943L94.4629 122.687L94.2689 118.934Z" fill="white"/>
<path d="M98.3508 117.927L97.2284 117.942L97.3042 123.656L98.4266 123.642L98.3508 117.927Z" fill="#263238"/>
<path d="M70.7177 121.429L75.8922 124.386C77.0991 124.844 78.1051 125.715 78.7327 126.843C79.9989 128.896 78.1783 136.726 77.1926 136.726C76.207 136.726 70.6424 135.508 70.7177 134.427C70.793 133.345 72.949 128.198 72.949 128.198L67.9457 125.084L70.7177 121.429Z" fill="#E4897B"/>
<path d="M76.741 120.026C76.741 120.026 75.3721 99.9576 70.7178 88.4862C70.7178 88.4862 80.3001 83.3391 98.4108 79.5883C98.4108 79.5883 103.599 92.2164 99.5264 118.787L76.741 120.026Z" fill="#FFC42D"/>
<path opacity="0.6" d="M91.7921 100.793C92.1474 100.793 92.4355 100.505 92.4355 100.149C92.4355 99.7939 92.1474 99.5059 91.7921 99.5059C91.4367 99.5059 91.1487 99.7939 91.1487 100.149C91.1487 100.505 91.4367 100.793 91.7921 100.793Z" fill="white"/>
<path opacity="0.6" d="M93.0857 107.938C93.0692 108.098 92.994 108.247 92.8745 108.354C92.755 108.462 92.5998 108.522 92.4389 108.522C92.278 108.522 92.1228 108.462 92.0033 108.354C91.8839 108.247 91.8086 108.098 91.7921 107.938C91.7828 107.848 91.7926 107.756 91.8208 107.67C91.8491 107.583 91.8952 107.504 91.9562 107.436C92.0171 107.368 92.0916 107.314 92.1748 107.278C92.2579 107.241 92.3479 107.221 92.4389 107.221C92.5299 107.221 92.6199 107.241 92.7031 107.278C92.7862 107.314 92.8607 107.368 92.9217 107.436C92.9827 107.504 93.0288 107.583 93.057 107.67C93.0853 107.756 93.0951 107.848 93.0857 107.938V107.938Z" fill="white"/>
<path opacity="0.6" d="M93.0857 115.337C93.0692 115.497 92.994 115.646 92.8745 115.753C92.755 115.861 92.5998 115.921 92.4389 115.921C92.278 115.921 92.1228 115.861 92.0033 115.753C91.8839 115.646 91.8086 115.497 91.7921 115.337C91.7828 115.247 91.7926 115.155 91.8208 115.069C91.8491 114.982 91.8952 114.903 91.9562 114.835C92.0171 114.768 92.0916 114.714 92.1748 114.677C92.2579 114.64 92.3479 114.62 92.4389 114.62C92.5299 114.62 92.6199 114.64 92.7031 114.677C92.7862 114.714 92.8607 114.768 92.9217 114.835C92.9827 114.903 93.0288 114.982 93.057 115.069C93.0853 115.155 93.0951 115.247 93.0857 115.337V115.337Z" fill="white"/>
<path d="M70.7177 88.4862C66.4604 90.827 51.026 108.568 52.2375 113.845C53.4489 119.122 70.7177 127.384 70.7177 127.384L73.6814 122.271C73.6814 122.271 62.3742 113.845 61.8335 112.49C61.2928 111.135 74.2769 100.923 74.2769 100.923C74.4413 98.2129 74.3611 95.4937 74.0373 92.7983C73.8995 91.8554 73.5218 90.9638 72.9406 90.2088C72.3593 89.4537 71.5939 88.8606 70.7177 88.4862V88.4862Z" fill="#407BFF"/>
<path opacity="0.6" d="M70.7177 88.4862C66.4604 90.827 51.026 108.568 52.2375 113.845C53.4489 119.122 70.7177 127.384 70.7177 127.384L73.6814 122.271C73.6814 122.271 62.3742 113.845 61.8335 112.49C61.2928 111.135 74.2769 100.923 74.2769 100.923C74.4413 98.2129 74.3611 95.4937 74.0373 92.7983C73.8995 91.8554 73.5218 90.9638 72.9406 90.2088C72.3593 89.4537 71.5939 88.8606 70.7177 88.4862Z" fill="white"/>
<path d="M78.7121 92.0453C78.7121 92.0453 74.3795 84.9681 83.8592 82.5246C93.3389 80.0811 96.2272 85.7758 96.2272 85.7758L91.5045 84.9613L90.9091 96.2479C88.7258 92.3411 85.1732 89.381 80.9366 87.9386L78.7121 92.0453Z" fill="#407BFF"/>
<path opacity="0.6" d="M78.7121 92.0453C78.7121 92.0453 74.3795 84.9681 83.8592 82.5246C93.3389 80.0811 96.2272 85.7758 96.2272 85.7758L91.5045 84.9613L90.9091 96.2479C88.7258 92.3411 85.1732 89.381 80.9366 87.9386L78.7121 92.0453Z" fill="white"/>
<path d="M89.4786 90.6969C86.3014 89.2126 83.256 87.4609 80.3754 85.4609C82.5998 83.3665 82.196 80.2727 81.6279 78.3426C81.4514 77.7308 81.2224 77.1354 80.9435 76.563L87.4937 77.7882C87.3427 78.6934 87.2581 79.6084 87.2404 80.526C87.2161 81.2155 87.2781 81.9053 87.4252 82.5793C87.8701 84.5369 88.9858 84.5643 88.9858 84.5643C90.1494 86.7066 89.4786 90.6969 89.4786 90.6969Z" fill="#E4897B"/>
<path opacity="0.2" d="M87.2541 80.5466C87.2298 81.2361 87.2918 81.9259 87.4389 82.6C84.838 82.2577 82.8668 80.177 81.6279 78.37C81.4514 77.7582 81.2224 77.1628 80.9435 76.5905L87.4937 77.8156C87.3477 78.7189 87.2676 79.6317 87.2541 80.5466V80.5466Z" fill="black"/>
<path d="M85.9538 59.349C93.0105 59.349 93.5991 62.7713 94.0029 68.637C94.5094 75.9744 92.8736 81.1899 85.7484 79.5883C76.0771 77.4528 76.4878 59.349 85.9538 59.349Z" fill="#E4897B"/>
<path d="M90.3478 68.3085C90.8022 69.1619 91.3584 69.9571 92.0042 70.6767C91.8358 70.9112 91.6065 71.0951 91.341 71.2085C91.0756 71.3219 90.7842 71.3605 90.4984 71.3201L90.3478 68.3085Z" fill="#DE5753"/>
<path d="M86.8366 67.8362C86.8366 68.3017 86.5971 68.6849 86.2891 68.6918C85.9811 68.6986 85.7141 68.329 85.7073 67.8568C85.7005 67.3845 85.94 67.008 86.248 67.0012C86.556 66.9943 86.823 67.364 86.8366 67.8362Z" fill="#263238"/>
<path d="M86.1249 67.0218L87.131 66.6042C87.131 66.6042 86.6451 67.4735 86.1249 67.0218Z" fill="#263238"/>
<path d="M92.6545 67.6172C92.6545 68.0827 92.415 68.466 92.107 68.4728C91.799 68.4796 91.532 68.1032 91.5252 67.6378C91.5183 67.1724 91.7579 66.7822 92.0727 66.7754C92.3876 66.7685 92.6408 67.145 92.6545 67.6172Z" fill="#263238"/>
<path d="M91.9426 66.8026L92.9488 66.3851C92.9488 66.3851 92.4628 67.2475 91.9426 66.8026Z" fill="#263238"/>
<path d="M86.7886 63.9005C86.3377 63.8447 85.88 63.8927 85.4506 64.041C85.0211 64.1893 84.6313 64.4339 84.3109 64.7561" stroke="#263238" stroke-width="0.707962" stroke-linecap="round" stroke-linejoin="round"/>
<path d="M90.9297 63.6542C91.3196 63.5568 91.7264 63.5487 92.1199 63.6304C92.5134 63.7122 92.8833 63.8818 93.2021 64.1265" stroke="#263238" stroke-width="0.707962" stroke-linecap="round" stroke-linejoin="round"/>
<path d="M79.821 69.2872C79.821 69.2872 82.4972 64.6056 82.1002 60.9917C82.1002 60.9917 86.1248 56.8439 91.5388 60.9437C91.5388 60.9437 93.7975 64.8383 93.9412 67.8704C93.9412 67.8704 95.0637 57.6926 85.2692 57.4393C75.4747 57.1861 75.4815 71.5254 80.5328 75.8101C80.5328 75.8101 78.1646 72.2099 79.821 69.2872Z" fill="#263238"/>
<path d="M80.7654 70.4988C80.7395 70.1715 80.6493 69.8526 80.5001 69.5603C80.3508 69.2679 80.1454 69.0078 79.8956 68.7949C79.6458 68.5819 79.3565 68.4203 79.0442 68.3193C78.7319 68.2182 78.4027 68.1796 78.0755 68.2059C76.3096 68.3975 75.4609 72.0183 79.8551 72.9012C80.4711 73.0176 80.827 72.4084 80.7654 70.4988Z" fill="#E4897B"/>
<path d="M89.6977 74.407C89.6977 74.407 87.309 74.9478 86.3234 72.8123" stroke="#263238" stroke-width="0.707962" stroke-linecap="round" stroke-linejoin="round"/>
<path d="M82.1345 60.9916C82.1345 60.9916 88.6505 58.1032 92.9625 61.9156C92.9625 61.9156 94.6531 56.8917 88.8558 55.1806C83.0585 53.4694 77.2201 59.2394 77.2201 59.2394L82.1345 60.9916Z" fill="#263238"/>
<path d="M82.1344 60.9917C82.1344 60.9917 78.3357 64.7425 78.8833 72.2167C79.4308 79.691 78.7121 84.4069 77.2269 89.0817C75.7416 93.7565 79.6293 95.1528 79.6293 95.1528C79.6293 95.1528 75.2009 96.2479 74.2906 91.5046C73.6883 88.3972 75.1119 81.6622 74.4001 73.6404C73.6883 65.6186 76.5082 59.9445 82.1344 60.9917Z" fill="#263238"/>
<path d="M187.848 44.3389C186.603 44.3389 185.385 44.7082 184.35 45.4001C183.314 46.092 182.507 47.0755 182.031 48.2261C181.554 49.3767 181.429 50.6428 181.672 51.8643C181.915 53.0858 182.515 54.2078 183.396 55.0885C184.276 55.9691 185.398 56.5688 186.62 56.8118C187.841 57.0548 189.107 56.9301 190.258 56.4535C191.409 55.9769 192.392 55.1698 193.084 54.1343C193.776 53.0987 194.145 51.8813 194.145 50.6358C194.145 48.9658 193.482 47.3641 192.301 46.1832C191.12 45.0023 189.518 44.3389 187.848 44.3389ZM187.848 50.0267C187.487 50.0267 187.133 49.9195 186.833 49.7187C186.532 49.5179 186.298 49.2325 186.16 48.8985C186.022 48.5646 185.985 48.1972 186.056 47.8427C186.126 47.4882 186.3 47.1625 186.556 46.907C186.812 46.6514 187.137 46.4773 187.492 46.4068C187.846 46.3363 188.214 46.3725 188.548 46.5108C188.882 46.6491 189.167 46.8834 189.368 47.1839C189.569 47.4844 189.676 47.8377 189.676 48.1992C189.676 48.4392 189.628 48.6768 189.537 48.8985C189.445 49.1203 189.31 49.3217 189.14 49.4914C188.971 49.6611 188.769 49.7957 188.548 49.8876C188.326 49.9794 188.088 50.0267 187.848 50.0267Z" fill="#407BFF"/>
<path opacity="0.6" d="M187.848 44.3389C186.603 44.3389 185.385 44.7082 184.35 45.4001C183.314 46.092 182.507 47.0755 182.031 48.2261C181.554 49.3767 181.429 50.6428 181.672 51.8643C181.915 53.0858 182.515 54.2078 183.396 55.0885C184.276 55.9691 185.398 56.5688 186.62 56.8118C187.841 57.0548 189.107 56.9301 190.258 56.4535C191.409 55.9769 192.392 55.1698 193.084 54.1343C193.776 53.0987 194.145 51.8813 194.145 50.6358C194.145 48.9658 193.482 47.3641 192.301 46.1832C191.12 45.0023 189.518 44.3389 187.848 44.3389ZM187.848 50.0267C187.487 50.0267 187.133 49.9195 186.833 49.7187C186.532 49.5179 186.298 49.2325 186.16 48.8985C186.022 48.5646 185.985 48.1972 186.056 47.8427C186.126 47.4882 186.3 47.1625 186.556 46.907C186.812 46.6514 187.137 46.4773 187.492 46.4068C187.846 46.3363 188.214 46.3725 188.548 46.5108C188.882 46.6491 189.167 46.8834 189.368 47.1839C189.569 47.4844 189.676 47.8377 189.676 48.1992C189.676 48.4392 189.628 48.6768 189.537 48.8985C189.445 49.1203 189.31 49.3217 189.14 49.4914C188.971 49.6611 188.769 49.7957 188.548 49.8876C188.326 49.9794 188.088 50.0267 187.848 50.0267Z" fill="white"/>
<path d="M250.154 52.6072H125.536C122.704 52.6072 120.409 54.9024 120.409 57.7337V243.44C120.409 246.271 122.704 248.566 125.536 248.566H250.154C252.985 248.566 255.281 246.271 255.281 243.44V57.7337C255.281 54.9024 252.985 52.6072 250.154 52.6072Z" fill="#407BFF"/>
<path opacity="0.8" d="M248.142 63.9963H127.548V239.244H248.142V63.9963Z" fill="white"/>
<path d="M219.922 50.937H155.775C155.045 50.937 154.454 51.5284 154.454 52.258V60.4851C154.454 61.2147 155.045 61.8061 155.775 61.8061H219.922C220.651 61.8061 221.243 61.2147 221.243 60.4851V52.258C221.243 51.5284 220.651 50.937 219.922 50.937Z" fill="#407BFF"/>
<path opacity="0.4" d="M219.922 50.937H155.775C155.045 50.937 154.454 51.5284 154.454 52.258V60.4851C154.454 61.2147 155.045 61.8061 155.775 61.8061H219.922C220.651 61.8061 221.243 61.2147 221.243 60.4851V52.258C221.243 51.5284 220.651 50.937 219.922 50.937Z" fill="white"/>
<path d="M212.536 71.9019H193.207C192.814 71.9088 192.426 71.8078 192.086 71.6099C191.746 71.412 191.466 71.1248 191.277 70.7793C190.946 70.1597 190.453 69.6417 189.85 69.2805C189.247 68.9193 188.558 68.7285 187.855 68.7285C187.152 68.7285 186.463 68.9193 185.86 69.2805C185.257 69.6417 184.764 70.1597 184.433 70.7793C184.244 71.1243 183.964 71.4111 183.624 71.6089C183.284 71.8067 182.896 71.908 182.503 71.9019H163.153C162.609 71.9019 162.086 71.6855 161.701 71.3004C161.316 70.9154 161.1 70.3931 161.1 69.8485V58.3154C161.1 57.7709 161.316 57.2486 161.701 56.8635C162.086 56.4784 162.609 56.2621 163.153 56.2621H212.536C213.081 56.2621 213.603 56.4784 213.988 56.8635C214.373 57.2486 214.59 57.7709 214.59 58.3154V69.8143C214.594 70.0868 214.545 70.3575 214.443 70.6106C214.342 70.8637 214.192 71.0941 214.001 71.2884C213.809 71.4827 213.582 71.637 213.33 71.7423C213.079 71.8477 212.809 71.9019 212.536 71.9019ZM187.848 67.3502C188.801 67.3483 189.736 67.6068 190.553 68.0978C191.37 68.5887 192.037 69.2935 192.482 70.136C192.556 70.2609 192.663 70.3636 192.791 70.4334C192.918 70.5032 193.062 70.5376 193.207 70.5329H212.536C212.718 70.5329 212.892 70.4608 213.02 70.3325C213.149 70.2041 213.221 70.03 213.221 69.8485V58.3154C213.221 58.1339 213.149 57.9598 213.02 57.8315C212.892 57.7031 212.718 57.631 212.536 57.631H163.153C162.972 57.631 162.797 57.7031 162.669 57.8315C162.541 57.9598 162.469 58.1339 162.469 58.3154V69.8143C162.469 69.9958 162.541 70.1699 162.669 70.2982C162.797 70.4266 162.972 70.4987 163.153 70.4987H182.496C182.64 70.5028 182.783 70.4682 182.909 70.3984C183.036 70.3285 183.141 70.2261 183.214 70.1017C183.665 69.2662 184.334 68.5687 185.15 68.0841C185.966 67.5994 186.899 67.3458 187.848 67.3502V67.3502Z" fill="#263238"/>
<g opacity="0.2">
<path d="M212.536 71.9019H193.207C192.814 71.9088 192.426 71.8078 192.086 71.6099C191.746 71.412 191.466 71.1248 191.277 70.7793C190.946 70.1597 190.453 69.6417 189.85 69.2805C189.247 68.9193 188.558 68.7285 187.855 68.7285C187.152 68.7285 186.463 68.9193 185.86 69.2805C185.257 69.6417 184.764 70.1597 184.433 70.7793C184.244 71.1243 183.964 71.4111 183.624 71.6089C183.284 71.8067 182.896 71.908 182.503 71.9019H163.153C162.609 71.9019 162.086 71.6855 161.701 71.3004C161.316 70.9154 161.1 70.3931 161.1 69.8485V58.3154C161.1 57.7709 161.316 57.2486 161.701 56.8635C162.086 56.4784 162.609 56.2621 163.153 56.2621H212.536C213.081 56.2621 213.603 56.4784 213.988 56.8635C214.373 57.2486 214.59 57.7709 214.59 58.3154V69.8143C214.594 70.0868 214.545 70.3575 214.443 70.6106C214.342 70.8637 214.192 71.0941 214.001 71.2884C213.809 71.4827 213.582 71.637 213.33 71.7423C213.079 71.8477 212.809 71.9019 212.536 71.9019ZM187.848 67.3502C188.801 67.3483 189.736 67.6068 190.553 68.0978C191.37 68.5887 192.037 69.2935 192.482 70.136C192.556 70.2609 192.663 70.3636 192.791 70.4334C192.918 70.5032 193.062 70.5376 193.207 70.5329H212.536C212.718 70.5329 212.892 70.4608 213.02 70.3325C213.149 70.2041 213.221 70.03 213.221 69.8485V58.3154C213.221 58.1339 213.149 57.9598 213.02 57.8315C212.892 57.7031 212.718 57.631 212.536 57.631H163.153C162.972 57.631 162.797 57.7031 162.669 57.8315C162.541 57.9598 162.469 58.1339 162.469 58.3154V69.8143C162.469 69.9958 162.541 70.1699 162.669 70.2982C162.797 70.4266 162.972 70.4987 163.153 70.4987H182.496C182.64 70.5028 182.783 70.4682 182.909 70.3984C183.036 70.3285 183.141 70.2261 183.214 70.1017C183.665 69.2662 184.334 68.5687 185.15 68.0841C185.966 67.5994 186.899 67.3458 187.848 67.3502V67.3502Z" fill="white"/>
</g>
<path d="M209.607 54.2567H166.11C165.672 54.2567 165.316 54.6122 165.316 55.0507V58.1307C165.316 58.5692 165.672 58.9247 166.11 58.9247H209.607C210.046 58.9247 210.401 58.5692 210.401 58.1307V55.0507C210.401 54.6122 210.046 54.2567 209.607 54.2567Z" fill="#407BFF"/>
<path opacity="0.6" d="M209.587 54.2567H166.09C165.651 54.2567 165.296 54.6122 165.296 55.0507V58.1307C165.296 58.5692 165.651 58.9247 166.09 58.9247H209.587C210.025 58.9247 210.38 58.5692 210.38 58.1307V55.0507C210.38 54.6122 210.025 54.2567 209.587 54.2567Z" fill="white"/>
<path opacity="0.3" d="M199.046 159.71H186.863V171.894H199.046V159.71Z" fill="black"/>
<path opacity="0.3" d="M197.622 176.794H188.286C187.909 176.794 187.547 176.644 187.28 176.377C187.013 176.11 186.863 175.748 186.863 175.371V175.371C186.864 174.994 187.015 174.634 187.282 174.368C187.549 174.103 187.91 173.954 188.286 173.954H197.622C197.999 173.954 198.36 174.103 198.626 174.368C198.893 174.634 199.044 174.994 199.046 175.371V175.371C199.046 175.748 198.896 176.11 198.629 176.377C198.362 176.644 198 176.794 197.622 176.794V176.794Z" fill="black"/>
<path opacity="0.3" d="M236.828 159.71H205.493C204.775 159.71 204.193 160.293 204.193 161.011V161.018C204.193 161.736 204.775 162.318 205.493 162.318H236.828C237.546 162.318 238.128 161.736 238.128 161.018V161.011C238.128 160.293 237.546 159.71 236.828 159.71Z" fill="black"/>
<path opacity="0.3" d="M229.983 166.555H205.493C204.775 166.555 204.193 167.137 204.193 167.855V167.862C204.193 168.58 204.775 169.163 205.493 169.163H229.983C230.701 169.163 231.284 168.58 231.284 167.862V167.855C231.284 167.137 230.701 166.555 229.983 166.555Z" fill="black"/>
<path opacity="0.3" d="M236.828 173.399H205.493C204.775 173.399 204.193 173.982 204.193 174.7V174.707C204.193 175.425 204.775 176.007 205.493 176.007H236.828C237.546 176.007 238.128 175.425 238.128 174.707V174.7C238.128 173.982 237.546 173.399 236.828 173.399Z" fill="black"/>
<path opacity="0.3" d="M219.032 180.244H205.493C204.775 180.244 204.193 180.826 204.193 181.544V181.551C204.193 182.27 204.775 182.852 205.493 182.852H219.032C219.75 182.852 220.332 182.27 220.332 181.551V181.544C220.332 180.826 219.75 180.244 219.032 180.244Z" fill="black"/>
<path opacity="0.3" d="M223.857 82.0455H151.497C150.871 82.0437 150.272 81.7943 149.829 81.3519C149.387 80.9094 149.137 80.3098 149.136 79.6841V79.6841C149.136 79.0578 149.384 78.4572 149.827 78.0144C150.27 77.5715 150.871 77.3228 151.497 77.3228H223.857C224.484 77.3228 225.084 77.5715 225.527 78.0144C225.97 78.4572 226.219 79.0578 226.219 79.6841V79.6841C226.217 80.3098 225.968 80.9094 225.525 81.3519C225.083 81.7943 224.483 82.0437 223.857 82.0455V82.0455Z" fill="black"/>
<path opacity="0.3" d="M235.924 96.022H188.163C187.817 96.0201 187.487 95.8816 187.243 95.6366C186.999 95.3917 186.863 95.0602 186.863 94.7147V94.7147C186.863 94.3697 187 94.039 187.243 93.7951C187.487 93.5512 187.818 93.4142 188.163 93.4142H235.924C236.269 93.4142 236.6 93.5512 236.844 93.7951C237.088 94.039 237.225 94.3697 237.225 94.7147V94.7147C237.225 95.0602 237.088 95.3917 236.844 95.6366C236.6 95.8816 236.27 96.0201 235.924 96.022V96.022Z" fill="black"/>
<path opacity="0.3" d="M229.08 102.867H188.163C187.817 102.865 187.487 102.726 187.243 102.481C186.999 102.236 186.863 101.905 186.863 101.559V101.559C186.863 101.214 187 100.884 187.243 100.64C187.487 100.396 187.818 100.259 188.163 100.259H229.08C229.425 100.259 229.755 100.396 229.999 100.64C230.243 100.884 230.38 101.214 230.38 101.559V101.559C230.38 101.905 230.243 102.236 230 102.481C229.756 102.726 229.425 102.865 229.08 102.867V102.867Z" fill="black"/>
<path opacity="0.3" d="M235.924 109.711H188.163C187.817 109.709 187.487 109.571 187.243 109.326C186.999 109.081 186.863 108.749 186.863 108.404V108.404C186.863 108.059 187 107.728 187.243 107.484C187.487 107.24 187.818 107.103 188.163 107.103H235.924C236.269 107.103 236.6 107.24 236.844 107.484C237.088 107.728 237.225 108.059 237.225 108.404V108.404C237.225 108.749 237.088 109.081 236.844 109.326C236.6 109.571 236.27 109.709 235.924 109.711Z" fill="black"/>
<path opacity="0.3" d="M222.235 116.556H188.163C187.817 116.554 187.487 116.415 187.243 116.17C186.999 115.925 186.863 115.594 186.863 115.248V115.248C186.863 114.903 187 114.573 187.243 114.329C187.487 114.085 187.818 113.948 188.163 113.948H222.235C222.58 113.948 222.911 114.085 223.155 114.329C223.399 114.573 223.536 114.903 223.536 115.248C223.536 115.594 223.399 115.925 223.155 116.17C222.911 116.415 222.581 116.554 222.235 116.556V116.556Z" fill="black"/>
<path opacity="0.3" d="M190.278 124.714L191.031 126.234L192.715 126.48L191.496 127.664L191.784 129.341L190.278 128.547L188.779 129.341L189.066 127.664L187.848 126.48L189.525 126.234L190.278 124.714Z" fill="black"/>
<path opacity="0.3" d="M198.779 124.714L199.532 126.234L201.209 126.48L199.99 127.664L200.278 129.341L198.779 128.547L197.273 129.341L197.561 127.664L196.342 126.48L198.026 126.234L198.779 124.714Z" fill="black"/>
<path opacity="0.3" d="M207.273 124.714L208.026 126.234L209.71 126.48L208.491 127.664L208.779 129.341L207.273 128.547L205.767 129.341L206.055 127.664L204.843 126.48L206.52 126.234L207.273 124.714Z" fill="black"/>
<path opacity="0.3" d="M215.774 124.714L216.52 126.234L218.204 126.48L216.985 127.664L217.273 129.341L215.774 128.547L214.268 129.341L214.556 127.664L213.337 126.48L215.021 126.234L215.774 124.714Z" fill="black"/>
<path opacity="0.3" d="M224.268 124.714L225.021 126.234L226.698 126.48L225.486 127.664L225.774 129.341L224.268 128.547L222.762 129.341L223.05 127.664L221.838 126.48L223.515 126.234L224.268 124.714Z" fill="black"/>
<path opacity="0.3" d="M190.278 133.434L191.031 134.954L192.715 135.2L191.496 136.384L191.784 138.061L190.278 137.267L188.779 138.061L189.066 136.384L187.848 135.2L189.525 134.954L190.278 133.434Z" fill="black"/>
<path opacity="0.3" d="M198.779 133.434L199.532 134.954L201.209 135.2L199.99 136.384L200.278 138.061L198.779 137.267L197.273 138.061L197.561 136.384L196.342 135.2L198.026 134.954L198.779 133.434Z" fill="black"/>
<path opacity="0.3" d="M207.273 133.434L208.026 134.954L209.71 135.2L208.491 136.384L208.779 138.061L207.273 137.267L205.767 138.061L206.055 136.384L204.843 135.2L206.52 134.954L207.273 133.434Z" fill="black"/>
<path opacity="0.1" d="M215.774 133.434L216.52 134.954L218.204 135.2L216.985 136.384L217.273 138.061L215.774 137.267L214.268 138.061L214.556 136.384L213.337 135.2L215.021 134.954L215.774 133.434Z" fill="black"/>
<path opacity="0.1" d="M224.268 133.434L225.021 134.954L226.698 135.2L225.486 136.384L225.774 138.061L224.268 137.267L222.762 138.061L223.05 136.384L221.838 135.2L223.515 134.954L224.268 133.434Z" fill="black"/>
<path opacity="0.3" d="M190.278 142.154L191.031 143.674L192.715 143.92L191.496 145.104L191.784 146.781L190.278 145.987L188.779 146.781L189.066 145.104L187.848 143.92L189.525 143.674L190.278 142.154Z" fill="black"/>
<path opacity="0.3" d="M198.779 142.154L199.532 143.674L201.209 143.92L199.99 145.104L200.278 146.781L198.779 145.987L197.273 146.781L197.561 145.104L196.342 143.92L198.026 143.674L198.779 142.154Z" fill="black"/>
<path opacity="0.3" d="M207.273 142.154L208.026 143.674L209.71 143.92L208.491 145.104L208.779 146.781L207.273 145.987L205.767 146.781L206.055 145.104L204.843 143.92L206.52 143.674L207.273 142.154Z" fill="black"/>
<path opacity="0.3" d="M215.774 142.154L216.52 143.674L218.204 143.92L216.985 145.104L217.273 146.781L215.774 145.987L214.268 146.781L214.556 145.104L213.337 143.92L215.021 143.674L215.774 142.154Z" fill="black"/>
<path opacity="0.1" d="M224.268 142.154L225.021 143.674L226.698 143.92L225.486 145.104L225.774 146.781L224.268 145.987L222.762 146.781L223.05 145.104L221.838 143.92L223.515 143.674L224.268 142.154Z" fill="black"/>
<path opacity="0.3" d="M199.046 193.933H186.863V206.116H199.046V193.933Z" fill="black"/>
<path opacity="0.3" d="M197.622 211.017H188.286C187.909 211.017 187.547 210.867 187.28 210.6C187.013 210.333 186.863 209.971 186.863 209.593V209.593C186.864 209.217 187.015 208.857 187.282 208.591C187.549 208.326 187.91 208.177 188.286 208.177H197.622C197.999 208.177 198.36 208.326 198.626 208.591C198.893 208.857 199.044 209.217 199.046 209.593V209.593C199.046 209.971 198.896 210.333 198.629 210.6C198.362 210.867 198 211.017 197.622 211.017V211.017Z" fill="black"/>
<path opacity="0.3" d="M236.828 193.933H205.493C204.775 193.933 204.193 194.515 204.193 195.233V195.24C204.193 195.959 204.775 196.541 205.493 196.541H236.828C237.546 196.541 238.128 195.959 238.128 195.24V195.233C238.128 194.515 237.546 193.933 236.828 193.933Z" fill="black"/>
<path opacity="0.3" d="M229.983 200.778H205.493C204.775 200.778 204.193 201.36 204.193 202.078V202.085C204.193 202.803 204.775 203.385 205.493 203.385H229.983C230.701 203.385 231.284 202.803 231.284 202.085V202.078C231.284 201.36 230.701 200.778 229.983 200.778Z" fill="black"/>
<path opacity="0.3" d="M236.828 207.622H205.493C204.775 207.622 204.193 208.204 204.193 208.923V208.93C204.193 209.648 204.775 210.23 205.493 210.23H236.828C237.546 210.23 238.128 209.648 238.128 208.93V208.923C238.128 208.204 237.546 207.622 236.828 207.622Z" fill="black"/>
<path opacity="0.3" d="M219.032 214.467H205.493C204.775 214.467 204.193 215.049 204.193 215.767V215.774C204.193 216.492 204.775 217.074 205.493 217.074H219.032C219.75 217.074 220.332 216.492 220.332 215.774V215.767C220.332 215.049 219.75 214.467 219.032 214.467Z" fill="black"/>
<path d="M179.087 93.4142H135.159V151.743H179.087V93.4142Z" fill="white"/>
<path d="M177.034 95.4675H137.212V149.69H177.034V95.4675Z" fill="#407BFF"/>
<path opacity="0.4" d="M177.034 95.4675H137.212V149.69H177.034V95.4675Z" fill="white"/>
<path d="M177.034 137.575V149.69H173.94C173.084 148.875 172.141 148.156 171.127 147.548C170.638 147.253 170.114 147.023 169.566 146.863C164.919 145.604 171.62 133.174 171.62 133.174C173.167 133.667 175.09 135.419 177.034 137.575Z" fill="#407BFF"/>
<path opacity="0.6" d="M177.034 137.575V149.69H173.94C173.084 148.875 172.141 148.156 171.127 147.548C170.638 147.253 170.114 147.023 169.566 146.863C164.919 145.604 171.62 133.174 171.62 133.174C173.167 133.667 175.09 135.419 177.034 137.575Z" fill="white"/>
<path opacity="0.2" d="M177.034 149.649V149.69H173.94C173.084 148.875 172.141 148.156 171.127 147.548L172.044 141.819C172.939 142.561 173.733 143.417 174.406 144.365V144.365C175.576 145.964 176.464 147.751 177.034 149.649Z" fill="black"/>
<path d="M168.506 132.674C168.41 133.167 168.314 133.667 168.204 134.16C168.095 134.653 167.944 135.33 167.801 135.912C166.309 141.915 163.844 147.171 160.313 149.69H148.239C144.728 147.904 144.057 144.899 144.173 141.75C144.249 139.622 144.687 137.452 144.858 135.59C144.912 134.948 144.912 134.302 144.858 133.66C144.769 132.688 144.584 131.518 144.358 130.238C143.311 124.276 141.264 115.673 142.305 111.258C143.544 105.892 147.459 104.413 147.459 104.413C147.459 104.413 148.787 104.324 150.826 104.338C152.332 104.338 154.248 104.413 156.254 104.605H156.398C158.647 104.808 160.875 105.201 163.057 105.782L163.557 105.926C163.988 106.056 164.419 106.193 164.837 106.344C165.111 106.439 165.378 106.542 165.645 106.652C165.991 106.798 166.303 107.015 166.562 107.288C169.662 110.471 170.429 122.141 168.506 132.674Z" fill="#263238"/>
<path d="M164.898 107.315C169.245 105.262 171.12 119.437 169.566 129.67" stroke="#263238" stroke-width="0.5" stroke-linecap="round" stroke-linejoin="round"/>
<path d="M174.734 149.69H143.496C143.365 149.101 143.235 148.513 143.099 147.931C142.327 144.524 141.304 141.18 140.039 137.924C141.319 137.164 142.655 136.502 144.036 135.946C144.296 135.83 144.563 135.72 144.851 135.611C145.932 135.18 147.192 134.735 148.602 134.31L149.053 134.18C150.114 133.872 151.257 133.585 152.476 133.332C155.018 132.798 157.6 132.473 160.196 132.36C162.172 132.266 164.152 132.298 166.124 132.455C166.897 132.51 167.684 132.585 168.485 132.688C169.491 132.811 170.538 132.969 171.572 133.167C171.688 133.352 173.591 136.377 174.378 144.372C174.57 145.946 174.686 147.712 174.734 149.69Z" fill="#FFC42D"/>
<path d="M148.78 140.409C148.78 140.409 145.207 131.607 156.363 130.614C167.52 129.622 169.744 136.576 169.744 136.576L164.563 134.783L161.825 147.411C160.066 142.595 156.584 138.603 152.051 136.206L148.78 140.409Z" fill="#407BFF"/>
<path opacity="0.6" d="M148.78 140.409C148.78 140.409 145.207 131.607 156.363 130.614C167.52 129.622 169.744 136.576 169.744 136.576L164.563 134.783L161.825 147.411C160.066 142.595 156.584 138.603 152.051 136.206L148.78 140.409Z" fill="white"/>
<path d="M161.36 141.819C158.487 138.839 155.224 136.26 151.661 134.153C154.331 131.894 154.057 128.335 153.523 126.097C153.353 125.394 153.124 124.707 152.839 124.044L160.251 125.837C160.022 126.869 159.869 127.917 159.793 128.972C159.729 129.748 159.758 130.529 159.882 131.299C160.272 133.564 161.545 133.66 161.545 133.66C162.756 136.206 161.36 141.819 161.36 141.819Z" fill="#E4897B"/>
<path opacity="0.2" d="M159.82 128.965C159.756 129.741 159.786 130.523 159.909 131.292C156.959 130.744 154.83 128.246 153.523 126.111C153.353 125.408 153.124 124.721 152.838 124.057L160.251 125.851C160.032 126.877 159.888 127.918 159.82 128.965V128.965Z" fill="black"/>
<path d="M157.472 104.571C165.542 104.571 166.22 108.472 166.685 115.194C167.26 123.599 165.385 129.567 157.233 127.746C146.165 125.289 146.637 104.571 157.472 104.571Z" fill="#E4897B"/>
<path d="M162.469 114.824C162.987 115.809 163.621 116.728 164.358 117.562C164.168 117.832 163.907 118.045 163.604 118.175C163.3 118.306 162.966 118.349 162.64 118.301L162.469 114.824Z" fill="#DE5753"/>
<path d="M158.478 114.304C158.478 114.844 158.211 115.283 157.849 115.289C157.486 115.296 157.164 114.872 157.164 114.331C157.164 113.79 157.431 113.359 157.787 113.352C158.143 113.346 158.465 113.743 158.478 114.304Z" fill="#263238"/>
<path d="M157.664 113.352L158.821 112.866C158.821 112.866 158.259 113.859 157.664 113.352Z" fill="#263238"/>
<path d="M165.138 114.023C165.138 114.564 164.871 115.002 164.508 115.009C164.146 115.016 163.824 114.591 163.824 114.051C163.824 113.51 164.091 113.079 164.447 113.072C164.803 113.065 165.124 113.489 165.138 114.023Z" fill="#263238"/>
<path d="M164.324 113.099L165.473 112.62C165.473 112.62 164.953 113.619 164.324 113.099Z" fill="#263238"/>
<path d="M158.424 109.773C158.424 109.773 156.589 109.533 155.59 110.751" stroke="#263238" stroke-width="0.707962" stroke-linecap="round" stroke-linejoin="round"/>
<path d="M163.167 109.513C163.612 109.4 164.077 109.391 164.526 109.485C164.975 109.578 165.398 109.773 165.761 110.053" stroke="#263238" stroke-width="0.707962" stroke-linecap="round" stroke-linejoin="round"/>
<path d="M150.457 115.94C150.457 115.94 153.516 110.587 153.064 106.446C153.064 106.446 157.664 101.703 163.858 106.392C163.858 106.392 166.452 110.854 166.596 114.317C166.596 114.317 167.883 102.682 156.671 102.387C145.46 102.093 145.487 118.506 151.264 123.407C151.264 123.407 148.561 119.287 150.457 115.94Z" fill="#263238"/>
<path d="M151.517 117.315C151.455 116.561 151.096 115.863 150.521 115.372C149.945 114.881 149.199 114.637 148.444 114.694C146.391 114.913 145.446 119.061 150.498 120.067C151.196 120.211 151.606 119.506 151.517 117.315Z" fill="#E4897B"/>
<path d="M161.757 121.833C161.757 121.833 159.019 122.449 157.89 120.005" stroke="#263238" stroke-width="0.707962" stroke-linecap="round" stroke-linejoin="round"/>
<path d="M153.064 106.446C153.064 106.446 160.518 103.14 165.453 107.507C165.453 107.507 167.39 101.758 160.778 99.7933C154.166 97.8289 147.445 104.441 147.445 104.441L153.064 106.446Z" fill="#263238"/>
<path d="M153.064 106.446C153.064 106.446 148.711 110.738 149.341 119.287C149.971 127.835 149.142 133.243 147.445 138.595C145.748 143.947 150.183 145.542 150.183 145.542C150.183 145.542 145.118 146.788 144.077 141.367C143.393 137.808 145.022 130.101 144.201 120.922C143.379 111.744 146.658 105.248 153.064 106.446Z" fill="#263238"/>
<path opacity="0.2" d="M144.94 149.69H143.496C143.366 149.101 143.236 148.513 143.099 147.931L144.187 146.98C144.495 147.866 144.746 148.772 144.94 149.69Z" fill="black"/>
<path d="M144.194 149.69H137.212V140.108C138.076 139.29 139.021 138.563 140.032 137.938C141.037 138.362 141.914 139.039 142.58 139.903C143.245 140.766 143.676 141.787 143.831 142.866C144.033 144.226 144.149 145.598 144.18 146.973C144.214 147.952 144.208 148.889 144.194 149.69Z" fill="#407BFF"/>
<path opacity="0.6" d="M144.194 149.69H137.212V140.108C138.076 139.29 139.021 138.563 140.032 137.938C141.037 138.362 141.914 139.039 142.58 139.903C143.245 140.766 143.676 141.787 143.831 142.866C144.033 144.226 144.149 145.598 144.18 146.973C144.214 147.952 144.208 148.889 144.194 149.69Z" fill="white"/>
<path opacity="0.3" d="M179.087 158.54H135.159V216.787H179.087V158.54Z" fill="black"/>
<path opacity="0.3" d="M171.702 167.568H141.743C141.398 167.566 141.067 167.428 140.823 167.183C140.58 166.938 140.443 166.606 140.443 166.261C140.443 165.916 140.58 165.585 140.824 165.341C141.068 165.097 141.399 164.96 141.743 164.96H171.702C171.873 164.959 172.043 164.992 172.202 165.057C172.36 165.122 172.504 165.218 172.626 165.339C172.747 165.459 172.844 165.603 172.91 165.761C172.975 165.92 173.009 166.089 173.009 166.261V166.261C173.009 166.432 172.975 166.602 172.91 166.761C172.844 166.919 172.748 167.064 172.626 167.185C172.505 167.306 172.361 167.403 172.202 167.468C172.044 167.534 171.874 167.568 171.702 167.568V167.568Z" fill="white"/>
<path opacity="0.3" d="M171.709 172.243H141.743C141.025 172.243 140.443 172.825 140.443 173.543V173.55C140.443 174.268 141.025 174.851 141.743 174.851H171.709C172.427 174.851 173.009 174.268 173.009 173.55V173.543C173.009 172.825 172.427 172.243 171.709 172.243Z" fill="white"/>
<path opacity="0.3" d="M158.013 182.14H141.743C141.398 182.138 141.067 182 140.823 181.755C140.58 181.51 140.443 181.178 140.443 180.833C140.443 180.488 140.58 180.157 140.824 179.913C141.068 179.669 141.399 179.532 141.743 179.532H158.013C158.184 179.531 158.354 179.564 158.513 179.629C158.671 179.694 158.815 179.79 158.937 179.911C159.058 180.031 159.155 180.175 159.221 180.333C159.286 180.492 159.32 180.661 159.32 180.833C159.32 181.179 159.182 181.512 158.937 181.757C158.692 182.002 158.36 182.14 158.013 182.14V182.14Z" fill="white"/>
<path opacity="0.3" d="M171.702 189.422H141.743C141.399 189.422 141.068 189.285 140.824 189.042C140.58 188.798 140.443 188.467 140.443 188.122C140.443 187.776 140.58 187.445 140.823 187.2C141.067 186.955 141.398 186.817 141.743 186.815H171.702C172.049 186.815 172.381 186.952 172.626 187.198C172.872 187.443 173.009 187.775 173.009 188.122V188.122C173.009 188.293 172.975 188.463 172.91 188.621C172.844 188.779 172.747 188.923 172.626 189.044C172.504 189.165 172.36 189.26 172.202 189.325C172.043 189.39 171.873 189.423 171.702 189.422V189.422Z" fill="white"/>
<path opacity="0.3" d="M171.702 196.705H141.743C141.399 196.705 141.068 196.568 140.824 196.324C140.58 196.08 140.443 195.75 140.443 195.405C140.443 195.06 140.58 194.729 140.824 194.485C141.068 194.241 141.399 194.104 141.743 194.104H171.702C171.873 194.103 172.043 194.136 172.202 194.201C172.36 194.266 172.504 194.362 172.626 194.483C172.747 194.603 172.844 194.747 172.91 194.905C172.975 195.064 173.009 195.233 173.009 195.405V195.405C173.009 195.576 172.975 195.746 172.91 195.904C172.844 196.062 172.747 196.206 172.626 196.327C172.504 196.447 172.36 196.543 172.202 196.608C172.043 196.673 171.873 196.706 171.702 196.705V196.705Z" fill="white"/>
<path opacity="0.3" d="M151.168 203.967H141.743C141.399 203.967 141.068 203.83 140.824 203.586C140.58 203.342 140.443 203.012 140.443 202.667C140.442 202.495 140.475 202.326 140.54 202.167C140.605 202.008 140.701 201.864 140.821 201.743C140.942 201.621 141.086 201.525 141.244 201.459C141.402 201.393 141.572 201.359 141.743 201.359H151.168C151.34 201.358 151.511 201.392 151.67 201.457C151.829 201.522 151.973 201.619 152.095 201.74C152.216 201.862 152.313 202.006 152.378 202.165C152.443 202.324 152.477 202.495 152.476 202.667V202.667C152.476 202.838 152.442 203.008 152.376 203.166C152.31 203.324 152.214 203.468 152.092 203.589C151.971 203.71 151.827 203.805 151.668 203.87C151.51 203.935 151.34 203.968 151.168 203.967V203.967Z" fill="white"/>
<path opacity="0.3" d="M164.857 211.277H141.743C141.399 211.277 141.068 211.14 140.824 210.896C140.58 210.652 140.443 210.322 140.443 209.977C140.443 209.632 140.58 209.301 140.824 209.057C141.068 208.813 141.399 208.676 141.743 208.676H164.857C165.029 208.675 165.199 208.708 165.357 208.773C165.516 208.838 165.66 208.934 165.781 209.055C165.903 209.175 165.999 209.319 166.065 209.477C166.131 209.636 166.165 209.805 166.165 209.977V209.977C166.165 210.148 166.131 210.318 166.065 210.476C165.999 210.634 165.903 210.778 165.781 210.899C165.66 211.019 165.516 211.115 165.357 211.18C165.199 211.245 165.029 211.278 164.857 211.277V211.277Z" fill="white"/>
<path d="M276.882 205.945C276.301 205.713 275.673 205.623 275.05 205.684C274.427 205.745 273.828 205.954 273.302 206.294C269.983 208.19 268.593 215.979 268.011 222.037C268.224 213.447 269.634 201.565 275.267 195.096L274.753 194.652C270.037 200.059 268.203 208.929 267.567 216.711C267.478 213.399 267.272 209.812 266.834 206.397C266.985 199.066 267.621 192.413 269.298 190.148L268.744 189.737C267.265 191.736 266.554 196.814 266.266 202.742C265.424 198.3 264.083 194.528 261.981 192.591L261.523 193.091C264.028 195.398 265.411 200.661 266.136 206.479C266.136 207.3 266.136 208.135 266.102 208.97C265.452 205.548 264.576 202.735 263.419 201.606C259.517 197.814 254.932 201.551 254.891 201.606L255.329 202.126C255.493 201.989 259.483 198.751 262.94 202.126C264.459 203.597 265.465 208.409 266.122 213.488C266.211 219.573 266.513 225.295 266.718 228.621C266.718 229.148 266.67 229.449 266.67 229.477H266.773C266.848 230.626 266.903 231.366 266.916 231.53L267.519 231.482C267.519 231.9 267.58 232.166 267.587 232.269L268.272 232.208C268.272 232.153 268.169 231.14 268.094 229.47H268.306C268.306 229.278 268.532 209.826 273.679 206.883C274.113 206.595 274.611 206.417 275.13 206.363C275.648 206.309 276.172 206.382 276.656 206.575C279.668 207.82 281.276 213.584 281.29 213.645L281.974 213.46C281.844 213.214 280.208 207.321 276.882 205.945Z" fill="#263238"/>
<path d="M259.079 206.568C256.088 206.78 253.775 210.825 253.672 210.996L254.275 211.332C254.275 211.291 256.506 207.437 259.127 207.225C260.229 207.156 261.277 207.752 262.248 209.011C266.287 214.288 265.472 229.278 265.465 229.429L266.15 229.47C266.15 228.84 266.985 214.069 262.789 208.601C261.674 207.163 260.421 206.472 259.079 206.568Z" fill="#263238"/>
<g opacity="0.2">
<path d="M276.882 205.945C276.301 205.713 275.673 205.623 275.05 205.684C274.427 205.745 273.828 205.954 273.302 206.294C269.983 208.19 268.593 215.979 268.012 222.037C268.224 213.447 269.634 201.565 275.267 195.096L274.753 194.652C270.038 200.059 268.203 208.929 267.567 216.711C267.478 213.399 267.272 209.812 266.834 206.397C266.985 199.066 267.621 192.413 269.298 190.148L268.744 189.737C267.266 191.736 266.554 196.814 266.266 202.742C265.424 198.3 264.083 194.528 261.982 192.591L261.523 193.091C264.028 195.398 265.411 200.661 266.136 206.479C266.136 207.3 266.136 208.135 266.102 208.97C265.452 205.548 264.576 202.735 263.419 201.606C259.518 197.814 254.932 201.551 254.891 201.606L255.329 202.126C255.493 201.989 259.483 198.751 262.94 202.126C264.459 203.597 265.465 208.409 266.123 213.488C266.211 219.573 266.513 225.295 266.718 228.621C266.718 229.148 266.67 229.449 266.67 229.477H266.773C266.848 230.626 266.903 231.366 266.916 231.53L267.519 231.482C267.519 231.9 267.58 232.166 267.587 232.269L268.272 232.208C268.272 232.153 268.169 231.14 268.094 229.47H268.306C268.306 229.278 268.532 209.826 273.679 206.883C274.114 206.595 274.611 206.417 275.13 206.363C275.648 206.309 276.172 206.382 276.656 206.575C279.668 207.82 281.276 213.584 281.29 213.645L281.974 213.46C281.844 213.214 280.209 207.321 276.882 205.945Z" fill="white"/>
<path d="M259.079 206.568C256.088 206.78 253.775 210.825 253.672 210.996L254.275 211.332C254.275 211.291 256.506 207.437 259.127 207.225C260.229 207.156 261.277 207.752 262.248 209.011C266.287 214.288 265.472 229.278 265.465 229.429L266.15 229.47C266.15 228.84 266.985 214.069 262.789 208.601C261.674 207.163 260.421 206.472 259.079 206.568Z" fill="white"/>
</g>
<path d="M278.073 209.477C278.073 209.477 275.397 210.463 276.191 212.797C276.985 215.13 285.458 218.957 285.458 218.957C285.458 218.957 289.011 215.705 285.753 210.415C282.495 205.124 278.148 207.807 278.073 209.477Z" fill="#263238"/>
<path d="M266.424 205.035C266.424 205.035 269.278 204.912 269.442 207.376C269.606 209.84 263.282 216.636 263.282 216.636C263.282 216.636 258.751 215 259.723 208.861C260.695 202.721 265.719 203.522 266.424 205.035Z" fill="#263238"/>
<path d="M264.008 193.262C264.008 193.262 265.91 193.057 265.76 191.893C265.609 190.73 258.361 187.752 254.124 192.578C254.124 192.578 256.862 197.273 260.818 197.335C264.774 197.396 264.008 193.262 264.008 193.262Z" fill="#263238"/>
<path d="M267.553 190.449C267.553 190.449 265.835 191.284 265.349 190.216C264.863 189.149 269.456 182.79 275.616 184.624C275.616 184.624 275.78 190.059 272.46 192.201C269.141 194.344 267.553 190.449 267.553 190.449Z" fill="#263238"/>
<path d="M258.546 208.539C258.546 208.539 259.86 207.478 258.443 206.958C257.026 206.438 250.072 206.588 250.004 213.474C250.004 213.474 258.101 214.843 259.1 212.201C260.099 209.559 258.546 208.539 258.546 208.539Z" fill="#263238"/>
<path d="M275.061 193.091C275.061 193.091 273.747 192.03 275.164 191.51C276.581 190.99 283.535 191.14 283.603 198.026C283.603 198.026 275.506 199.395 274.507 196.753C273.508 194.111 275.061 193.091 275.061 193.091Z" fill="#263238"/>
<path d="M270.777 198.635C270.777 198.635 270.66 197.348 271.701 197.855C272.741 198.361 276.369 202.27 272.611 205.979C272.611 205.979 267.553 202.235 268.463 200.285C269.374 198.334 270.777 198.635 270.777 198.635Z" fill="#263238"/>
<path d="M257.355 200.476C257.355 200.476 258.135 199.443 256.992 199.319C255.849 199.196 250.688 200.565 251.886 205.705C251.886 205.705 258.162 205.233 258.429 203.098C258.696 200.962 257.355 200.476 257.355 200.476Z" fill="#263238"/>
<path d="M278.573 248.566H257.04L254.719 224.993H280.9L278.573 248.566Z" fill="#407BFF"/>
<path opacity="0.2" d="M278.573 248.566H257.04L254.719 224.993H280.9L278.573 248.566Z" fill="white"/>
<path d="M282.05 222.392H253.57V227.594H282.05V222.392Z" fill="#407BFF"/>
<path opacity="0.5" d="M282.05 222.392H253.57V227.594H282.05V222.392Z" fill="white"/>
</svg>
