<svg width="404" height="271" viewBox="0 0 404 271" fill="none" xmlns="http://www.w3.org/2000/svg">
<path d="M363.23 247.647H336.491V247.849H363.23V247.647Z" fill="#EBEBEB"/>
<path d="M267.413 249.843H260.397V250.045H267.413V249.843Z" fill="#EBEBEB"/>
<path d="M335.683 240.155H320.19V240.356H335.683V240.155Z" fill="#EBEBEB"/>
<path d="M77.2238 241.511H42.354V241.713H77.2238V241.511Z" fill="#EBEBEB"/>
<path d="M89.5279 241.511H84.4173V241.713H89.5279V241.511Z" fill="#EBEBEB"/>
<path d="M181.777 244.918H106.143V245.12H181.777V244.918Z" fill="#EBEBEB"/>
<path d="M403.679 234.656H0V234.858H403.679V234.656Z" fill="#EBEBEB"/>
<path d="M136.936 26.2611H78.2733V100.595H136.936V26.2611Z" fill="#F0F0F0"/>
<path d="M131.099 33.6565H84.1187V93.1911H131.099V33.6565Z" fill="#FAFAFA"/>
<path d="M73.7441 100.595H78.2814L78.2814 26.2612H73.7441L73.7441 100.595Z" fill="#E0E0E0"/>
<path d="M114.443 64.3442C116.964 66.8656 118.381 70.2852 118.381 73.8509C118.381 77.4166 116.964 80.8362 114.443 83.3575C111.922 85.8788 108.502 87.2953 104.936 87.2953C101.371 87.2953 97.951 85.8788 95.4297 83.3575C90.1738 78.1016 109.187 59.0883 114.443 64.3442Z" fill="#F5F5F5"/>
<path d="M100.403 63.3028C99.4208 62.3204 98.6416 61.1543 98.1099 59.8708C97.5783 58.5874 97.3047 57.2118 97.3047 55.8226C97.3047 54.4334 97.5783 53.0578 98.1099 51.7743C98.6416 50.4909 99.4208 49.3247 100.403 48.3424C101.385 47.3601 102.552 46.5809 103.835 46.0493C105.118 45.5176 106.494 45.244 107.883 45.244C109.272 45.244 110.648 45.5176 111.931 46.0493C113.215 46.5809 114.381 47.3601 115.363 48.3424C119.489 52.4761 104.537 67.4364 100.403 63.3028Z" fill="#EBEBEB"/>
<path d="M315.257 130.766H308.29V235.141H315.257V130.766Z" fill="#F0F0F0"/>
<path d="M318.293 130.766H312.23V235.141H318.293V130.766Z" fill="#E6E6E6"/>
<path d="M245.009 130.766H238.041V235.141H245.009V130.766Z" fill="#F0F0F0"/>
<path d="M248.045 130.766H241.981V235.141H248.045V130.766Z" fill="#E6E6E6"/>
<path d="M341.674 130.766H334.706V235.141H341.674V130.766Z" fill="#F0F0F0"/>
<path d="M344.701 130.766H338.638V235.141H344.701V130.766Z" fill="#E6E6E6"/>
<path d="M271.426 130.766H264.458V235.141H271.426V130.766Z" fill="#F0F0F0"/>
<path d="M344.71 124.065H238.049V132.429H344.71V124.065Z" fill="#F0F0F0"/>
<path d="M268.398 124.065H238.049V132.429H268.398V124.065Z" fill="#E0E0E0"/>
<path d="M274.461 130.766H268.398V235.141H274.461V130.766Z" fill="#E6E6E6"/>
<path d="M98.9498 124.597H54.3352V235.141H98.9498V124.597Z" fill="#E6E6E6"/>
<path d="M182.406 124.597H89.2131V235.141H182.406V124.597Z" fill="#F5F5F5"/>
<path d="M150.653 131.573H165.872C167.462 131.573 169.037 131.886 170.506 132.495C171.975 133.103 173.31 133.995 174.435 135.12C175.56 136.245 176.452 137.58 177.06 139.049C177.669 140.518 177.982 142.093 177.982 143.683V229.651H138.559V143.667C138.563 140.461 139.839 137.387 142.106 135.12C144.373 132.853 147.447 131.577 150.653 131.573V131.573Z" fill="#EBEBEB"/>
<path d="M106.652 131.573H121.911C123.501 131.573 125.076 131.886 126.545 132.495C128.015 133.103 129.35 133.995 130.474 135.12C131.599 136.245 132.491 137.58 133.1 139.049C133.708 140.518 134.021 142.093 134.021 143.683V229.651H94.5577V143.667C94.562 140.461 95.8376 137.387 98.1048 135.12C100.372 132.853 103.446 131.577 106.652 131.573V131.573Z" fill="#EBEBEB"/>
<path d="M130.421 179.869C130.373 180.631 130.104 181.363 129.646 181.975C129.188 182.586 128.561 183.05 127.843 183.309C127.125 183.569 126.346 183.613 125.603 183.436C124.86 183.258 124.185 182.867 123.662 182.311C123.138 181.755 122.789 181.058 122.656 180.306C122.524 179.554 122.614 178.779 122.916 178.078C123.218 177.376 123.719 176.778 124.357 176.358C124.994 175.937 125.741 175.713 126.505 175.711C127.035 175.727 127.557 175.847 128.041 176.064C128.525 176.282 128.961 176.592 129.324 176.979C129.688 177.365 129.972 177.819 130.16 178.315C130.348 178.811 130.437 179.339 130.421 179.869V179.869Z" fill="#E0E0E0"/>
<path d="M150.58 179.869C150.533 180.632 150.264 181.364 149.805 181.975C149.347 182.587 148.72 183.051 148.001 183.31C147.282 183.57 146.503 183.613 145.76 183.435C145.017 183.257 144.342 182.865 143.819 182.308C143.295 181.752 142.946 181.054 142.815 180.301C142.683 179.548 142.775 178.774 143.078 178.072C143.382 177.371 143.884 176.774 144.522 176.354C145.161 175.935 145.909 175.711 146.673 175.711C147.742 175.745 148.754 176.202 149.487 176.981C150.22 177.761 150.613 178.8 150.58 179.869V179.869Z" fill="#E0E0E0"/>
<path d="M201.839 270.673C288.293 270.673 358.378 266.581 358.378 261.533C358.378 256.486 288.293 252.394 201.839 252.394C115.386 252.394 45.3008 256.486 45.3008 261.533C45.3008 266.581 115.386 270.673 201.839 270.673Z" fill="#F5F5F5"/>
<path d="M236.168 239.493C236.096 227.939 232.664 220.851 229.79 216.943C228.161 214.574 226.023 212.6 223.533 211.162L223.897 210.403C224.026 210.468 236.871 216.862 237.016 239.468L236.168 239.493Z" fill="#4D4D4D"/>
<path d="M239.503 237.45L238.695 237.377C242.006 199.883 216.897 186.707 216.679 186.578L217.058 185.827C217.284 185.957 242.869 199.391 239.503 237.45Z" fill="#4D4D4D"/>
<path d="M242.337 238.847C241.44 217.492 243.701 193.756 243.725 193.514L244.533 193.594C244.533 193.836 242.256 217.516 243.152 238.806L242.337 238.847Z" fill="#4D4D4D"/>
<path d="M244.008 240.09C245.469 230.983 249.046 225.808 251.783 223.071C253.36 221.398 255.291 220.099 257.434 219.268L257.24 218.622C257.127 218.622 246.22 222.126 243.346 239.985L244.008 240.09Z" fill="#4D4D4D"/>
<path d="M219.472 187.507C219.472 187.507 213.893 173.305 205.876 183.857C199.369 192.424 205.876 201.805 205.876 201.805C205.876 201.805 240.778 202.685 234.538 189.364C230.67 181.129 219.472 187.507 219.472 187.507Z" fill="#CACE28"/>
<g opacity="0.5">
<path opacity="0.5" d="M218.334 188.153C218.334 188.153 208.048 186.538 207.992 187.345C207.935 188.153 217.01 188.516 216.162 189.638C215.314 190.76 206.571 191.729 206.474 192.803C206.377 193.877 214.668 191.261 214.297 192.214C213.926 193.166 208.387 197.615 208.298 198.794C208.21 199.972 213.498 193.772 214.128 194.474C214.757 195.177 215.08 200.796 215.613 199.504C216.146 198.212 215.5 192.545 216.776 191.431C218.051 190.316 225.536 197.397 227.231 196.444C228.926 195.492 218.931 191.544 218.334 188.153Z" fill="white"/>
<path opacity="0.5" d="M223.711 188.718C223.711 188.718 232.269 188.831 232.527 191.14C232.786 193.449 230.904 191.003 223.711 188.718Z" fill="white"/>
</g>
<path d="M222.508 238.782L226.48 260.363C226.682 261.464 227.264 262.459 228.124 263.176C228.983 263.893 230.067 264.286 231.187 264.286H246.648C247.767 264.286 248.851 263.893 249.711 263.176C250.571 262.459 251.153 261.464 251.355 260.363L255.335 238.782C255.408 238.381 255.393 237.968 255.289 237.574C255.185 237.179 254.996 236.812 254.735 236.499C254.474 236.185 254.147 235.933 253.778 235.76C253.409 235.586 253.006 235.496 252.598 235.496H225.253C224.844 235.494 224.439 235.582 224.068 235.754C223.697 235.927 223.369 236.179 223.107 236.493C222.845 236.807 222.655 237.175 222.551 237.57C222.448 237.966 222.433 238.38 222.508 238.782V238.782Z" fill="#707070"/>
<path d="M220.094 212.406C220.094 212.406 210.502 204.276 208.791 215.062C207.41 223.814 215.766 228.093 215.766 228.093C215.766 228.093 241.449 215.175 231.72 207.909C225.745 203.436 220.094 212.406 220.094 212.406Z" fill="#E4E840"/>
<g opacity="0.5">
<path opacity="0.5" d="M219.529 213.342C219.529 213.342 211.455 216.192 211.714 216.798C211.972 217.403 218.713 214.133 218.536 215.28C218.358 216.426 212.392 220.536 212.747 221.351C213.102 222.167 218.092 217.04 218.197 217.871C218.302 218.703 216.009 224.096 216.404 224.992C216.8 225.888 218.221 219.341 218.947 219.583C219.674 219.825 222.112 223.797 221.991 222.651C221.87 221.505 219.19 217.645 219.69 216.346C220.191 215.046 228.377 217.266 229.233 215.91C230.089 214.553 221.273 215.546 219.529 213.342Z" fill="white"/>
<path opacity="0.5" d="M223.638 211.655C223.638 211.655 229.895 208.425 230.977 209.967C232.059 211.51 229.774 210.508 223.638 211.655Z" fill="white"/>
</g>
<path d="M253.091 190.413C253.091 190.413 264.224 180.967 266.21 193.505C267.825 203.678 258.096 208.643 258.096 208.643C258.096 208.643 228.224 193.586 239.527 185.165C246.519 179.99 253.091 190.413 253.091 190.413Z" fill="#CACE28"/>
<g opacity="0.5">
<path opacity="0.5" d="M253.745 191.544C253.745 191.544 263.142 194.862 262.827 195.58C262.512 196.299 254.689 192.48 254.891 193.812C255.093 195.144 262.036 199.916 261.624 200.869C261.213 201.821 255.416 195.855 255.295 196.832C255.174 197.809 257.83 204.098 257.37 205.107C256.909 206.116 255.262 198.511 254.415 198.818C253.567 199.125 250.741 203.719 250.878 202.386C251.016 201.054 254.108 196.565 253.551 195.056C252.994 193.546 243.459 196.129 242.458 194.547C241.457 192.965 251.71 194.063 253.745 191.544Z" fill="white"/>
<path opacity="0.5" d="M248.949 189.541C248.949 189.541 241.683 185.763 240.415 187.588C239.148 189.412 241.836 188.209 248.949 189.541Z" fill="white"/>
</g>
<path d="M259.622 218.994C259.622 218.994 267.131 211.292 269.456 220.342C271.337 227.689 264.555 232.008 264.555 232.008C264.555 232.008 241.642 223.03 249.344 216.055C254.084 211.776 259.622 218.994 259.622 218.994Z" fill="#E4E840"/>
<g opacity="0.5">
<path opacity="0.5" d="M260.179 219.72C260.179 219.72 267.292 221.497 267.114 222.037C266.937 222.578 260.938 220.326 261.172 221.295C261.406 222.264 266.824 225.275 266.598 225.994C266.372 226.712 261.697 222.764 261.681 223.466C261.665 224.169 264.038 228.601 263.772 229.392C263.506 230.184 261.77 224.702 261.172 224.984C260.575 225.267 258.815 228.835 258.823 227.85C258.831 226.865 260.809 223.353 260.284 222.288C259.759 221.222 252.953 223.773 252.114 222.683C251.274 221.593 258.863 221.739 260.179 219.72Z" fill="white"/>
<path opacity="0.5" d="M256.522 218.614C256.522 218.614 250.935 216.346 250.136 217.807C249.336 219.268 251.226 218.13 256.522 218.614Z" fill="white"/>
</g>
<path d="M307.983 136.143H250.41C249.752 136.155 249.098 136.026 248.493 135.766C247.888 135.505 247.346 135.119 246.902 134.632C246.458 134.145 246.123 133.57 245.919 132.943C245.715 132.317 245.647 131.654 245.719 131L248.82 95.5406C248.962 94.1466 249.609 92.8528 250.64 91.9037C251.671 90.9546 253.014 90.416 254.415 90.3897H311.987C312.647 90.3777 313.302 90.5064 313.908 90.7673C314.514 91.0281 315.057 91.4152 315.502 91.9026C315.946 92.39 316.282 92.9666 316.486 93.5939C316.69 94.2212 316.759 94.8849 316.686 95.5406L313.578 130.992C313.438 132.386 312.791 133.681 311.759 134.631C310.728 135.58 309.384 136.118 307.983 136.143Z" fill="#263238"/>
<path d="M274.058 110.404C273.799 112.948 272.617 115.308 270.735 117.039C268.852 118.769 266.401 119.75 263.845 119.794C262.642 119.816 261.449 119.582 260.344 119.106C259.239 118.631 258.248 117.925 257.438 117.037C256.627 116.148 256.015 115.097 255.643 113.953C255.271 112.81 255.146 111.6 255.279 110.404C255.549 107.866 256.735 105.513 258.615 103.786C260.495 102.06 262.94 101.077 265.492 101.023L265.911 96.2189C262.05 96.2877 258.348 97.7692 255.505 100.383C252.662 102.997 250.875 106.562 250.483 110.404C250.284 112.208 250.472 114.034 251.034 115.76C251.595 117.486 252.517 119.073 253.739 120.416C254.961 121.758 256.454 122.825 258.12 123.546C259.786 124.267 261.586 124.626 263.401 124.598C267.263 124.528 270.967 123.046 273.81 120.43C276.653 117.815 278.439 114.248 278.829 110.404H274.058Z" fill="#407BFF"/>
<path d="M280.541 108.329C280.739 106.525 280.551 104.699 279.99 102.973C279.429 101.247 278.506 99.66 277.285 98.3176C276.063 96.9752 274.57 95.9081 272.904 95.1871C271.238 94.4661 269.438 94.1078 267.623 94.1358L267.203 98.98C268.405 98.9591 269.598 99.1944 270.702 99.6702C271.807 100.146 272.797 100.852 273.607 101.74C274.417 102.628 275.029 103.679 275.402 104.822C275.775 105.965 275.9 107.174 275.769 108.37L280.541 108.329Z" fill="#407BFF"/>
<path opacity="0.7" d="M280.541 108.329C280.739 106.525 280.551 104.699 279.99 102.973C279.429 101.247 278.506 99.66 277.285 98.3176C276.063 96.9752 274.57 95.9081 272.904 95.1871C271.238 94.4661 269.438 94.1078 267.623 94.1358L267.203 98.98C268.405 98.9591 269.598 99.1944 270.702 99.6702C271.807 100.146 272.797 100.852 273.607 101.74C274.417 102.628 275.029 103.679 275.402 104.822C275.775 105.965 275.9 107.174 275.769 108.37L280.541 108.329Z" fill="white"/>
<path d="M268.786 110.404C268.667 111.562 268.129 112.637 267.272 113.426C266.415 114.214 265.299 114.661 264.135 114.683C263.588 114.692 263.045 114.584 262.542 114.367C262.039 114.15 261.588 113.829 261.22 113.424C260.851 113.019 260.572 112.54 260.403 112.02C260.233 111.499 260.176 110.948 260.236 110.404C260.354 109.246 260.893 108.172 261.75 107.385C262.607 106.598 263.723 106.153 264.886 106.133L265.072 103.953C263.315 103.986 261.631 104.661 260.338 105.851C259.045 107.041 258.233 108.664 258.056 110.412C257.965 111.234 258.051 112.065 258.306 112.852C258.562 113.638 258.982 114.36 259.539 114.972C260.096 115.583 260.777 116.068 261.536 116.396C262.295 116.723 263.115 116.885 263.942 116.871C265.7 116.84 267.386 116.166 268.68 114.976C269.975 113.785 270.788 112.162 270.966 110.412L268.786 110.404Z" fill="#407BFF"/>
<path opacity="0.7" d="M268.786 110.404C268.667 111.562 268.129 112.637 267.272 113.426C266.415 114.214 265.299 114.661 264.135 114.683C263.588 114.692 263.045 114.584 262.542 114.367C262.039 114.15 261.588 113.829 261.22 113.424C260.851 113.019 260.572 112.54 260.403 112.02C260.233 111.499 260.176 110.948 260.236 110.404C260.354 109.246 260.893 108.172 261.75 107.385C262.607 106.598 263.723 106.153 264.886 106.133L265.072 103.953C263.315 103.986 261.631 104.661 260.338 105.851C259.045 107.041 258.233 108.664 258.056 110.412C257.965 111.234 258.051 112.065 258.306 112.852C258.562 113.638 258.982 114.36 259.539 114.972C260.096 115.583 260.777 116.068 261.536 116.396C262.295 116.723 263.115 116.885 263.942 116.871C265.7 116.84 267.386 116.166 268.68 114.976C269.975 113.785 270.788 112.162 270.966 110.412L268.786 110.404Z" fill="white"/>
<path d="M271.732 109.459C271.823 108.637 271.738 107.805 271.481 107.018C271.225 106.231 270.804 105.508 270.247 104.897C269.689 104.286 269.007 103.801 268.247 103.474C267.487 103.147 266.666 102.985 265.839 103.001L265.621 105.156C266.168 105.147 266.71 105.255 267.212 105.472C267.714 105.688 268.164 106.009 268.533 106.413C268.902 106.817 269.181 107.294 269.351 107.814C269.521 108.334 269.579 108.883 269.52 109.427L271.732 109.459Z" fill="#407BFF"/>
<path d="M299.409 96.2188L298.989 101.023C300.191 101.001 301.383 101.235 302.488 101.71C303.592 102.185 304.582 102.889 305.393 103.777C306.203 104.665 306.815 105.715 307.188 106.858C307.561 108 307.686 109.209 307.555 110.404C307.297 112.946 306.116 115.306 304.235 117.036C302.354 118.766 299.905 119.748 297.35 119.794C296.147 119.817 294.953 119.584 293.848 119.109C292.742 118.634 291.751 117.928 290.94 117.039C290.129 116.15 289.517 115.099 289.145 113.955C288.774 112.81 288.65 111.6 288.784 110.404C289.028 107.855 290.214 105.489 292.11 103.768L289.018 100.377C286.15 102.976 284.354 106.551 283.98 110.404C283.782 112.208 283.97 114.034 284.531 115.76C285.092 117.486 286.015 119.073 287.236 120.416C288.458 121.758 289.951 122.825 291.617 123.546C293.283 124.267 295.083 124.625 296.898 124.597C300.76 124.527 304.462 123.043 307.305 120.428C310.148 117.813 311.934 114.247 312.326 110.404C312.524 108.6 312.335 106.776 311.773 105.05C311.211 103.325 310.289 101.739 309.067 100.398C307.845 99.0565 306.352 97.9901 304.687 97.2696C303.022 96.5491 301.223 96.1909 299.409 96.2188V96.2188Z" fill="#407BFF"/>
<path opacity="0.7" d="M299.409 96.2188L298.989 101.023C300.191 101.001 301.383 101.235 302.488 101.71C303.592 102.185 304.582 102.889 305.393 103.777C306.203 104.665 306.815 105.715 307.188 106.858C307.561 108 307.686 109.209 307.555 110.404C307.297 112.946 306.116 115.306 304.235 117.036C302.354 118.766 299.905 119.748 297.35 119.794C296.147 119.817 294.953 119.584 293.848 119.109C292.742 118.634 291.751 117.928 290.94 117.039C290.129 116.15 289.517 115.099 289.145 113.955C288.774 112.81 288.65 111.6 288.784 110.404C289.028 107.855 290.214 105.489 292.11 103.768L289.018 100.377C286.15 102.976 284.354 106.551 283.98 110.404C283.782 112.208 283.97 114.034 284.531 115.76C285.092 117.486 286.015 119.073 287.236 120.416C288.458 121.758 289.951 122.825 291.617 123.546C293.283 124.267 295.083 124.625 296.898 124.597C300.76 124.527 304.462 123.043 307.305 120.428C310.148 117.813 311.934 114.247 312.326 110.404C312.524 108.6 312.335 106.776 311.773 105.05C311.211 103.325 310.289 101.739 309.067 100.398C307.845 99.0565 306.352 97.9901 304.687 97.2696C303.022 96.5491 301.223 96.1909 299.409 96.2188V96.2188Z" fill="white"/>
<path d="M288.09 97.7447L291.19 101.144C293.056 99.3946 295.511 98.4117 298.069 98.3906V98.3906L298.488 93.5948C294.625 93.6273 290.914 95.1081 288.09 97.7447V97.7447Z" fill="#407BFF"/>
<path opacity="0.3" d="M288.09 97.7447L291.19 101.144C293.056 99.3946 295.511 98.4117 298.069 98.3906V98.3906L298.488 93.5948C294.625 93.6273 290.914 95.1081 288.09 97.7447V97.7447Z" fill="black"/>
<path d="M298.771 103.542L298.569 105.834C299.144 105.823 299.715 105.934 300.244 106.161C300.772 106.388 301.246 106.725 301.634 107.15C302.022 107.575 302.314 108.078 302.491 108.626C302.669 109.173 302.727 109.752 302.662 110.323C302.539 111.532 301.979 112.654 301.087 113.479C300.195 114.304 299.033 114.775 297.818 114.804C297.244 114.816 296.674 114.705 296.146 114.478C295.618 114.252 295.144 113.915 294.757 113.491C294.369 113.067 294.077 112.565 293.899 112.019C293.721 111.472 293.662 110.894 293.725 110.323C293.846 109.1 294.422 107.968 295.34 107.15L293.862 105.536C292.485 106.777 291.622 108.487 291.44 110.331C291.345 111.194 291.434 112.068 291.703 112.893C291.972 113.718 292.414 114.477 292.999 115.118C293.584 115.759 294.3 116.268 295.097 116.611C295.895 116.953 296.757 117.122 297.624 117.105C299.469 117.073 301.238 116.366 302.596 115.118C303.955 113.87 304.808 112.167 304.996 110.331C305.093 109.464 305.003 108.586 304.732 107.756C304.462 106.927 304.017 106.165 303.427 105.521C302.837 104.878 302.117 104.368 301.313 104.027C300.51 103.686 299.643 103.52 298.771 103.542Z" fill="#407BFF"/>
<path d="M293.362 104.236L294.839 105.851C295.736 105.018 296.91 104.549 298.133 104.535L298.327 102.242C296.481 102.262 294.709 102.973 293.362 104.236V104.236Z" fill="#407BFF"/>
<path opacity="0.3" d="M293.362 104.236L294.839 105.851C295.736 105.018 296.91 104.549 298.133 104.535L298.327 102.242C296.481 102.262 294.709 102.973 293.362 104.236V104.236Z" fill="black"/>
<path d="M256.885 130.806C256.692 130.81 256.5 130.772 256.322 130.695C256.144 130.619 255.985 130.505 255.854 130.363C255.724 130.22 255.625 130.051 255.565 129.867C255.504 129.683 255.484 129.489 255.505 129.296V129.296C255.545 128.892 255.732 128.516 256.028 128.238C256.325 127.961 256.713 127.8 257.119 127.787V127.787C257.313 127.783 257.505 127.821 257.682 127.897C257.86 127.974 258.02 128.087 258.15 128.23C258.281 128.373 258.379 128.542 258.44 128.726C258.5 128.909 258.521 129.104 258.5 129.296V129.296C258.457 129.7 258.271 130.075 257.974 130.352C257.678 130.63 257.291 130.791 256.885 130.806Z" fill="white"/>
<path d="M272.37 130.063H261.067C260.969 130.066 260.87 130.048 260.779 130.01C260.689 129.971 260.607 129.914 260.54 129.841C260.474 129.768 260.423 129.682 260.393 129.588C260.363 129.494 260.353 129.394 260.365 129.296C260.365 129.082 260.45 128.877 260.601 128.725C260.753 128.574 260.958 128.489 261.172 128.489H272.475C272.578 128.485 272.68 128.504 272.774 128.545C272.869 128.585 272.953 128.647 273.02 128.724C273.087 128.802 273.137 128.893 273.164 128.992C273.191 129.091 273.196 129.195 273.178 129.296C273.167 129.503 273.078 129.698 272.927 129.841C272.777 129.984 272.578 130.064 272.37 130.063Z" fill="white"/>
<path d="M269.262 133.091H260.817C260.715 133.093 260.613 133.073 260.52 133.032C260.426 132.991 260.343 132.93 260.276 132.852C260.209 132.775 260.159 132.684 260.132 132.586C260.104 132.488 260.098 132.384 260.115 132.283V132.283C260.126 132.073 260.215 131.874 260.364 131.725C260.513 131.576 260.712 131.488 260.922 131.476H269.375C269.477 131.473 269.579 131.494 269.672 131.535C269.766 131.576 269.849 131.637 269.916 131.714C269.983 131.792 270.033 131.883 270.06 131.981C270.088 132.079 270.094 132.183 270.077 132.283V132.283C270.064 132.494 269.973 132.693 269.823 132.842C269.673 132.991 269.473 133.079 269.262 133.091Z" fill="white"/>
<path d="M289.615 130.806C289.421 130.811 289.228 130.774 289.05 130.698C288.871 130.622 288.711 130.509 288.579 130.366C288.448 130.223 288.348 130.053 288.288 129.869C288.227 129.685 288.206 129.489 288.227 129.296V129.296C288.268 128.892 288.454 128.516 288.751 128.238C289.048 127.961 289.435 127.8 289.842 127.787V127.787C290.035 127.783 290.227 127.821 290.405 127.897C290.582 127.974 290.742 128.087 290.872 128.23C291.003 128.373 291.102 128.542 291.162 128.726C291.222 128.909 291.243 129.104 291.222 129.296V129.296C291.18 129.699 290.994 130.073 290.699 130.35C290.404 130.627 290.02 130.789 289.615 130.806V130.806Z" fill="white"/>
<path d="M305.101 130.063H293.798C293.699 130.065 293.602 130.046 293.511 130.007C293.421 129.968 293.34 129.911 293.274 129.838C293.207 129.765 293.157 129.68 293.126 129.586C293.095 129.493 293.085 129.394 293.095 129.296V129.296C293.107 129.086 293.196 128.887 293.345 128.738C293.494 128.589 293.692 128.501 293.903 128.489H305.206C305.308 128.485 305.41 128.504 305.505 128.545C305.599 128.585 305.683 128.647 305.75 128.724C305.818 128.802 305.867 128.893 305.894 128.992C305.921 129.091 305.926 129.195 305.908 129.296C305.898 129.503 305.808 129.698 305.658 129.841C305.507 129.984 305.308 130.064 305.101 130.063Z" fill="white"/>
<path d="M301.992 133.091H293.547C293.445 133.093 293.344 133.073 293.25 133.032C293.157 132.991 293.073 132.93 293.006 132.852C292.939 132.775 292.89 132.684 292.862 132.586C292.834 132.488 292.828 132.384 292.845 132.283V132.283C292.857 132.073 292.945 131.874 293.094 131.725C293.243 131.576 293.442 131.488 293.652 131.476H302.105C302.208 131.473 302.309 131.494 302.403 131.535C302.496 131.576 302.579 131.637 302.647 131.714C302.714 131.792 302.763 131.883 302.791 131.981C302.819 132.079 302.824 132.183 302.808 132.283V132.283C302.794 132.494 302.704 132.693 302.553 132.842C302.403 132.991 302.203 133.079 301.992 133.091Z" fill="white"/>
<path d="M233.657 155.479H147.407C146.749 155.491 146.095 155.362 145.489 155.102C144.884 154.841 144.341 154.455 143.897 153.969C143.452 153.482 143.116 152.907 142.911 152.28C142.707 151.654 142.637 150.991 142.709 150.336L147.504 95.5406C147.646 94.1466 148.294 92.8528 149.325 91.9037C150.356 90.9546 151.698 90.416 153.099 90.3897H239.357C240.016 90.3788 240.67 90.5084 241.275 90.7698C241.88 91.0312 242.422 91.4184 242.866 91.9056C243.31 92.3929 243.645 92.9691 243.849 93.5958C244.052 94.2226 244.12 94.8855 244.048 95.5406L239.261 150.368C239.109 151.756 238.457 153.042 237.425 153.983C236.393 154.924 235.054 155.456 233.657 155.479V155.479Z" fill="#407BFF"/>
<path opacity="0.7" d="M233.657 155.479H147.407C146.749 155.491 146.095 155.362 145.489 155.102C144.884 154.841 144.341 154.455 143.897 153.969C143.452 153.482 143.116 152.907 142.911 152.28C142.707 151.654 142.637 150.991 142.709 150.336L147.504 95.5406C147.646 94.1466 148.294 92.8528 149.325 91.9037C150.356 90.9546 151.698 90.416 153.099 90.3897H239.357C240.016 90.3788 240.67 90.5084 241.275 90.7698C241.88 91.0312 242.422 91.4184 242.866 91.9056C243.31 92.3929 243.645 92.9691 243.849 93.5958C244.052 94.2226 244.12 94.8855 244.048 95.5406L239.261 150.368C239.109 151.756 238.457 153.042 237.425 153.983C236.393 154.924 235.054 155.456 233.657 155.479V155.479Z" fill="white"/>
<path d="M151.008 139.098H148.82L151.751 105.608H153.939L151.008 139.098Z" fill="#407BFF"/>
<path d="M154.117 139.098H151.921L154.076 114.465H156.272L154.117 139.098Z" fill="#263238"/>
<path d="M159.041 139.098H156.854L158.258 122.999H160.446L159.041 139.098Z" fill="#407BFF"/>
<path d="M162.142 139.098H159.954L161.633 119.899H163.821L162.142 139.098Z" fill="#263238"/>
<path d="M167.075 139.098H164.879L167.381 110.485H169.577L167.075 139.098Z" fill="#407BFF"/>
<path d="M170.175 139.098H167.979L170.143 114.465H172.331L170.175 139.098Z" fill="#263238"/>
<path d="M175.1 139.098H172.912L175.068 114.465H177.255L175.1 139.098Z" fill="#407BFF"/>
<path d="M178.2 139.098H176.012L178.709 108.257H180.897L178.2 139.098Z" fill="#263238"/>
<path d="M183.133 139.098H180.937L182.406 122.353H184.594L183.133 139.098Z" fill="#407BFF"/>
<path d="M186.233 139.098H184.045L186.201 114.465H188.389L186.233 139.098Z" fill="#263238"/>
<path d="M191.158 139.098H188.97L191.473 110.485H193.661L191.158 139.098Z" fill="#407BFF"/>
<path d="M194.266 139.098H192.07L195.106 104.381H197.302L194.266 139.098Z" fill="#263238"/>
<path d="M199.191 139.098H197.003L197.795 129.983H199.991L199.191 139.098Z" fill="#407BFF"/>
<path d="M202.292 139.098H200.104L201.581 122.224H203.769L202.292 139.098Z" fill="#263238"/>
<path d="M207.217 139.098H205.029L206.441 122.999H208.629L207.217 139.098Z" fill="#407BFF"/>
<path d="M210.325 139.098H208.129L210.898 107.481H213.086L210.325 139.098Z" fill="#263238"/>
<path d="M215.25 139.098H213.062L214.878 118.349H217.066L215.25 139.098Z" fill="#407BFF"/>
<path d="M218.35 139.098H216.162L219.674 98.9478H221.862L218.35 139.098Z" fill="#263238"/>
<path d="M223.283 139.098H221.087L223.444 112.14H225.64L223.283 139.098Z" fill="#407BFF"/>
<path d="M226.383 139.098H224.195L226.351 114.465H228.539L226.383 139.098Z" fill="#263238"/>
<path d="M231.308 139.098H229.12L232.091 105.156H234.279L231.308 139.098Z" fill="#407BFF"/>
<path d="M234.408 139.098H232.22L233.972 119.124H236.16L234.408 139.098Z" fill="#263238"/>
<path d="M150.169 148.237C149.893 148.243 149.619 148.19 149.365 148.082C149.111 147.974 148.883 147.813 148.697 147.61C148.51 147.406 148.37 147.166 148.284 146.903C148.198 146.641 148.169 146.364 148.199 146.089V146.089C148.263 145.508 148.535 144.969 148.966 144.573C149.396 144.177 149.955 143.95 150.54 143.934C150.817 143.927 151.091 143.98 151.346 144.089C151.6 144.198 151.828 144.36 152.015 144.564C152.202 144.768 152.342 145.01 152.428 145.273C152.513 145.536 152.541 145.815 152.51 146.089V146.089C152.444 146.669 152.171 147.206 151.741 147.601C151.31 147.995 150.752 148.221 150.169 148.237V148.237Z" fill="#263238"/>
<path d="M172.201 147.179H156.143C156.003 147.182 155.864 147.156 155.735 147.101C155.606 147.046 155.491 146.964 155.396 146.861C155.301 146.758 155.229 146.636 155.186 146.502C155.142 146.369 155.127 146.229 155.142 146.089C155.173 145.792 155.312 145.517 155.532 145.315C155.752 145.112 156.038 144.998 156.337 144.991H172.395C172.536 144.989 172.675 145.017 172.804 145.073C172.933 145.129 173.048 145.211 173.143 145.315C173.237 145.419 173.309 145.542 173.353 145.675C173.396 145.808 173.411 145.95 173.396 146.089V146.089C173.365 146.386 173.226 146.66 173.006 146.861C172.785 147.062 172.499 147.175 172.201 147.179V147.179Z" fill="#263238"/>
<path d="M167.793 151.491H155.764C155.621 151.493 155.48 151.465 155.349 151.407C155.219 151.35 155.103 151.265 155.008 151.159C154.914 151.052 154.844 150.926 154.803 150.79C154.762 150.653 154.751 150.509 154.771 150.368V150.368C154.798 150.071 154.935 149.795 155.154 149.592C155.373 149.39 155.659 149.275 155.957 149.27H167.979C168.12 149.267 168.26 149.294 168.389 149.35C168.519 149.405 168.635 149.487 168.729 149.591C168.824 149.696 168.896 149.819 168.939 149.953C168.982 150.087 168.996 150.229 168.98 150.368V150.368C168.956 150.669 168.822 150.95 168.602 151.158C168.383 151.365 168.095 151.484 167.793 151.491V151.491Z" fill="#263238"/>
<path opacity="0.3" d="M172.201 147.179H156.143C156.003 147.182 155.864 147.156 155.735 147.101C155.606 147.046 155.491 146.964 155.396 146.861C155.301 146.758 155.229 146.636 155.186 146.502C155.142 146.369 155.127 146.229 155.142 146.089C155.173 145.792 155.312 145.517 155.532 145.315C155.752 145.112 156.038 144.998 156.337 144.991H172.395C172.536 144.989 172.675 145.017 172.804 145.073C172.933 145.129 173.048 145.211 173.143 145.315C173.237 145.419 173.309 145.542 173.353 145.675C173.396 145.808 173.411 145.95 173.396 146.089V146.089C173.365 146.386 173.226 146.66 173.006 146.861C172.785 147.062 172.499 147.175 172.201 147.179V147.179Z" fill="white"/>
<path opacity="0.3" d="M167.793 151.491H155.764C155.621 151.493 155.48 151.465 155.349 151.407C155.219 151.35 155.103 151.265 155.008 151.159C154.914 151.052 154.844 150.926 154.803 150.79C154.762 150.653 154.751 150.509 154.771 150.368V150.368C154.798 150.071 154.935 149.795 155.154 149.592C155.373 149.39 155.659 149.275 155.957 149.27H167.979C168.12 149.267 168.26 149.294 168.389 149.35C168.519 149.405 168.635 149.487 168.729 149.591C168.824 149.696 168.896 149.819 168.939 149.953C168.982 150.087 168.996 150.229 168.98 150.368V150.368C168.956 150.669 168.822 150.95 168.602 151.158C168.383 151.365 168.095 151.484 167.793 151.491V151.491Z" fill="white"/>
<path d="M181.93 148.237C181.655 148.242 181.381 148.188 181.128 148.08C180.875 147.971 180.648 147.81 180.461 147.607C180.275 147.404 180.134 147.164 180.048 146.902C179.961 146.64 179.931 146.363 179.96 146.089V146.089C180.024 145.508 180.297 144.969 180.727 144.573C181.157 144.177 181.717 143.95 182.301 143.934V143.934C182.578 143.927 182.853 143.98 183.107 144.089C183.362 144.198 183.59 144.36 183.776 144.564C183.963 144.768 184.104 145.01 184.189 145.273C184.275 145.536 184.303 145.815 184.271 146.089V146.089C184.205 146.669 183.932 147.206 183.502 147.601C183.072 147.995 182.514 148.221 181.93 148.237V148.237Z" fill="#407BFF"/>
<path opacity="0.3" d="M181.93 148.237C181.655 148.242 181.381 148.188 181.128 148.08C180.875 147.971 180.648 147.81 180.461 147.607C180.275 147.404 180.134 147.164 180.048 146.902C179.961 146.64 179.931 146.363 179.96 146.089V146.089C180.024 145.508 180.297 144.969 180.727 144.573C181.157 144.177 181.717 143.95 182.301 143.934V143.934C182.578 143.927 182.853 143.98 183.107 144.089C183.362 144.198 183.59 144.36 183.776 144.564C183.963 144.768 184.104 145.01 184.189 145.273C184.275 145.536 184.303 145.815 184.271 146.089V146.089C184.205 146.669 183.932 147.206 183.502 147.601C183.072 147.995 182.514 148.221 181.93 148.237V148.237Z" fill="black"/>
<path d="M203.955 147.179H187.896C187.756 147.182 187.617 147.156 187.489 147.101C187.36 147.046 187.244 146.964 187.149 146.861C187.055 146.758 186.983 146.636 186.939 146.502C186.895 146.369 186.88 146.229 186.895 146.089V146.089C186.927 145.792 187.065 145.517 187.285 145.315C187.505 145.112 187.792 144.998 188.09 144.991H204.149C204.289 144.989 204.428 145.017 204.557 145.073C204.686 145.129 204.801 145.211 204.896 145.315C204.991 145.419 205.062 145.542 205.106 145.675C205.15 145.808 205.165 145.95 205.15 146.089V146.089C205.118 146.386 204.979 146.66 204.759 146.861C204.539 147.062 204.253 147.175 203.955 147.179Z" fill="#263238"/>
<path d="M199.547 151.491H187.525C187.38 151.498 187.235 151.473 187.101 151.418C186.966 151.363 186.846 151.279 186.748 151.171C186.65 151.064 186.577 150.936 186.534 150.798C186.491 150.659 186.479 150.512 186.5 150.368V150.368C186.528 150.071 186.664 149.795 186.883 149.592C187.102 149.39 187.388 149.275 187.687 149.27H199.708C199.849 149.267 199.989 149.294 200.118 149.35C200.248 149.405 200.364 149.487 200.459 149.591C200.554 149.696 200.625 149.819 200.668 149.953C200.711 150.087 200.725 150.229 200.709 150.368C200.688 150.666 200.557 150.945 200.342 151.152C200.128 151.359 199.845 151.479 199.547 151.491V151.491Z" fill="#263238"/>
<path opacity="0.3" d="M203.955 147.179H187.896C187.756 147.182 187.617 147.156 187.489 147.101C187.36 147.046 187.244 146.964 187.149 146.861C187.055 146.758 186.983 146.636 186.939 146.502C186.895 146.369 186.88 146.229 186.895 146.089V146.089C186.927 145.792 187.065 145.517 187.285 145.315C187.505 145.112 187.792 144.998 188.09 144.991H204.149C204.289 144.989 204.428 145.017 204.557 145.073C204.686 145.129 204.801 145.211 204.896 145.315C204.991 145.419 205.062 145.542 205.106 145.675C205.15 145.808 205.165 145.95 205.15 146.089V146.089C205.118 146.386 204.979 146.66 204.759 146.861C204.539 147.062 204.253 147.175 203.955 147.179Z" fill="white"/>
<path opacity="0.3" d="M199.547 151.491H187.525C187.38 151.498 187.235 151.473 187.101 151.418C186.966 151.363 186.846 151.279 186.748 151.171C186.65 151.064 186.577 150.936 186.534 150.798C186.491 150.659 186.479 150.512 186.5 150.368V150.368C186.528 150.071 186.664 149.795 186.883 149.592C187.102 149.39 187.388 149.275 187.687 149.27H199.708C199.849 149.267 199.989 149.294 200.118 149.35C200.248 149.405 200.364 149.487 200.459 149.591C200.554 149.696 200.625 149.819 200.668 149.953C200.711 150.087 200.725 150.229 200.709 150.368C200.688 150.666 200.557 150.945 200.342 151.152C200.128 151.359 199.845 151.479 199.547 151.491V151.491Z" fill="white"/>
<path d="M213.683 148.237C213.408 148.242 213.135 148.188 212.882 148.08C212.63 147.971 212.403 147.81 212.217 147.606C212.032 147.403 211.891 147.163 211.806 146.901C211.72 146.64 211.692 146.363 211.722 146.089V146.089C211.786 145.508 212.058 144.969 212.489 144.573C212.919 144.177 213.478 143.95 214.063 143.934C214.339 143.928 214.613 143.982 214.866 144.091C215.12 144.201 215.347 144.363 215.533 144.567C215.718 144.771 215.858 145.012 215.943 145.275C216.028 145.537 216.056 145.815 216.025 146.089V146.089C215.959 146.669 215.686 147.206 215.255 147.601C214.825 147.995 214.267 148.221 213.683 148.237V148.237Z" fill="#407BFF"/>
<path d="M235.749 147.179H219.65C219.51 147.182 219.371 147.156 219.243 147.101C219.114 147.046 218.999 146.964 218.905 146.861C218.811 146.757 218.74 146.635 218.697 146.502C218.654 146.369 218.641 146.228 218.657 146.089V146.089C218.685 145.792 218.821 145.516 219.04 145.313C219.259 145.111 219.545 144.996 219.844 144.991H235.902C236.042 144.989 236.182 145.017 236.31 145.073C236.439 145.129 236.555 145.211 236.649 145.315C236.744 145.419 236.816 145.542 236.859 145.675C236.903 145.808 236.918 145.95 236.903 146.089V146.089C236.873 146.379 236.739 146.648 236.528 146.848C236.316 147.048 236.039 147.165 235.749 147.179V147.179Z" fill="#263238"/>
<path d="M231.3 151.491H219.278C219.138 151.494 218.998 151.467 218.868 151.411C218.739 151.356 218.623 151.274 218.528 151.17C218.433 151.065 218.362 150.942 218.318 150.808C218.275 150.674 218.261 150.532 218.277 150.393V150.393C218.305 150.096 218.442 149.819 218.661 149.617C218.88 149.414 219.166 149.299 219.464 149.295H231.494C231.634 149.288 231.775 149.312 231.905 149.364C232.036 149.417 232.153 149.497 232.251 149.598C232.348 149.7 232.422 149.821 232.468 149.954C232.515 150.087 232.532 150.228 232.519 150.368V150.368C232.497 150.675 232.358 150.962 232.132 151.171C231.905 151.379 231.608 151.493 231.3 151.491V151.491Z" fill="#263238"/>
<path opacity="0.3" d="M235.749 147.179H219.65C219.51 147.182 219.371 147.156 219.243 147.101C219.114 147.046 218.999 146.964 218.905 146.861C218.811 146.757 218.74 146.635 218.697 146.502C218.654 146.369 218.641 146.228 218.657 146.089V146.089C218.685 145.792 218.821 145.516 219.04 145.313C219.259 145.111 219.545 144.996 219.844 144.991H235.902C236.042 144.989 236.182 145.017 236.31 145.073C236.439 145.129 236.555 145.211 236.649 145.315C236.744 145.419 236.816 145.542 236.859 145.675C236.903 145.808 236.918 145.95 236.903 146.089V146.089C236.873 146.379 236.739 146.648 236.528 146.848C236.316 147.048 236.039 147.165 235.749 147.179V147.179Z" fill="white"/>
<path opacity="0.3" d="M231.3 151.491H219.278C219.138 151.494 218.998 151.467 218.868 151.411C218.739 151.356 218.623 151.274 218.528 151.17C218.433 151.065 218.362 150.942 218.318 150.808C218.275 150.674 218.261 150.532 218.277 150.393V150.393C218.305 150.096 218.442 149.819 218.661 149.617C218.88 149.414 219.166 149.299 219.464 149.295H231.494C231.634 149.288 231.775 149.312 231.905 149.364C232.036 149.417 232.153 149.497 232.251 149.598C232.348 149.7 232.422 149.821 232.468 149.954C232.515 150.087 232.532 150.228 232.519 150.368V150.368C232.497 150.675 232.358 150.962 232.132 151.171C231.905 151.379 231.608 151.493 231.3 151.491V151.491Z" fill="white"/>
<path d="M321.135 85.2387H270.982C270.323 85.2506 269.669 85.1221 269.064 84.8617C268.458 84.6013 267.915 84.215 267.471 83.7285C267.026 83.242 266.69 82.6664 266.486 82.0401C266.281 81.4137 266.212 80.751 266.283 80.0958L268.947 49.6342C269.089 48.241 269.737 46.9481 270.768 46.0004C271.799 45.0526 273.142 44.5157 274.542 44.4914H324.695C325.354 44.4795 326.008 44.608 326.613 44.8684C327.219 45.1288 327.762 45.5151 328.206 46.0016C328.651 46.4881 328.986 47.0636 329.191 47.69C329.396 48.3163 329.465 48.9791 329.394 49.6342L326.73 80.1281C326.58 81.5156 325.929 82.8007 324.899 83.7418C323.869 84.6829 322.53 85.2152 321.135 85.2387V85.2387Z" fill="#407BFF"/>
<path d="M292.659 62.9071C292.402 65.4189 291.234 67.7496 289.376 69.4599C287.519 71.1702 285.1 72.1419 282.575 72.1917C281.387 72.2126 280.207 71.98 279.115 71.5095C278.023 71.039 277.044 70.3414 276.243 69.463C275.442 68.5846 274.837 67.5456 274.468 66.4152C274.1 65.2848 273.976 64.0889 274.106 62.9071C274.361 60.394 275.527 58.0613 277.385 56.3504C279.244 54.6394 281.665 53.6689 284.19 53.6225C285.379 53.6016 286.558 53.8342 287.65 54.3047C288.742 54.7752 289.721 55.4729 290.522 56.3513C291.324 57.2296 291.929 58.2686 292.297 59.399C292.666 60.5294 292.789 61.7253 292.659 62.9071V62.9071Z" fill="#407BFF"/>
<path opacity="0.7" d="M292.659 62.9071C292.402 65.4189 291.234 67.7496 289.376 69.4599C287.519 71.1702 285.1 72.1419 282.575 72.1917C281.387 72.2126 280.207 71.98 279.115 71.5095C278.023 71.039 277.044 70.3414 276.243 69.463C275.442 68.5846 274.837 67.5456 274.468 66.4152C274.1 65.2848 273.976 64.0889 274.106 62.9071C274.361 60.394 275.527 58.0613 277.385 56.3504C279.244 54.6394 281.665 53.6689 284.19 53.6225C285.379 53.6016 286.558 53.8342 287.65 54.3047C288.742 54.7752 289.721 55.4729 290.522 56.3513C291.324 57.2296 291.929 58.2686 292.297 59.399C292.666 60.5294 292.789 61.7253 292.659 62.9071V62.9071Z" fill="white"/>
<path d="M286.184 61.2602C286.007 63.2947 285.232 64.9417 283.197 64.9417C281.162 64.9417 280.67 63.327 280.848 61.2602C281.025 59.1933 281.808 57.5786 283.843 57.5786C285.877 57.5786 286.362 59.2256 286.184 61.2602Z" fill="#263238"/>
<path d="M283.092 66.0881C278.837 66.0881 276.528 67.0327 275.438 68.4214C276.213 69.5976 277.271 70.5596 278.516 71.2185C279.76 71.8775 281.151 72.2122 282.559 72.1918C284.054 72.172 285.525 71.8241 286.87 71.1725C288.215 70.521 289.4 69.5818 290.342 68.4214C289.494 67.0327 287.355 66.0881 283.092 66.0881Z" fill="#263238"/>
<path d="M314.531 52.5406H299.457C299.294 52.544 299.132 52.5123 298.981 52.4478C298.831 52.3833 298.697 52.2875 298.586 52.1667C298.476 52.0459 298.393 51.9029 298.343 51.7474C298.293 51.5919 298.276 51.4274 298.295 51.265V51.265C298.33 50.9194 298.491 50.5987 298.747 50.3637C299.003 50.1286 299.336 49.9955 299.683 49.9894H314.757C314.92 49.986 315.082 50.0177 315.233 50.0822C315.383 50.1467 315.517 50.2425 315.627 50.3633C315.738 50.4841 315.821 50.6271 315.871 50.7826C315.921 50.9381 315.938 51.1026 315.919 51.265C315.885 51.6113 315.725 51.933 315.469 52.1684C315.213 52.4038 314.879 52.5363 314.531 52.5406V52.5406Z" fill="white"/>
<path d="M318.551 61.9625H298.634C298.47 61.9658 298.308 61.9342 298.158 61.8697C298.008 61.8052 297.873 61.7094 297.763 61.5885C297.653 61.4677 297.57 61.3248 297.519 61.1693C297.469 61.0138 297.453 60.8493 297.471 60.6869V60.6869C297.506 60.3405 297.667 60.0188 297.923 59.7825C298.178 59.5461 298.512 59.4112 298.86 59.4032H318.777C318.941 59.401 319.103 59.4337 319.254 59.4991C319.404 59.5645 319.538 59.6612 319.648 59.7826C319.758 59.904 319.841 60.0474 319.891 60.2034C319.942 60.3593 319.958 60.5241 319.94 60.6869V60.6869C319.906 61.0332 319.746 61.3548 319.49 61.5902C319.233 61.8256 318.899 61.9582 318.551 61.9625Z" fill="white"/>
<path d="M322.176 66.6693H298.222C298.059 66.6726 297.896 66.641 297.746 66.5765C297.596 66.512 297.461 66.4161 297.351 66.2953C297.241 66.1745 297.158 66.0316 297.108 65.8761C297.057 65.7206 297.041 65.5561 297.059 65.3937V65.3937C297.095 65.048 297.256 64.7274 297.512 64.4923C297.767 64.2573 298.101 64.1241 298.448 64.118H322.402C322.566 64.1147 322.728 64.1463 322.878 64.2108C323.028 64.2753 323.163 64.3712 323.273 64.492C323.383 64.6128 323.466 64.7558 323.517 64.9113C323.567 65.0668 323.583 65.2313 323.565 65.3937V65.3937C323.531 65.74 323.371 66.0616 323.115 66.297C322.858 66.5324 322.524 66.665 322.176 66.6693Z" fill="white"/>
<path d="M320.15 71.3844H297.81C297.646 71.3866 297.484 71.3539 297.334 71.2885C297.184 71.223 297.049 71.1264 296.939 71.005C296.829 70.8836 296.746 70.7401 296.696 70.5842C296.646 70.4283 296.629 70.2635 296.648 70.1007V70.1007C296.685 69.7557 296.846 69.4361 297.102 69.2013C297.357 68.9666 297.689 68.8329 298.036 68.8251H320.376C320.539 68.8217 320.701 68.8534 320.852 68.9179C321.002 68.9824 321.137 69.0782 321.247 69.199C321.357 69.3198 321.44 69.4628 321.49 69.6183C321.54 69.7738 321.557 69.9383 321.538 70.1007V70.1007C321.505 70.4478 321.345 70.7704 321.089 71.0071C320.833 71.2438 320.498 71.3781 320.15 71.3844V71.3844Z" fill="white"/>
<path d="M317.292 76.0913H297.398C297.235 76.0946 297.073 76.063 296.923 75.9985C296.772 75.934 296.638 75.8381 296.528 75.7173C296.418 75.5965 296.335 75.4536 296.284 75.2981C296.234 75.1425 296.217 74.9781 296.236 74.8157V74.8157C296.269 74.4686 296.43 74.146 296.686 73.9093C296.942 73.6725 297.276 73.5383 297.625 73.532H317.542C317.706 73.5298 317.868 73.5625 318.018 73.6279C318.169 73.6933 318.303 73.79 318.413 73.9114C318.523 74.0328 318.606 74.1762 318.656 74.3321C318.706 74.4881 318.723 74.6529 318.705 74.8157C318.669 75.1654 318.504 75.4894 318.243 75.725C317.982 75.9606 317.643 76.0911 317.292 76.0913Z" fill="white"/>
<path d="M319.326 80.7981H296.987C296.823 80.8014 296.661 80.7698 296.511 80.7053C296.361 80.6408 296.226 80.5449 296.116 80.4241C296.006 80.3033 295.923 80.1604 295.872 80.0048C295.822 79.8493 295.806 79.6849 295.824 79.5224V79.5224C295.858 79.1761 296.018 78.8545 296.274 78.6191C296.531 78.3837 296.865 78.2511 297.213 78.2468H319.552C319.716 78.2435 319.878 78.2751 320.028 78.3396C320.178 78.4041 320.313 78.5 320.423 78.6208C320.533 78.7416 320.616 78.8845 320.667 79.0401C320.717 79.1956 320.733 79.36 320.715 79.5224V79.5224C320.678 79.8674 320.516 80.1871 320.261 80.4218C320.005 80.6565 319.673 80.7903 319.326 80.7981V80.7981Z" fill="white"/>
<path d="M255.933 85.2387H169.666C169.007 85.2505 168.354 85.122 167.748 84.8616C167.143 84.6012 166.6 84.2149 166.155 83.7284C165.711 83.2419 165.375 82.6664 165.17 82.04C164.965 81.4137 164.896 80.7509 164.968 80.0958L169.763 25.2923C169.905 23.8991 170.553 22.6062 171.584 21.6585C172.615 20.7107 173.958 20.1738 175.358 20.1495H261.584C262.243 20.1374 262.896 20.2659 263.501 20.5264C264.106 20.7869 264.649 21.1733 265.093 21.66C265.536 22.1466 265.871 22.7223 266.075 23.3487C266.279 23.975 266.347 24.6376 266.275 25.2923L261.519 80.1281C261.369 81.5135 260.718 82.7965 259.69 83.7371C258.662 84.6777 257.326 85.2115 255.933 85.2387V85.2387Z" fill="#407BFF"/>
<path opacity="0.7" d="M255.933 85.2387H169.666C169.007 85.2505 168.354 85.122 167.748 84.8616C167.143 84.6012 166.6 84.2149 166.155 83.7284C165.711 83.2419 165.375 82.6664 165.17 82.04C164.965 81.4137 164.896 80.7509 164.968 80.0958L169.763 25.2923C169.905 23.8991 170.553 22.6062 171.584 21.6585C172.615 20.7107 173.958 20.1738 175.358 20.1495H261.584C262.243 20.1374 262.896 20.2659 263.501 20.5264C264.106 20.7869 264.649 21.1733 265.093 21.66C265.536 22.1466 265.871 22.7223 266.075 23.3487C266.279 23.975 266.347 24.6376 266.275 25.2923L261.519 80.1281C261.369 81.5135 260.718 82.7965 259.69 83.7371C258.662 84.6777 257.326 85.2115 255.933 85.2387V85.2387Z" fill="white"/>
<path d="M264.499 45.993C262.827 39.962 260.187 33.923 256.344 33.923C249.078 33.923 245.55 45.2906 241.812 57.3364C238.518 67.9127 235.111 78.8444 229.798 78.8444C223.057 78.8444 221.208 65.3211 219.424 52.2419C217.422 37.5884 215.532 23.7422 206.845 23.7422C198.158 23.7422 193.855 37.5884 189.285 52.2419C185.208 65.3211 181.002 78.8444 174.252 78.8444C171.103 78.8444 168.173 69.5275 166.631 61.244L165.928 69.3175C167.608 75.3001 170.232 81.2503 174.042 81.2503C182.729 81.2503 187.041 67.4041 191.602 52.7506C195.639 39.6794 199.894 26.1481 206.635 26.1481C213.377 26.1481 215.226 39.6794 217.01 52.7909C219.012 67.4445 220.901 81.2907 229.588 81.2907C236.855 81.2907 240.383 69.9231 244.121 57.8773C247.415 47.3009 250.822 36.3693 256.142 36.3693C259.315 36.3693 262.27 45.8154 263.796 54.1311L264.499 45.993Z" fill="#707070"/>
<path d="M209.474 26.9513C210.929 25.5576 211.075 23.3468 209.798 22.0133C208.522 20.6799 206.307 20.7287 204.851 22.1224C203.395 23.5161 203.25 25.7269 204.526 27.0603C205.803 28.3938 208.018 28.345 209.474 26.9513Z" fill="#263238"/>
<path d="M208.3 25.716C209.021 25.0252 209.091 23.9274 208.456 23.264C207.821 22.6006 206.721 22.6228 205.999 23.3136C205.278 24.0044 205.208 25.1022 205.844 25.7657C206.479 26.4291 207.579 26.4069 208.3 25.716Z" fill="#407BFF"/>
<path d="M214.499 9.76686H202.389C201.755 9.77907 201.148 10.0221 200.681 10.4502C200.215 10.8783 199.92 11.4622 199.853 12.0921L199.66 14.3042C199.628 14.6003 199.659 14.8999 199.751 15.1829C199.844 15.466 199.996 15.7262 200.196 15.9461C200.397 16.166 200.643 16.3407 200.916 16.4585C201.19 16.5763 201.485 16.6346 201.783 16.6294H205.82L207.023 18.446C207.102 18.5529 207.206 18.6397 207.325 18.6995C207.444 18.7593 207.576 18.7904 207.709 18.7904C207.842 18.7904 207.974 18.7593 208.093 18.6995C208.212 18.6397 208.316 18.5529 208.395 18.446L209.913 16.6294H213.95C214.582 16.617 215.188 16.3737 215.654 15.9454C216.119 15.5171 216.412 14.9334 216.477 14.3042L216.671 12.0921C216.703 11.7918 216.671 11.488 216.576 11.2014C216.48 10.9148 216.324 10.6522 216.118 10.4314C215.912 10.2107 215.66 10.037 215.381 9.92235C215.102 9.80766 214.801 9.75462 214.499 9.76686V9.76686Z" fill="#407BFF"/>
<path d="M213.554 12.6895H202.55C202.473 12.6912 202.396 12.6763 202.324 12.6456C202.253 12.615 202.189 12.5695 202.137 12.5121C202.085 12.4546 202.046 12.3867 202.023 12.3128C201.999 12.239 201.992 12.1609 202.001 12.084V12.084C202.024 11.9268 202.101 11.7825 202.219 11.6763C202.337 11.5701 202.488 11.5086 202.647 11.5027H213.643C213.72 11.5023 213.797 11.5181 213.867 11.5492C213.938 11.5802 214.001 11.6258 214.053 11.6829C214.105 11.7401 214.144 11.8074 214.168 11.8807C214.192 11.954 214.2 12.0315 214.192 12.1082C214.173 12.2654 214.098 12.4104 213.981 12.5171C213.864 12.6237 213.713 12.6849 213.554 12.6895Z" fill="#263238"/>
<path d="M207.394 14.8855H202.364C202.287 14.887 202.209 14.8721 202.138 14.8415C202.066 14.811 202.002 14.7656 201.949 14.7083C201.897 14.651 201.857 14.5832 201.832 14.5094C201.808 14.4356 201.799 14.3574 201.807 14.28V14.28C201.823 14.115 201.9 13.9619 202.022 13.8501C202.144 13.7382 202.304 13.6757 202.469 13.6744H207.491C207.569 13.6727 207.645 13.6877 207.717 13.7183C207.788 13.7489 207.852 13.7945 207.904 13.8519C207.956 13.9093 207.995 13.9773 208.018 14.0511C208.042 14.125 208.049 14.203 208.04 14.28C208.023 14.4415 207.948 14.5915 207.83 14.7027C207.711 14.8138 207.557 14.8787 207.394 14.8855V14.8855Z" fill="#263238"/>
<path d="M231.572 80.9199C233.028 79.5263 233.174 77.3154 231.897 75.982C230.621 74.6485 228.406 74.6973 226.95 76.091C225.494 77.4847 225.349 79.6955 226.625 81.029C227.902 82.3625 230.117 82.3136 231.572 80.9199Z" fill="#263238"/>
<path d="M230.993 78.5134C230.946 78.9826 230.729 79.4183 230.382 79.7381C230.035 80.0579 229.584 80.2397 229.112 80.2492C228.887 80.2589 228.662 80.2196 228.454 80.134C228.245 80.0485 228.058 79.9187 227.904 79.7537C227.751 79.5887 227.635 79.3924 227.565 79.1782C227.494 78.9641 227.471 78.7373 227.497 78.5134C227.545 78.0441 227.762 77.6085 228.109 77.2886C228.455 76.9688 228.907 76.787 229.379 76.7776C229.604 76.7679 229.828 76.8072 230.037 76.8927C230.245 76.9783 230.433 77.108 230.586 77.273C230.74 77.438 230.856 77.6344 230.926 77.8485C230.996 78.0627 231.019 78.2895 230.993 78.5134Z" fill="#407BFF"/>
<path d="M236.604 63.7307H224.494C223.862 63.7431 223.256 63.9864 222.79 64.4146C222.325 64.8429 222.032 65.4267 221.967 66.0559L221.773 68.2599C221.74 68.5567 221.77 68.8571 221.862 69.1412C221.954 69.4252 222.106 69.6864 222.307 69.9072C222.508 70.1281 222.753 70.3035 223.028 70.4218C223.302 70.5401 223.598 70.5985 223.897 70.5932H227.893L229.096 72.4098C229.177 72.5153 229.282 72.6008 229.402 72.6596C229.521 72.7184 229.653 72.749 229.786 72.749C229.92 72.749 230.051 72.7184 230.171 72.6596C230.291 72.6008 230.395 72.5153 230.477 72.4098L231.994 70.5932H235.991C236.626 70.5825 237.235 70.339 237.702 69.9088C238.17 69.4787 238.463 68.8919 238.526 68.2599L238.72 66.0559C238.752 65.7604 238.721 65.4616 238.629 65.1791C238.536 64.8966 238.385 64.6368 238.186 64.417C237.986 64.1972 237.741 64.0224 237.469 63.9041C237.196 63.7857 236.902 63.7266 236.604 63.7307V63.7307Z" fill="#263238"/>
<path d="M235.66 66.6533H224.655C224.578 66.655 224.501 66.6401 224.43 66.6094C224.359 66.5788 224.295 66.5333 224.243 66.4758C224.191 66.4184 224.152 66.3505 224.128 66.2766C224.105 66.2028 224.097 66.1247 224.106 66.0478V66.0478C224.122 65.8842 224.198 65.7322 224.318 65.6206C224.439 65.5089 224.596 65.4455 224.76 65.4423H235.749C235.826 65.4419 235.902 65.4577 235.973 65.4887C236.043 65.5198 236.106 65.5654 236.158 65.6225C236.21 65.6796 236.249 65.747 236.273 65.8203C236.297 65.8936 236.305 65.9711 236.298 66.0478V66.0478C236.284 66.2093 236.211 66.3602 236.094 66.4718C235.976 66.5834 235.822 66.648 235.66 66.6533Z" fill="white"/>
<path d="M229.5 68.825H224.446C224.368 68.8268 224.291 68.8118 224.22 68.7812C224.149 68.7506 224.085 68.705 224.033 68.6476C223.981 68.5902 223.942 68.5222 223.918 68.4484C223.895 68.3745 223.887 68.2965 223.897 68.2195V68.2195C223.914 68.0566 223.99 67.9056 224.11 67.7943C224.23 67.6829 224.387 67.6189 224.551 67.614H229.588C229.666 67.6124 229.743 67.6274 229.815 67.658C229.887 67.6885 229.951 67.7339 230.003 67.7912C230.056 67.8484 230.096 67.9162 230.121 67.9901C230.145 68.0639 230.154 68.1421 230.146 68.2195V68.2195C230.13 68.3817 230.056 68.5327 229.937 68.6441C229.818 68.7556 229.663 68.8199 229.5 68.825Z" fill="white"/>
<path d="M259.776 34.9161C259.681 35.8623 259.242 36.7409 258.543 37.3853C257.843 38.0296 256.932 38.3949 255.981 38.4119C255.533 38.4204 255.089 38.3333 254.677 38.1563C254.266 37.9794 253.897 37.7167 253.595 37.3858C253.293 37.055 253.066 36.6635 252.927 36.2376C252.788 35.8117 252.742 35.3612 252.792 34.9161C252.89 33.9719 253.33 33.0963 254.029 32.454C254.728 31.8116 255.637 31.4468 256.586 31.4283C257.033 31.4199 257.477 31.5069 257.888 31.6834C258.299 31.8598 258.667 32.1217 258.969 32.4517C259.271 32.7817 259.499 33.1721 259.638 33.597C259.777 34.0219 259.824 34.4716 259.776 34.9161V34.9161Z" fill="#263238"/>
<path d="M258.016 34.916C257.968 35.3853 257.751 35.8209 257.404 36.1408C257.058 36.4606 256.606 36.6424 256.134 36.6518C255.909 36.6615 255.685 36.6222 255.476 36.5367C255.268 36.4511 255.08 36.3214 254.927 36.1564C254.773 35.9914 254.657 35.795 254.587 35.5809C254.517 35.3667 254.494 35.1399 254.52 34.916C254.569 34.4483 254.787 34.0145 255.133 33.6964C255.48 33.3782 255.931 33.1975 256.401 33.1883C256.625 33.1788 256.849 33.2179 257.057 33.303C257.265 33.388 257.452 33.517 257.605 33.6811C257.759 33.8452 257.875 34.0406 257.945 34.2537C258.016 34.4668 258.04 34.6928 258.016 34.916V34.916Z" fill="#407BFF"/>
<path d="M263.627 20.1493H251.516C250.882 20.1598 250.274 20.4022 249.807 20.8307C249.34 21.2592 249.046 21.844 248.981 22.4745L248.787 24.6867C248.755 24.9828 248.787 25.2823 248.879 25.5654C248.972 25.8485 249.123 26.1086 249.324 26.3286C249.525 26.5485 249.77 26.7232 250.044 26.841C250.318 26.9588 250.613 27.0171 250.911 27.0119H254.948L256.151 28.8284C256.23 28.9353 256.334 29.0222 256.453 29.082C256.572 29.1418 256.703 29.1729 256.837 29.1729C256.97 29.1729 257.102 29.1418 257.221 29.082C257.34 29.0222 257.443 28.9353 257.523 28.8284L259.041 27.0119H263.037C263.671 27.0014 264.279 26.759 264.746 26.3305C265.213 25.9021 265.507 25.3172 265.572 24.6867L265.766 22.4745C265.798 22.1771 265.767 21.8761 265.673 21.5919C265.58 21.3076 265.427 21.0467 265.224 20.8265C265.021 20.6063 264.774 20.4319 264.499 20.3152C264.223 20.1984 263.926 20.1418 263.627 20.1493V20.1493Z" fill="#407BFF"/>
<path d="M262.682 23.0721H251.678C251.6 23.0738 251.523 23.0589 251.452 23.0283C251.381 22.9976 251.317 22.9521 251.265 22.8947C251.213 22.8372 251.174 22.7693 251.15 22.6955C251.127 22.6216 251.119 22.5436 251.129 22.4666V22.4666C251.145 22.3031 251.22 22.151 251.34 22.0394C251.461 21.9277 251.618 21.8643 251.783 21.8611H262.787C262.864 21.8607 262.94 21.8765 263.011 21.9076C263.082 21.9386 263.145 21.9842 263.197 22.0413C263.248 22.0985 263.288 22.1658 263.312 22.2391C263.336 22.3124 263.344 22.3899 263.336 22.4666C263.322 22.6308 263.247 22.7839 263.126 22.8959C263.005 23.0079 262.847 23.0707 262.682 23.0721Z" fill="#263238"/>
<path d="M256.522 25.2682H251.484C251.407 25.2686 251.331 25.2527 251.26 25.2217C251.189 25.1906 251.126 25.145 251.074 25.0879C251.023 25.0308 250.983 24.9634 250.959 24.8901C250.935 24.8168 250.927 24.7393 250.935 24.6626C250.951 24.4977 251.027 24.3446 251.15 24.2327C251.272 24.1209 251.431 24.0583 251.597 24.0571H256.627C256.705 24.0556 256.782 24.0705 256.853 24.1011C256.925 24.1316 256.989 24.177 257.042 24.2343C257.095 24.2916 257.135 24.3594 257.159 24.4332C257.183 24.507 257.192 24.5853 257.184 24.6626V24.6626C257.166 24.8269 257.089 24.979 256.967 25.0905C256.845 25.202 256.687 25.2652 256.522 25.2682V25.2682Z" fill="#263238"/>
<path d="M178.62 78.9008C178.523 79.8456 178.084 80.7223 177.385 81.3649C176.685 82.0076 175.775 82.3718 174.825 82.3886C174.379 82.3958 173.936 82.308 173.526 82.131C173.117 81.954 172.749 81.6919 172.448 81.3621C172.147 81.0323 171.92 80.6423 171.782 80.2179C171.643 79.7936 171.596 79.3446 171.644 78.9008C171.739 77.9546 172.178 77.076 172.877 76.4316C173.577 75.7873 174.488 75.422 175.439 75.405C175.886 75.3976 176.33 75.4856 176.74 75.6631C177.15 75.8406 177.518 76.1034 177.819 76.4341C178.12 76.7649 178.347 77.1559 178.485 77.5812C178.623 78.0066 178.669 78.4564 178.62 78.9008V78.9008Z" fill="#263238"/>
<path d="M176.868 78.9009C176.819 79.3701 176.599 79.8049 176.251 80.1233C175.903 80.4416 175.45 80.6214 174.979 80.6287C174.755 80.6368 174.532 80.5968 174.324 80.5113C174.117 80.4257 173.931 80.2967 173.778 80.1329C173.624 79.9691 173.508 79.7744 173.437 79.5618C173.366 79.3493 173.341 79.1239 173.364 78.9009C173.413 78.431 173.632 77.9952 173.98 77.6756C174.328 77.3559 174.781 77.1744 175.253 77.1651C175.478 77.1568 175.702 77.1971 175.91 77.2831C176.118 77.3691 176.305 77.4988 176.458 77.6635C176.611 77.8282 176.727 78.024 176.798 78.2375C176.868 78.4511 176.892 78.6773 176.868 78.9009V78.9009Z" fill="#407BFF"/>
<path d="M182.463 64.1262H170.353C169.719 64.1384 169.112 64.3814 168.645 64.8096C168.179 65.2377 167.884 65.8215 167.817 66.4514L167.632 68.6636C167.598 68.9599 167.629 69.26 167.721 69.5437C167.813 69.8273 167.964 70.088 168.166 70.3083C168.367 70.5285 168.613 70.7031 168.887 70.8205C169.161 70.9379 169.457 70.9952 169.755 70.9887H173.792L174.995 72.8053C175.075 72.9122 175.178 72.999 175.297 73.0588C175.416 73.1186 175.548 73.1498 175.681 73.1498C175.814 73.1498 175.946 73.1186 176.065 73.0588C176.184 72.999 176.288 72.9122 176.367 72.8053L177.893 70.9887H181.93C182.563 70.9765 183.17 70.7335 183.637 70.3054C184.104 69.8773 184.398 69.2934 184.465 68.6636L184.651 66.4514C184.685 66.1494 184.654 65.8436 184.558 65.5552C184.462 65.2668 184.304 65.0027 184.096 64.7814C183.888 64.5601 183.634 64.3868 183.352 64.2736C183.07 64.1605 182.766 64.1102 182.463 64.1262V64.1262Z" fill="#263238"/>
<path d="M181.526 67.0569H170.53C170.452 67.0584 170.375 67.0434 170.304 67.0129C170.232 66.9823 170.168 66.9369 170.115 66.8797C170.063 66.8224 170.023 66.7546 169.998 66.6808C169.974 66.6069 169.965 66.5287 169.973 66.4513V66.4513C169.989 66.2864 170.066 66.1333 170.188 66.0214C170.31 65.9096 170.469 65.847 170.635 65.8458H181.656C181.733 65.8443 181.811 65.8592 181.882 65.8898C181.954 65.9203 182.018 65.9657 182.071 66.023C182.123 66.0803 182.163 66.1481 182.188 66.2219C182.212 66.2957 182.221 66.3739 182.213 66.4513V66.4513C182.195 66.6197 182.114 66.7752 181.987 66.8873C181.86 66.9994 181.696 67.0598 181.526 67.0569V67.0569Z" fill="white"/>
<path d="M175.374 69.2449H170.353C170.275 69.2453 170.199 69.2294 170.129 69.1984C170.058 69.1673 169.995 69.1217 169.943 69.0646C169.891 69.0075 169.852 68.9401 169.828 68.8668C169.804 68.7936 169.796 68.716 169.804 68.6393V68.6393C169.818 68.4751 169.892 68.322 170.013 68.2101C170.134 68.0981 170.293 68.0352 170.458 68.0338H175.495C175.573 68.0321 175.65 68.0471 175.721 68.0777C175.792 68.1083 175.856 68.1539 175.908 68.2113C175.96 68.2687 175.999 68.3366 176.023 68.4105C176.046 68.4843 176.054 68.5624 176.044 68.6393V68.6393C176.028 68.8056 175.951 68.9599 175.827 69.0719C175.703 69.184 175.541 69.2456 175.374 69.2449V69.2449Z" fill="white"/>
<path d="M119.844 65.1677L117.519 69.2045L115.234 73.3463C113.733 76.1155 112.295 78.9009 110.988 81.7105C110.334 83.1153 109.712 84.512 109.147 85.9249L109.042 86.1752C109.045 86.1966 109.045 86.2183 109.042 86.2398C109.012 86.2735 108.988 86.3116 108.969 86.3528C108.926 86.4242 108.891 86.5 108.864 86.5788C108.804 86.8831 108.838 87.1984 108.961 87.4831C109.408 88.5844 110.07 89.586 110.907 90.4299C111.895 91.4913 112.946 92.4916 114.056 93.4252L112.166 97.462C111.277 97.2165 110.405 96.9089 109.559 96.5416C108.707 96.1757 107.882 95.7522 107.088 95.2741C105.275 94.2251 103.722 92.7821 102.543 91.0516C101.8 89.9508 101.302 88.7037 101.081 87.3943C100.988 86.6652 100.988 85.9273 101.081 85.1983C101.118 84.8365 101.18 84.4777 101.267 84.1245L101.396 83.5997L101.501 83.2848C102.018 81.6297 102.559 79.9989 103.188 78.4407C104.406 75.3032 105.781 72.2287 107.306 69.2287C108.057 67.7351 108.84 66.2576 109.663 64.8125C110.487 63.3673 111.278 61.9383 112.239 60.4608L119.844 65.1677Z" fill="#7F3E3B"/>
<path d="M111.997 92.9893L116.244 91.8832L116.486 98.7377C116.486 98.7377 113.167 99.2301 111.133 97.1956L111.997 92.9893Z" fill="#7F3E3B"/>
<path d="M122.25 90.7288L121.298 96.7436L116.486 98.7377L116.243 91.8833L122.25 90.7288Z" fill="#7F3E3B"/>
<path d="M139.802 32.8895C139.891 33.3578 140.222 33.6969 140.529 33.6242C140.836 33.5515 141.005 33.1317 140.908 32.6635C140.811 32.1952 140.488 31.8561 140.182 31.9288C139.875 32.0014 139.673 32.4213 139.802 32.8895Z" fill="#263238"/>
<path d="M140.174 33.6969C141.027 35.0147 142.057 36.2098 143.233 37.2493C142.96 37.5441 142.625 37.7756 142.253 37.9276C141.881 38.0796 141.479 38.1484 141.078 38.1293L140.174 33.6969Z" fill="#7F3E3B"/>
<path d="M137.558 30.6369C137.486 30.6373 137.417 30.6115 137.364 30.5643C137.312 30.5115 137.283 30.4405 137.283 30.3665C137.283 30.2925 137.312 30.2215 137.364 30.1687C137.662 29.8281 138.038 29.565 138.46 29.4019C138.881 29.2387 139.337 29.1805 139.786 29.2321C139.86 29.245 139.926 29.2867 139.969 29.348C140.012 29.4093 140.029 29.4853 140.016 29.5591C140.003 29.633 139.962 29.6987 139.9 29.7419C139.839 29.7851 139.763 29.8021 139.689 29.7892C139.338 29.7572 138.984 29.8093 138.657 29.9413C138.33 30.0733 138.039 30.2813 137.808 30.5481C137.776 30.5818 137.737 30.6074 137.694 30.6228C137.65 30.6382 137.603 30.6431 137.558 30.6369V30.6369Z" fill="#263238"/>
<path d="M126.448 39.4856C127.256 43.8211 128.144 51.7736 125.108 54.672C125.108 54.672 126.295 59.0721 134.361 59.0721C143.242 59.0721 138.591 54.672 138.591 54.672C133.747 53.5175 133.884 49.9247 134.724 46.55L126.448 39.4856Z" fill="#7F3E3B"/>
<path d="M123.356 55.4713C122.71 54.2684 122 52.8878 123.477 52.4599C125.092 51.9835 135.531 51.1035 138.599 51.9916C137.655 53.6709 139.253 55.7297 139.253 55.7297L123.356 55.4713Z" fill="#263238"/>
<path d="M97.0929 257.747C97.3322 257.832 97.5861 257.869 97.8398 257.855C98.0934 257.841 98.3418 257.777 98.5704 257.666C98.6588 257.585 98.7195 257.478 98.7442 257.361C98.7688 257.244 98.756 257.122 98.7076 257.012C98.6816 256.921 98.6354 256.836 98.5726 256.765C98.5097 256.694 98.4317 256.638 98.3443 256.6C97.537 256.213 95.7043 256.964 95.6235 256.996C95.5994 257.008 95.5791 257.026 95.5649 257.049C95.5506 257.072 95.543 257.098 95.5428 257.125C95.5389 257.152 95.5439 257.179 95.5571 257.202C95.5702 257.225 95.5908 257.244 95.6155 257.254C96.0893 257.47 96.5845 257.635 97.0929 257.747V257.747ZM98.0618 256.794L98.2232 256.851C98.2753 256.872 98.3218 256.905 98.3595 256.947C98.3972 256.989 98.4251 257.039 98.4412 257.093C98.5139 257.343 98.4412 257.424 98.3847 257.448C98.0698 257.723 96.883 257.448 96.0514 257.133C96.69 256.88 97.3761 256.77 98.0618 256.81V256.794Z" fill="#407BFF"/>
<path d="M95.6478 257.279H95.7204C96.3905 257.085 97.8276 256.059 97.8438 255.389C97.8443 255.284 97.8085 255.181 97.7423 255.099C97.6762 255.017 97.5837 254.959 97.4805 254.937C97.3788 254.904 97.2715 254.891 97.1648 254.899C97.058 254.907 96.954 254.937 96.8588 254.986C96.0514 255.389 95.567 257.036 95.5428 257.101C95.5299 257.122 95.5231 257.145 95.5231 257.17C95.5231 257.194 95.5299 257.218 95.5428 257.238C95.5553 257.254 95.5715 257.265 95.5899 257.272C95.6083 257.279 95.6283 257.282 95.6478 257.279ZM97.3271 255.179H97.3917C97.5612 255.236 97.5612 255.325 97.5612 255.357C97.5612 255.753 96.6004 256.552 95.9465 256.883C96.1327 256.231 96.5094 255.649 97.0283 255.212C97.1224 255.171 97.2265 255.16 97.3271 255.179V255.179Z" fill="#407BFF"/>
<path d="M140.884 258.756C141.643 258.756 142.378 258.651 142.628 258.312C142.693 258.221 142.728 258.113 142.728 258.001C142.728 257.89 142.693 257.781 142.628 257.69C142.58 257.609 142.516 257.539 142.439 257.483C142.363 257.428 142.276 257.388 142.184 257.367C141.199 257.101 139.124 258.28 139.035 258.328C139.011 258.343 138.993 258.365 138.981 258.391C138.97 258.417 138.966 258.446 138.971 258.473C138.975 258.502 138.989 258.528 139.009 258.548C139.029 258.568 139.055 258.582 139.084 258.587C139.677 258.698 140.28 258.755 140.884 258.756V258.756ZM141.829 257.602C141.917 257.593 142.007 257.593 142.095 257.602C142.209 257.63 142.308 257.703 142.37 257.803C142.475 257.973 142.434 258.062 142.37 258.11C142.087 258.498 140.593 258.506 139.487 258.344C140.214 257.95 141.008 257.698 141.829 257.602Z" fill="#407BFF"/>
<path d="M139.092 258.595H139.148C139.867 258.272 141.288 256.98 141.175 256.318C141.175 256.164 141.037 255.971 140.65 255.93C140.506 255.908 140.359 255.919 140.219 255.961C140.079 256.002 139.951 256.075 139.843 256.172C139.084 256.786 138.93 258.385 138.922 258.457C138.919 258.481 138.922 258.505 138.932 258.526C138.942 258.548 138.958 258.566 138.979 258.578C139.013 258.597 139.053 258.602 139.092 258.595V258.595ZM140.537 256.172H140.626C140.876 256.172 140.892 256.302 140.9 256.334C140.965 256.738 139.996 257.747 139.285 258.183C139.359 257.503 139.641 256.863 140.093 256.35C140.219 256.249 140.375 256.192 140.537 256.189V256.172Z" fill="#407BFF"/>
<path d="M132.568 258.449H138.502L139.092 244.716H133.158L132.568 258.449Z" fill="#7F3E3B"/>
<path d="M89.0355 255.704L94.8324 256.956L100.653 244.167L94.8566 242.916L89.0355 255.704Z" fill="#7F3E3B"/>
<path d="M95.3894 256.374L88.8821 254.97C88.7665 254.941 88.6444 254.954 88.5379 255.008C88.4313 255.061 88.3473 255.15 88.3008 255.26L86.0402 260.161C85.9852 260.28 85.9581 260.411 85.9608 260.543C85.9634 260.674 85.9959 260.804 86.0557 260.921C86.1156 261.038 86.2012 261.141 86.3061 261.22C86.4111 261.299 86.5327 261.354 86.6619 261.38C88.9467 261.832 90.077 261.937 92.9431 262.559C94.7031 262.938 98.6834 263.907 101.114 264.432C103.544 264.957 104.391 262.623 103.439 262.187C99.184 260.242 97.4078 258.53 96.2533 256.939C96.0453 256.651 95.7374 256.449 95.3894 256.374V256.374Z" fill="#263238"/>
<path d="M138.462 257.747H132.003C131.885 257.747 131.771 257.787 131.679 257.86C131.587 257.934 131.522 258.036 131.494 258.15L130.324 263.422C130.294 263.55 130.294 263.683 130.324 263.811C130.353 263.938 130.412 264.058 130.494 264.16C130.577 264.262 130.681 264.343 130.8 264.399C130.919 264.454 131.049 264.482 131.18 264.48C133.513 264.44 136.888 264.302 139.826 264.302C143.258 264.302 146.229 264.488 150.257 264.488C152.68 264.488 153.366 262.026 152.349 261.808C147.706 260.79 143.92 260.685 139.907 258.207C139.477 257.922 138.977 257.763 138.462 257.747V257.747Z" fill="#263238"/>
<path d="M114.492 56.0123C108.929 57.2879 104.343 71.4732 104.343 71.4732L115.509 79.9827C118.401 76.9076 120.441 73.1313 121.427 69.0269C123.34 61.5588 120.175 54.7043 114.492 56.0123Z" fill="#FFC42D"/>
<path opacity="0.2" d="M119.255 66.4434C116.235 69.4306 115.218 74.8722 115.016 79.6033L115.509 79.9828C118.401 76.9032 120.443 73.1251 121.435 69.0188C121.548 68.5748 121.645 68.1307 121.725 67.6948L119.255 66.4434Z" fill="black"/>
<path d="M147.747 56.3192C147.747 56.3192 152.3 60.7758 150.58 84.4718C150.128 90.7369 147.73 98.3502 146.487 107.578H118.771C118.544 102.734 119.182 78.9575 114.492 56.0124C118.008 55.3358 121.566 54.8881 125.141 54.6722C129.631 54.4136 134.133 54.4136 138.623 54.6722C141.703 54.9824 144.753 55.5331 147.747 56.3192V56.3192Z" fill="#263238"/>
<path opacity="0.6" d="M150.928 76.1558C150.403 72.7164 149.846 69.6969 149.313 67.1134L149.135 67.0084L140.448 70.6496C140.868 76.0508 146.576 81.5005 150.548 84.6896C150.548 84.6169 150.548 84.5362 150.548 84.4716C150.774 81.3794 150.887 78.6263 150.928 76.1558Z" fill="black"/>
<path opacity="0.2" d="M139.092 244.716L138.785 251.797H132.851L133.158 244.716H139.092Z" fill="black"/>
<path opacity="0.2" d="M94.8566 242.916L100.653 244.167L97.65 250.763L91.8532 249.512L94.8566 242.916Z" fill="black"/>
<path d="M123.962 35.0775C125.488 40.729 126.085 44.1684 129.613 46.5339C134.894 50.0863 141.457 46.0092 141.667 39.9782C141.853 34.5528 139.326 26.1643 133.23 25.0259C131.885 24.7621 130.494 24.8474 129.191 25.2737C127.888 25.7 126.716 26.453 125.786 27.461C124.857 28.4689 124.201 29.6982 123.882 31.0316C123.563 32.3649 123.59 33.7578 123.962 35.0775V35.0775Z" fill="#7F3E3B"/>
<path d="M136.815 107.578C136.815 107.578 130.082 152.911 126.392 169.89C122.355 188.459 100.645 250.012 100.645 250.012L90.0286 247.711C90.0286 247.711 105.199 197.574 108.598 171.577C110.108 159.992 110.326 140.317 112.271 125.833C113.191 119.373 115.401 113.165 118.771 107.578H136.815Z" fill="#47555C"/>
<path d="M103.189 246.444L101.21 250.279L89.2616 247.695L90.2708 244.102L103.189 246.444Z" fill="#707070"/>
<path opacity="0.6" d="M132.56 123.725C124.777 125.251 125.601 154.276 126.537 169.204C128.782 158.652 132.068 138.347 134.312 123.935C133.769 123.668 133.151 123.594 132.56 123.725V123.725Z" fill="black"/>
<path d="M146.455 107.578C146.455 107.578 148.877 151.926 148.239 170.011C147.569 188.831 140.973 250.424 140.973 250.424H130.954C130.954 250.424 130.582 189.929 130.146 171.448C129.654 151.305 127.224 107.578 127.224 107.578H146.455Z" fill="#47555C"/>
<path d="M142.902 246.444C142.943 246.444 142.329 250.61 142.329 250.61H130.138L129.815 246.888L142.902 246.444Z" fill="#707070"/>
<path d="M150.645 61.7284C151.557 63.1493 152.591 64.7398 153.632 66.2173C154.674 67.6948 155.748 69.1884 156.862 70.6174C158.971 73.449 161.324 76.091 163.894 78.5134C164.515 79.0866 165.153 79.6194 165.799 80.1281L166.284 80.4914C166.195 80.4444 166.1 80.4117 166.001 80.3945C165.791 80.3541 165.686 80.3945 165.743 80.3945C166.218 80.4293 166.695 80.3374 167.123 80.1281C167.829 79.8249 168.511 79.4715 169.166 79.0704C172.173 77.0878 175.023 74.8772 177.691 72.4582L181.155 75.2597C179.054 78.7848 176.439 81.9768 173.396 84.73C172.533 85.4917 171.603 86.1752 170.619 86.7726C169.376 87.5464 167.989 88.06 166.542 88.2824C164.924 88.5136 163.277 88.1646 161.892 87.2974L161.189 86.8534C160.269 86.2559 159.389 85.6262 158.549 84.9642C155.353 82.3674 152.439 79.4422 149.854 76.2366C148.586 74.6703 147.367 73.0879 146.229 71.449C145.09 69.81 143.992 68.2195 142.927 66.3465L150.645 61.7284Z" fill="#7F3E3B"/>
<path d="M138.995 65.2888C137.098 73.2413 151.485 81.0242 151.485 81.0242L160.826 70.0765C158.021 65.9369 154.825 62.0761 151.283 58.5474C144.743 52.2742 140.432 59.2336 138.995 65.2888Z" fill="#FFC42D"/>
<path d="M176.739 74.0809L178.943 67.0004L184.748 69.8907C184.748 69.8907 183.9 75.0578 179.678 75.954L176.739 74.0809Z" fill="#7F3E3B"/>
<path d="M181.268 65.0386L186.508 66.4757L184.748 69.8908L178.943 67.0005L181.268 65.0386Z" fill="#7F3E3B"/>
<path d="M129.985 43.4578C131.492 43.1217 132.871 42.3604 133.958 41.2643C135.046 40.1681 135.796 38.7831 136.121 37.2734C136.121 37.2734 134.829 33.8664 137.251 31.5493C139.673 29.2322 138.478 26.7051 136.056 26.2288C133.634 25.7524 129.92 28.6509 129.92 28.6509L126.965 33.9471L128.168 39.2918L129.985 43.4578Z" fill="#263238"/>
<path opacity="0.3" d="M129.985 43.4578C131.492 43.1217 132.871 42.3604 133.958 41.2643C135.046 40.1681 135.796 38.7831 136.121 37.2734C136.121 37.2734 134.829 33.8664 137.251 31.5493C139.673 29.2322 138.478 26.7051 136.056 26.2288C133.634 25.7524 129.92 28.6509 129.92 28.6509L126.965 33.9471L128.168 39.2918L129.985 43.4578Z" fill="white"/>
<path d="M133.634 35.3115C134.027 36.7284 134.879 37.9749 136.056 38.8558C137.598 40.0023 138.753 38.8558 138.64 37.1281C138.543 35.5134 137.622 33.0913 135.919 32.5907C134.215 32.0901 133.214 33.608 133.634 35.3115Z" fill="#934744"/>
<path d="M130.792 41.8755C129.347 38.4281 126.683 29.5068 136.096 26.2289C136.096 26.2289 135.41 17.6225 139.988 21.1264C139.988 21.1264 135.612 15.5395 135.006 21.2556C135.006 21.2556 133.933 19.3099 135.547 18.0262C135.547 18.0262 126.933 15.1358 127.135 21.6593C126.897 20.9883 126.828 20.2692 126.934 19.5653C127.039 18.8614 127.316 18.1942 127.74 17.6225C127.74 17.6225 125.867 17.5094 125.124 20.4644C124.382 23.4193 117.067 22.8057 117.737 29.531C117.737 29.531 111.278 37.653 126.788 44.5882C126.788 44.5882 124.745 45.8477 125.908 47.858C126.119 47.1528 126.473 46.4986 126.948 45.9361C127.423 45.3736 128.009 44.9148 128.669 44.5882C128.669 44.5882 127.66 46.8892 129.815 47.5674C129.6 46.9727 129.546 46.3319 129.658 45.7095C129.77 45.0872 130.044 44.5055 130.453 44.0231C130.709 43.7348 130.876 43.3794 130.936 42.9989C130.996 42.6183 130.946 42.2285 130.792 41.8755V41.8755Z" fill="#263238"/>
<path opacity="0.1" d="M136.339 45.4116C134.288 45.5085 134.409 47.5107 134.441 47.8337C136.219 47.6605 137.883 46.8825 139.156 45.6296C138.414 45.7588 137.622 45.3551 136.339 45.4116Z" fill="black"/>
<path d="M135.297 25.3649C135.297 25.3649 136.355 21.4654 138.349 22.2405C140.343 23.0155 138.93 26.1723 139.964 27.6498C139.485 27.4458 139.067 27.1203 138.753 26.7053C138.439 26.2904 138.238 25.8005 138.171 25.2842C137.881 23.4434 136.072 26.2288 136.072 26.2288L135.297 25.3649Z" fill="#263238"/>
<path d="M136.08 40.9792L138.002 38.7752L137.267 38.1293H134.885L134.151 38.7752L136.08 40.9792Z" fill="#D2D5DC"/>
<path opacity="0.2" d="M135.814 38.1293H134.885L134.151 38.7752L136.08 40.9792L135.079 38.7752L135.814 38.1293Z" fill="white"/>
</svg>
