<svg width="380" height="283" viewBox="0 0 380 283" fill="none" xmlns="http://www.w3.org/2000/svg">
<path d="M379.108 248.24H0V248.429H379.108V248.24Z" fill="#EBEBEB"/>
<path d="M84.6624 254.601H59.5503V254.791H84.6624V254.601Z" fill="#EBEBEB"/>
<path d="M123.968 260.068H101.093V260.257H123.968V260.068Z" fill="#EBEBEB"/>
<path d="M72.1062 261.637H43.1045V261.827H72.1062V261.637Z" fill="#EBEBEB"/>
<path d="M341.121 261.228H329.066V261.417H341.121V261.228Z" fill="#EBEBEB"/>
<path d="M326.632 261.228H296.819V261.417H326.632V261.228Z" fill="#EBEBEB"/>
<path d="M212.551 254.503H189.554V254.692H212.551V254.503Z" fill="#EBEBEB"/>
<path d="M270.509 254.503H215.841V254.692H270.509V254.503Z" fill="#EBEBEB"/>
<path d="M179.697 214.423H33.2933C32.1463 214.421 31.0471 213.964 30.2368 213.153C29.4265 212.341 28.9714 211.241 28.9714 210.094V4.2915C28.9814 3.15116 29.4409 2.06081 30.2501 1.25729C31.0593 0.45376 32.1529 0.00195346 33.2933 0H179.697C180.845 0 181.947 0.456133 182.758 1.26806C183.57 2.07998 184.027 3.18118 184.027 4.32941V210.094C184.027 211.242 183.57 212.343 182.758 213.155C181.947 213.967 180.845 214.423 179.697 214.423ZM33.2933 0.151644C32.1966 0.153652 31.1456 0.590699 30.3708 1.36686C29.5961 2.14301 29.161 3.19485 29.161 4.2915V210.094C29.161 211.191 29.5961 212.242 30.3708 213.019C31.1456 213.795 32.1966 214.232 33.2933 214.234H179.697C180.794 214.232 181.846 213.795 182.622 213.019C183.398 212.243 183.835 211.191 183.837 210.094V4.2915C183.835 3.19416 183.398 2.14233 182.622 1.36639C181.846 0.590453 180.794 0.153648 179.697 0.151644H33.2933Z" fill="#EBEBEB"/>
<path d="M343.707 214.423H197.295C196.148 214.421 195.048 213.965 194.236 213.153C193.425 212.342 192.968 211.242 192.966 210.094V4.2915C192.978 3.15047 193.439 2.06013 194.249 1.25681C195.06 0.453495 196.154 0.00193215 197.295 0H343.707C344.846 0.00394613 345.937 0.456635 346.745 1.25995C347.552 2.06326 348.011 3.15247 348.021 4.2915V210.094C348.021 211.24 347.567 212.338 346.758 213.15C345.95 213.961 344.852 214.419 343.707 214.423ZM197.295 0.151644C196.198 0.153648 195.146 0.590453 194.37 1.36639C193.594 2.14233 193.157 3.19416 193.155 4.2915V210.094C193.157 211.191 193.594 212.243 194.37 213.019C195.146 213.795 196.198 214.232 197.295 214.234H343.707C344.804 214.232 345.856 213.795 346.632 213.019C347.408 212.243 347.844 211.191 347.846 210.094V4.2915C347.844 3.19416 347.408 2.14233 346.632 1.36639C345.856 0.590453 344.804 0.153648 343.707 0.151644H197.295Z" fill="#EBEBEB"/>
<path d="M222.453 160.143H200.639V248.24H222.453V160.143Z" fill="#E6E6E6"/>
<path d="M213.385 248.24H222.453V233.045H203.877L213.385 248.24Z" fill="#F5F5F5"/>
<path d="M64.9184 160.143H43.1045V248.24H64.9184V160.143Z" fill="#E6E6E6"/>
<path d="M222.445 160.143H57.0027V243.008H222.445V160.143Z" fill="#F5F5F5"/>
<path d="M215.796 185.581H63.6901V167.459H215.796V185.581ZM64.4483 184.823H215.037V168.218H64.4483V184.823Z" fill="#EBEBEB"/>
<path d="M66.0709 248.24H57.0027V233.045H75.579L66.0709 248.24Z" fill="#F5F5F5"/>
<path d="M215.796 235.691H63.6901V192.473H215.796V235.691ZM64.4483 234.933H215.037V193.231H64.4483V234.933Z" fill="#EBEBEB"/>
<path d="M309.253 17.8331H136.85V137.222H309.253V17.8331Z" fill="#E6E6E6"/>
<path d="M312.423 17.8331H140.02V137.222H312.423V17.8331Z" fill="#F5F5F5"/>
<path d="M306.729 131.202V23.8685L145.706 23.8685V131.202H306.729Z" fill="white"/>
<path d="M306.736 131.194V23.861H304.34V131.194H306.736Z" fill="#E6E6E6"/>
<path d="M310.065 33.4751H142.37V37.524H310.065V33.4751Z" fill="#F5F5F5"/>
<g opacity="0.5">
<path opacity="0.5" d="M309.602 13.845H302.793V146.449H309.602V13.845Z" fill="#F0F0F0"/>
<path opacity="0.5" d="M300.951 13.845H294.142V146.449H300.951V13.845Z" fill="#F0F0F0"/>
<path opacity="0.5" d="M292.3 13.845H285.491V146.449H292.3V13.845Z" fill="#F0F0F0"/>
<path opacity="0.5" d="M283.656 13.845H276.847V146.449H283.656V13.845Z" fill="#F0F0F0"/>
<path opacity="0.5" d="M275.005 13.845H268.196V146.449H275.005V13.845Z" fill="#F0F0F0"/>
<path opacity="0.5" d="M266.354 13.845H259.545V146.449H266.354V13.845Z" fill="#F0F0F0"/>
<path opacity="0.5" d="M257.71 13.845H250.901V146.449H257.71V13.845Z" fill="#F0F0F0"/>
<path opacity="0.5" d="M249.059 13.845H242.25V146.449H249.059V13.845Z" fill="#F0F0F0"/>
<path opacity="0.5" d="M240.407 13.845H233.599V146.449H240.407V13.845Z" fill="#F0F0F0"/>
<path opacity="0.5" d="M231.756 13.845H224.947V146.449H231.756V13.845Z" fill="#F0F0F0"/>
<path opacity="0.5" d="M223.112 13.845H216.304V146.449H223.112V13.845Z" fill="#F0F0F0"/>
<path opacity="0.5" d="M214.461 13.845H207.652V146.449H214.461V13.845Z" fill="#F0F0F0"/>
<path opacity="0.5" d="M205.81 13.845H199.001V146.449H205.81V13.845Z" fill="#F0F0F0"/>
<path opacity="0.5" d="M197.159 13.845H190.35V146.449H197.159V13.845Z" fill="#F0F0F0"/>
<path opacity="0.5" d="M188.515 13.845H181.706V146.449H188.515V13.845Z" fill="#F0F0F0"/>
</g>
<path d="M97.2412 32.0952H47.2748V122.96H97.2412V32.0952Z" fill="#F0F0F0"/>
<path d="M107.97 32.0952H50.4972V122.96H107.97V32.0952Z" fill="#F5F5F5"/>
<path d="M52.8401 34.2485L52.8401 120.806H105.627V34.2485H52.8401Z" fill="white"/>
<path d="M66.9125 51.4751V103.58C66.9125 104.735 67.8494 105.672 69.0051 105.672H89.4694C90.6251 105.672 91.5621 104.735 91.5621 103.58V51.4751C91.5621 50.3194 90.6251 49.3824 89.4694 49.3824H69.0051C67.8494 49.3824 66.9125 50.3194 66.9125 51.4751Z" fill="#F5F5F5"/>
<path d="M291.087 107.886L301.307 133.074C301.012 205.931 304.302 210.132 304.34 222.665H278.561C277.605 161.682 286.651 175.39 291.087 107.886Z" fill="#EBEBEB"/>
<path d="M305.493 182.29C284.725 125.113 236.912 142.817 239.058 163.661C241.204 184.504 317.434 215.174 305.493 182.29Z" fill="#EBEBEB"/>
<path d="M297.638 215.257C286.31 178.416 256.178 184.428 256.178 201.359C256.178 218.29 304.158 236.449 297.638 215.257Z" fill="#EBEBEB"/>
<path d="M296.834 148.747C279.046 99.4627 234.744 106.287 238.315 127.054C241.886 147.822 307.077 177.074 296.834 148.747Z" fill="#EBEBEB"/>
<path d="M296.955 126.66C298.6 93.1012 265.368 79.2865 267.673 99.364C269.978 119.442 296.007 145.956 296.955 126.66Z" fill="#EBEBEB"/>
<path d="M294.476 161.015C301.489 119.662 344.078 103.936 339.317 127.342C334.555 150.748 290.435 184.8 294.476 161.015Z" fill="#EBEBEB"/>
<path d="M290.889 137.639C282.617 94.2765 320.877 75.0102 321.976 95.937C323.076 116.864 295.643 162.577 290.889 137.639Z" fill="#EBEBEB"/>
<path d="M287.568 186.619C304.469 144.834 340.643 155.199 337.012 174.215C333.38 193.231 277.848 210.655 287.568 186.619Z" fill="#EBEBEB"/>
<path d="M295.909 215.796C295.53 188.841 320.005 181.873 320.293 197.492C320.581 213.112 296.129 231.301 295.909 215.796Z" fill="#EBEBEB"/>
<path d="M288.433 248.429C282.022 248.45 275.795 246.282 270.784 242.284C265.772 238.286 262.275 232.697 260.872 226.441C260.21 223.076 259.248 219.777 257.998 216.584L257.793 216.069H319.08L318.868 216.584C317.62 219.778 316.661 223.076 316.001 226.441C314.596 232.697 311.098 238.286 306.085 242.285C301.072 246.283 294.845 248.45 288.433 248.429Z" fill="#E0E0E0"/>
<path d="M189.554 282.481C270.745 282.481 336.564 278.638 336.564 273.898C336.564 269.157 270.745 265.315 189.554 265.315C108.362 265.315 42.5435 269.157 42.5435 273.898C42.5435 278.638 108.362 282.481 189.554 282.481Z" fill="#F5F5F5"/>
<path d="M98.0903 120.511L97.6127 119.927C99.5738 118.328 101.652 116.878 103.83 115.59L104.217 116.249C102.071 117.515 100.023 118.939 98.0903 120.511Z" fill="#407BFF"/>
<path d="M82.5166 142.181L81.8115 141.915C84.4154 134.987 88.4658 128.693 93.6927 123.453L94.231 123.991C89.0805 129.155 85.0873 135.355 82.5166 142.181Z" fill="#407BFF"/>
<path d="M229.413 175.595C229.356 169.013 227.692 162.545 224.565 156.753C221.438 150.961 216.943 146.021 211.471 142.362C205.999 138.704 199.717 136.438 193.169 135.761C186.622 135.084 180.009 136.018 173.904 138.48C169.465 129.384 162.307 121.892 153.422 117.043C144.538 112.193 134.365 110.225 124.313 111.412C114.26 112.599 104.825 116.882 97.3141 123.667C89.8028 130.452 84.5867 139.405 82.3877 149.285C71.4899 149.972 61.288 154.876 53.9445 162.958C46.601 171.039 42.693 181.662 43.049 192.576C43.4049 203.49 47.9967 213.836 55.8512 221.421C63.7057 229.007 74.2054 233.236 85.1248 233.212H218.813C225.783 233.221 232.535 230.786 237.894 226.329C243.253 221.873 246.88 215.679 248.142 208.825C249.405 201.97 248.224 194.89 244.804 188.817C241.385 182.744 235.944 178.062 229.428 175.587L229.413 175.595Z" fill="#407BFF"/>
<path d="M199.342 162.023H92.3582C91.4874 162.019 90.6535 161.671 90.0385 161.054C89.4234 160.438 89.0771 159.603 89.0751 158.732C89.0771 157.862 89.4237 157.028 90.0389 156.413C90.6542 155.798 91.4881 155.451 92.3582 155.449H199.342C200.213 155.451 201.046 155.798 201.662 156.413C202.277 157.028 202.623 157.862 202.625 158.732C202.623 159.603 202.277 160.438 201.662 161.054C201.047 161.671 200.213 162.019 199.342 162.023Z" fill="#263238"/>
<path d="M183.208 206.454H108.493C105.565 206.454 102.757 205.291 100.687 203.221C98.6165 201.151 97.4534 198.343 97.4534 195.415C97.4534 192.487 98.6165 189.679 100.687 187.609C102.757 185.538 105.565 184.375 108.493 184.375H183.208C186.135 184.375 188.943 185.538 191.014 187.609C193.084 189.679 194.247 192.487 194.247 195.415C194.247 198.343 193.084 201.151 191.014 203.221C188.943 205.291 186.135 206.454 183.208 206.454ZM108.493 185.133C105.766 185.133 103.151 186.217 101.223 188.145C99.2949 190.073 98.2116 192.688 98.2116 195.415C98.2116 198.142 99.2949 200.757 101.223 202.685C103.151 204.613 105.766 205.696 108.493 205.696H183.208C185.934 205.696 188.55 204.613 190.478 202.685C192.406 200.757 193.489 198.142 193.489 195.415C193.489 192.688 192.406 190.073 190.478 188.145C188.55 186.217 185.934 185.133 183.208 185.133H108.493Z" fill="white"/>
<path d="M125.947 203.801H108.508C106.28 203.803 104.142 202.921 102.563 201.349C100.984 199.777 100.092 197.643 100.084 195.415C100.09 193.192 100.976 191.062 102.547 189.489C104.118 187.916 106.247 187.029 108.47 187.021H125.909C128.132 187.029 130.262 187.916 131.833 189.489C133.404 191.062 134.289 193.192 134.295 195.415C134.287 197.63 133.406 199.753 131.844 201.322C130.281 202.892 128.162 203.783 125.947 203.801Z" fill="white"/>
<path d="M202.398 98.2874L188.212 158.732H103.58L127.251 57.8518L185.854 71.5982L202.398 98.2874Z" fill="#407BFF"/>
<path opacity="0.8" d="M202.398 98.2874L188.212 158.732H103.58L127.251 57.8518L185.854 71.5982L202.398 98.2874Z" fill="#FAFAFA"/>
<path d="M191.358 109.524L127.077 94.4357C126.857 94.3848 126.65 94.2911 126.466 94.1598C126.283 94.0285 126.127 93.8623 126.008 93.6707C125.889 93.479 125.809 93.2658 125.772 93.0432C125.736 92.8206 125.744 92.5929 125.796 92.3734C125.898 91.9292 126.173 91.5439 126.56 91.3023C126.947 91.0606 127.414 90.9823 127.858 91.0844L192.147 106.15C192.59 106.256 192.974 106.534 193.214 106.921C193.454 107.309 193.531 107.776 193.428 108.22C193.325 108.667 193.05 109.054 192.662 109.299C192.274 109.543 191.806 109.624 191.358 109.524Z" fill="#407BFF"/>
<path d="M188.902 119.988L124.62 104.899C124.4 104.847 124.192 104.753 124.009 104.621C123.825 104.489 123.67 104.322 123.551 104.13C123.432 103.937 123.352 103.724 123.315 103.5C123.279 103.277 123.287 103.049 123.339 102.829C123.445 102.386 123.722 102.002 124.11 101.762C124.498 101.522 124.965 101.445 125.409 101.548L189.69 116.636C190.133 116.741 190.517 117.016 190.757 117.403C190.997 117.789 191.074 118.255 190.972 118.699C190.867 119.143 190.591 119.529 190.203 119.77C189.815 120.012 189.347 120.09 188.902 119.988Z" fill="#407BFF"/>
<path d="M186.445 130.413L122.164 115.332C121.72 115.226 121.337 114.949 121.097 114.561C120.857 114.173 120.78 113.706 120.882 113.262C120.99 112.82 121.268 112.438 121.655 112.198C122.042 111.958 122.508 111.88 122.952 111.981L187.234 127.062C187.454 127.113 187.661 127.208 187.845 127.34C188.028 127.472 188.184 127.639 188.303 127.831C188.422 128.023 188.502 128.237 188.538 128.46C188.575 128.683 188.567 128.912 188.515 129.132C188.463 129.352 188.369 129.559 188.237 129.743C188.105 129.926 187.938 130.082 187.746 130.201C187.553 130.32 187.34 130.4 187.116 130.436C186.893 130.473 186.665 130.465 186.445 130.413Z" fill="#407BFF"/>
<path d="M183.996 140.907L119.707 125.864C119.265 125.756 118.882 125.478 118.643 125.091C118.403 124.704 118.325 124.238 118.426 123.794C118.532 123.35 118.809 122.967 119.197 122.727C119.584 122.487 120.051 122.41 120.496 122.512L184.777 137.593C185.221 137.7 185.605 137.977 185.846 138.364C186.087 138.751 186.166 139.218 186.066 139.663C185.953 140.101 185.673 140.476 185.286 140.709C184.898 140.942 184.435 141.013 183.996 140.907Z" fill="#407BFF"/>
<path d="M155.98 145.373L117.258 136.274C116.819 136.163 116.442 135.883 116.208 135.496C115.973 135.108 115.901 134.644 116.007 134.204C116.058 133.984 116.152 133.777 116.283 133.593C116.414 133.41 116.58 133.254 116.772 133.135C116.964 133.016 117.177 132.936 117.399 132.9C117.622 132.863 117.85 132.871 118.069 132.923L156.799 142.021C157.019 142.073 157.227 142.168 157.41 142.3C157.594 142.432 157.749 142.599 157.868 142.791C157.987 142.983 158.067 143.197 158.104 143.42C158.14 143.643 158.132 143.871 158.08 144.091C158.029 144.315 157.933 144.525 157.799 144.711C157.665 144.897 157.495 145.054 157.3 145.174C157.104 145.293 156.887 145.372 156.66 145.406C156.433 145.44 156.202 145.429 155.98 145.373Z" fill="#407BFF"/>
<path d="M202.398 98.2875L180.781 93.215L185.854 71.5983L202.398 98.2875Z" fill="#407BFF"/>
<path d="M216.918 155.684L198.948 273.898H202.497L204.87 258.256H250.651L248.278 273.898H251.826L269.796 155.684H216.918ZM251.129 255.124H205.347L207.903 238.353H253.684L251.129 255.124ZM254.161 235.221H208.373L210.928 218.45H256.709L254.161 235.221ZM257.194 215.318H211.398L213.953 198.546H259.734L257.194 215.318ZM260.227 195.415H214.431L216.979 178.636H262.76L260.227 195.415ZM217.456 175.504L220.004 158.732H265.785L263.237 175.504H217.456Z" fill="#263238"/>
<path d="M277.188 155.684H224.31L242.28 273.898H245.829L243.448 258.256H289.229L291.61 273.898H295.158L277.188 155.684ZM228.321 158.717H274.103L276.65 175.489H230.869L228.321 158.717ZM231.354 178.62H277.128L279.675 195.4H233.894L231.354 178.62ZM234.387 198.531H280.168L282.701 215.333H236.92L234.387 198.531ZM237.42 218.434H283.201L285.749 235.206H239.945L237.42 218.434ZM242.993 255.109L240.445 238.338H286.226L288.774 255.109H242.993Z" fill="#263238"/>
<path opacity="0.4" d="M277.188 155.684H224.31L242.28 273.898H245.829L243.448 258.256H289.229L291.61 273.898H295.158L277.188 155.684ZM228.321 158.717H274.103L276.65 175.489H230.869L228.321 158.717ZM231.354 178.62H277.128L279.675 195.4H233.894L231.354 178.62ZM234.387 198.531H280.168L282.701 215.333H236.92L234.387 198.531ZM237.42 218.434H283.201L285.749 235.206H239.945L237.42 218.434ZM242.993 255.109L240.445 238.338H286.226L288.774 255.109H242.993Z" fill="white"/>
<path d="M254.533 40.6252C256.049 41.7929 257.384 42.9605 258.764 44.1737C260.144 45.3868 261.463 46.6303 262.767 47.9117C265.413 50.5057 267.886 53.2716 270.167 56.1914L271.017 57.3363L271.441 57.905C271.681 58.2403 271.897 58.5925 272.086 58.9589C272.696 60.1841 273.052 61.5201 273.132 62.8865C273.242 64.9923 273.025 67.1025 272.488 69.1417C271.561 72.8014 270.148 76.3205 268.287 79.6051L264.413 78.028C265.187 74.7561 265.737 71.4349 266.058 68.0878C266.202 66.6449 266.156 65.1894 265.921 63.7584C265.853 63.3499 265.701 62.96 265.474 62.6135C265.436 62.5756 265.421 62.5756 265.398 62.5528L264.989 62.0903L264.17 61.1577C261.895 58.7011 259.499 56.3051 256.967 54.0002C254.434 51.6952 251.811 49.375 249.263 47.2217L254.533 40.6252Z" fill="#7F3E3B"/>
<path d="M265.952 76.4661L261.592 79.4989L266.899 82.7138C266.899 82.7138 269.637 80.0979 268.461 77.6716L265.952 76.4661Z" fill="#7F3E3B"/>
<path d="M259.423 84.4804L263.442 86.7323L266.93 82.6759L261.592 79.4686L259.423 84.4804Z" fill="#7F3E3B"/>
<path d="M224.849 24.7785C224.97 25.2714 224.811 25.7339 224.492 25.8173C224.174 25.9007 223.81 25.5671 223.681 25.0591C223.552 24.5511 223.719 24.1037 224.038 24.0203C224.356 23.9369 224.72 24.2629 224.849 24.7785Z" fill="#263238"/>
<path d="M224.856 25.7263C224.657 27.3743 224.231 28.9868 223.59 30.5182C223.987 30.6712 224.412 30.7362 224.836 30.7087C225.26 30.6812 225.673 30.5619 226.047 30.359L224.856 25.7263Z" fill="#630F0F"/>
<path d="M225.888 21.6168C225.828 21.6359 225.765 21.6359 225.706 21.6168C225.362 21.4707 224.988 21.4077 224.616 21.4327C224.243 21.4577 223.881 21.5701 223.56 21.7608C223.496 21.7953 223.423 21.8055 223.352 21.7893C223.282 21.7731 223.22 21.7317 223.178 21.673C223.136 21.6142 223.117 21.5421 223.124 21.4703C223.132 21.3985 223.165 21.332 223.219 21.2832C223.619 21.0317 224.074 20.8805 224.545 20.8422C225.016 20.8039 225.49 20.8797 225.926 21.0633C225.983 21.0865 226.032 21.1276 226.066 21.1804C226.099 21.2333 226.114 21.2953 226.11 21.3576C226.106 21.4199 226.082 21.4792 226.042 21.5271C226.002 21.575 225.948 21.6091 225.888 21.6243V21.6168Z" fill="#263238"/>
<path d="M240.392 26.1584C241.097 30.7836 242.091 37.8729 246.155 39.6623C246.155 39.6623 246.549 44.4694 238.519 47.3582C229.694 50.5351 232.727 44.4997 232.727 44.4997C237.132 41.6109 235.722 38.0852 233.674 35.0296L240.392 26.1584Z" fill="#7F3E3B"/>
<path d="M246.913 38.6691C246.913 37.2209 245.434 34.7112 243.941 34.878C242.295 35.0676 236.017 37.3801 233.728 39.4956C231.438 41.611 233.06 45.3187 233.06 45.3187L246.913 38.6691Z" fill="#263238"/>
<path d="M295.325 213.968C294.931 214.378 294.483 214.727 294.135 214.674C293.983 214.674 293.786 214.567 293.687 214.234C293.661 214.149 293.653 214.06 293.665 213.972C293.677 213.884 293.708 213.8 293.755 213.726C294.18 213.005 296.03 212.634 296.083 212.619C296.109 212.614 296.135 212.616 296.159 212.625C296.183 212.635 296.204 212.651 296.22 212.672C296.232 212.694 296.239 212.719 296.239 212.744C296.239 212.769 296.232 212.794 296.22 212.816C295.962 213.23 295.662 213.616 295.325 213.968ZM294.082 213.733C294.04 213.771 294.004 213.814 293.975 213.862C293.949 213.906 293.932 213.955 293.925 214.006C293.919 214.057 293.923 214.109 293.937 214.158C294.013 214.393 294.127 214.408 294.165 214.416C294.552 214.461 295.348 213.658 295.825 212.952C295.193 213.078 294.596 213.345 294.082 213.733Z" fill="#407BFF"/>
<path d="M296.204 212.839C296.19 212.855 296.172 212.869 296.151 212.877C295.522 213.074 293.877 213.021 293.505 212.505C293.452 212.423 293.427 212.326 293.436 212.228C293.444 212.131 293.484 212.039 293.551 211.967C293.611 211.885 293.688 211.817 293.777 211.767C293.866 211.717 293.965 211.687 294.066 211.679C294.893 211.58 296.144 212.604 296.197 212.649C296.215 212.664 296.228 212.682 296.236 212.704C296.244 212.725 296.246 212.748 296.242 212.771C296.236 212.796 296.223 212.82 296.204 212.839ZM293.801 212.081C293.801 212.081 293.801 212.081 293.763 212.126C293.657 212.263 293.702 212.323 293.725 212.354C293.937 212.657 295.098 212.793 295.81 212.68C295.33 212.258 294.732 211.994 294.097 211.921C294.039 211.926 293.983 211.942 293.932 211.97C293.881 211.997 293.837 212.035 293.801 212.081Z" fill="#407BFF"/>
<path d="M249.453 229.815C248.74 229.815 248.05 229.717 247.815 229.398C247.757 229.313 247.726 229.213 247.726 229.11C247.726 229.007 247.757 228.907 247.815 228.822C247.86 228.745 247.92 228.677 247.992 228.624C248.063 228.57 248.145 228.532 248.232 228.511C249.157 228.261 251.106 229.368 251.189 229.421C251.212 229.433 251.23 229.452 251.241 229.475C251.251 229.499 251.255 229.525 251.25 229.55C251.247 229.578 251.235 229.604 251.216 229.624C251.197 229.645 251.171 229.659 251.144 229.663C250.585 229.762 250.02 229.813 249.453 229.815ZM248.573 228.738C248.488 228.726 248.401 228.726 248.316 228.738C248.262 228.749 248.212 228.771 248.167 228.802C248.123 228.833 248.086 228.874 248.058 228.92C247.967 229.087 247.997 229.163 248.058 229.216C248.316 229.573 249.718 229.58 250.757 229.436C250.083 229.066 249.344 228.829 248.581 228.738H248.573Z" fill="#407BFF"/>
<path d="M251.144 229.663C251.127 229.67 251.108 229.67 251.091 229.663C250.416 229.368 249.089 228.147 249.188 227.533C249.188 227.381 249.316 227.199 249.68 227.161C249.816 227.145 249.953 227.156 250.083 227.196C250.214 227.235 250.335 227.301 250.439 227.389C250.949 227.993 251.252 228.745 251.303 229.535C251.306 229.558 251.303 229.581 251.293 229.603C251.284 229.624 251.269 229.642 251.25 229.656C251.234 229.665 251.216 229.67 251.198 229.671C251.179 229.672 251.161 229.67 251.144 229.663ZM249.787 227.389H249.703C249.468 227.389 249.453 227.503 249.445 227.533C249.385 227.912 250.295 228.86 250.962 229.269C250.896 228.632 250.631 228.032 250.204 227.556C250.085 227.461 249.938 227.408 249.787 227.404V227.389Z" fill="#407BFF"/>
<path d="M257.27 229.535H251.697L251.144 216.63H256.717L257.27 229.535Z" fill="#7F3E3B"/>
<path d="M301.906 210.64L296.75 212.513L290.199 200.958L295.355 199.085L301.906 210.64Z" fill="#7F3E3B"/>
<path d="M295.939 212.005L300.291 207.501C300.369 207.424 300.469 207.374 300.578 207.36C300.686 207.347 300.796 207.369 300.89 207.425L305.212 210.079C305.317 210.144 305.405 210.232 305.471 210.336C305.536 210.441 305.578 210.558 305.591 210.681C305.605 210.803 305.591 210.927 305.551 211.044C305.51 211.16 305.443 211.266 305.356 211.353C303.84 212.869 302.983 213.574 301.072 215.553C299.889 216.766 296.386 220.861 294.764 222.574C293.141 224.288 291.261 222.862 291.776 222.028C294.089 218.29 295.484 214.734 295.568 212.892C295.578 212.56 295.71 212.244 295.939 212.005Z" fill="#263238"/>
<path d="M251.728 228.89H257.793C257.904 228.889 258.012 228.926 258.099 228.995C258.186 229.064 258.247 229.161 258.271 229.269L259.37 234.22C259.398 234.34 259.398 234.464 259.371 234.584C259.343 234.704 259.288 234.815 259.211 234.911C259.133 235.006 259.035 235.082 258.923 235.133C258.811 235.184 258.689 235.209 258.567 235.206C256.375 235.206 253.206 235.047 250.446 235.047C247.224 235.047 245.813 235.221 242.03 235.221C239.755 235.221 239.111 232.909 240.066 232.696C244.426 231.741 246.602 231.642 250.37 229.322C250.774 229.055 251.244 228.906 251.728 228.89Z" fill="#263238"/>
<path d="M236.601 51.6876C235.744 53.8485 234.835 55.8577 233.894 57.9201C232.954 59.9824 231.953 61.9841 230.922 63.9858C228.832 68.1042 226.437 72.0605 223.757 75.8216C223.052 76.7769 222.294 77.7247 221.482 78.6649C221.065 79.1425 220.641 79.5823 220.14 80.0751C219.561 80.6221 218.929 81.1098 218.252 81.5309C217.138 82.2123 215.966 82.7934 214.749 83.2672C213.612 83.7298 212.475 84.1088 211.36 84.4425C206.967 85.7167 202.459 86.5548 197.902 86.9446L197.053 82.8502C201.109 81.3869 205.234 79.8628 209.032 78.1644C209.973 77.7247 210.898 77.2773 211.762 76.8148C212.561 76.3997 213.322 75.9151 214.037 75.3666C214.283 75.1811 214.509 74.9702 214.711 74.7373C214.977 74.4264 215.295 74.0625 215.583 73.691C216.167 72.9328 216.744 72.129 217.297 71.2723C218.427 69.589 219.473 67.7617 220.482 65.9041C221.49 64.0465 222.476 62.113 223.416 60.2175C225.304 56.3733 227.131 52.3927 228.814 48.5031L236.601 51.6876Z" fill="#7F3E3B"/>
<path d="M249.316 37.2967C257.308 36.675 264.481 48.5259 264.481 48.5259L258.741 57.8519C254.611 56.2194 250.771 53.9333 247.368 51.0811C241.931 46.3574 243.857 37.7289 249.316 37.2967Z" fill="#FFC42D"/>
<path opacity="0.3" d="M248.816 47.2823L257.225 58.6025L256.846 59.065C256.846 59.065 253.949 56.7904 250.598 53.4997L248.816 47.2823Z" fill="black"/>
<path d="M227.154 46.1299C226.706 50.0347 233.22 67.3068 234.736 87.7938L264.39 84.8747C264.177 80.9471 262.009 64.4029 258.081 45.728C256.997 40.5721 253.001 36.6294 247.838 37.6379H247.694C243.547 38.4474 239.451 39.4981 235.426 40.7844C233.149 41.6135 230.93 42.5938 228.784 43.7187C228.335 43.9555 227.951 44.2995 227.667 44.7201C227.382 45.1406 227.206 45.6249 227.154 46.1299Z" fill="#FFC42D"/>
<path opacity="0.3" d="M230.156 60.4754C230.657 62.5605 231.18 64.82 231.673 67.2235C236.184 66.1544 235.312 56.1536 235.403 56.0247L230.156 60.4754Z" fill="black"/>
<path d="M236.813 48.0633C239.088 55.8653 230.672 66.2605 230.672 66.2605L222.195 60.8013C222.195 60.8013 222.134 53.6513 224.841 48.0709C228.276 41.0043 235.191 42.498 236.813 48.0633Z" fill="#FFC42D"/>
<path d="M197.136 82.1072L193.732 81.6447L193.785 88.7567C193.785 88.7567 198.372 89.2268 200.92 86.0651L200.419 84.7306C200.159 84.0379 199.717 83.4283 199.139 82.9665C198.561 82.5047 197.869 82.2077 197.136 82.1072Z" fill="#7F3E3B"/>
<path d="M187.916 83.29L190.092 89.0828L193.815 88.7567L193.762 81.6447L187.916 83.29Z" fill="#7F3E3B"/>
<path opacity="0.2" d="M251.144 216.637L251.455 223.886H257.027L256.717 216.637H251.144Z" fill="black"/>
<path opacity="0.2" d="M295.355 199.085L290.199 200.958L293.824 207.357L298.737 205.037L295.355 199.085Z" fill="black"/>
<path d="M240.931 19.5468C242.106 25.6656 243.107 29.1837 240.855 33.0582C237.473 38.8813 229.33 38.0245 226.358 32.3834C223.674 27.2958 222.203 18.1517 227.465 14.2469C228.624 13.3744 229.989 12.8137 231.427 12.6184C232.865 12.4231 234.329 12.5996 235.68 13.1312C237.03 13.6627 238.222 14.5315 239.141 15.6547C240.06 16.7778 240.677 18.1178 240.931 19.5468Z" fill="#7F3E3B"/>
<path d="M230.626 23.6336C226.896 25.4988 226.835 19.5393 227.131 18.273C225.728 19.6227 223.833 20.9799 220.391 19.4938C216.16 17.6665 217.358 12.8897 220.391 12.9504C220.391 12.9504 218.116 8.62855 223.09 8.17362C225.137 8.10548 227.178 8.41917 229.11 9.09864C229.11 9.09864 230.952 4.26881 235.441 6.6117C237.814 7.84759 239.71 11.5022 239.71 11.5022C239.71 11.5022 249.377 12.9352 244.13 17.9849C245.321 20.578 244.691 29.017 241.621 32.6261C240.279 34.2032 228.792 33.7406 230.626 23.6336Z" fill="#263238"/>
<path d="M238.034 13.9663C238.034 13.9663 239.786 11.5476 239.93 5.96716C244.016 10.4103 238.034 13.9663 238.034 13.9663Z" fill="#263238"/>
<path d="M232.439 23.2925C232.537 24.8389 232.121 26.3744 231.256 27.6598C230.118 29.3506 228.572 28.6227 228.071 26.8409C227.616 25.2411 227.662 22.4281 229.201 21.3666C230.74 20.3051 232.279 21.4273 232.439 23.2925Z" fill="#7F3E3B"/>
<path d="M245.268 86.7626C245.268 86.7626 255.731 128.464 260.75 144.031C266.24 161.045 290.063 205.651 290.063 205.651L299.412 201.579C299.412 201.579 281.381 160.969 277.53 143.955C273.352 125.515 264.405 84.8595 264.405 84.8595L245.268 86.7626Z" fill="#263238"/>
<path d="M287.295 202.572C287.258 202.572 290.328 206.963 290.328 206.963L300.83 202.322L298.707 197.978L287.295 202.572Z" fill="#707070"/>
<path opacity="0.3" d="M250.734 101.464C258.15 102.17 260.045 129.374 260.546 143.416C257.475 133.757 252.539 115.082 249.112 101.821C249.597 101.522 250.169 101.397 250.734 101.464Z" fill="black"/>
<path d="M234.751 87.7938C234.751 87.7938 235.957 130.648 238.224 147.496C240.582 165.018 249.301 221.043 249.301 221.043H258.741C258.741 221.043 256.557 164.465 255.276 147.154C253.881 128.283 254.245 85.8604 254.245 85.8604L234.751 87.7938Z" fill="#263238"/>
<path d="M247.421 216.637C247.383 216.637 248.179 222.347 248.179 222.347L259.651 221.953L259.757 216.645L247.421 216.637Z" fill="#707070"/>
</svg>
